ISO-10303-21;
HEADER;
FILE_DESCRIPTION(('FreeCAD Model'),'2;1');
FILE_NAME('Open CASCADE Shape Model','2026-08-30T13:47:20',('Author'),(
    ''),'Open CASCADE STEP processor 7.8','FreeCAD','Unknown');
FILE_SCHEMA(('AUTOMOTIVE_DESIGN { 1 0 10303 214 1 1 1 1 }'));
ENDSEC;
DATA;
#1 = APPLICATION_PROTOCOL_DEFINITION('international standard',
  'automotive_design',2000,#2);
#2 = APPLICATION_CONTEXT(
  'core data for automotive mechanical design processes');
#3 = SHAPE_DEFINITION_REPRESENTATION(#4,#10);
#4 = PRODUCT_DEFINITION_SHAPE('','',#5);
#5 = PRODUCT_DEFINITION('design','',#6,#9);
#6 = PRODUCT_DEFINITION_FORMATION('','',#7);
#7 = PRODUCT('Spring retention 2','Spring retention 2','',(#8));
#8 = PRODUCT_CONTEXT('',#2,'mechanical');
#9 = PRODUCT_DEFINITION_CONTEXT('part definition',#2,'design');
#10 = ADVANCED_BREP_SHAPE_REPRESENTATION('',(#11,#15),#427);
#11 = AXIS2_PLACEMENT_3D('',#12,#13,#14);
#12 = CARTESIAN_POINT('',(0.,0.,0.));
#13 = DIRECTION('',(0.,0.,1.));
#14 = DIRECTION('',(1.,0.,-0.));
#15 = MANIFOLD_SOLID_BREP('',#16);
#16 = CLOSED_SHELL('',(#17,#57,#146,#171,#263,#280,#297,#314,#331,#348,
    #360,#377,#394,#418));
#17 = ADVANCED_FACE('',(#18),#52,.F.);
#18 = FACE_BOUND('',#19,.F.);
#19 = EDGE_LOOP('',(#20,#30,#38,#46));
#20 = ORIENTED_EDGE('',*,*,#21,.F.);
#21 = EDGE_CURVE('',#22,#24,#26,.T.);
#22 = VERTEX_POINT('',#23);
#23 = CARTESIAN_POINT('',(-20.,-4.E-15,-19.5));
#24 = VERTEX_POINT('',#25);
#25 = CARTESIAN_POINT('',(13.,-4.E-15,-19.5));
#26 = LINE('',#27,#28);
#27 = CARTESIAN_POINT('',(-20.,0.,-19.5));
#28 = VECTOR('',#29,1.);
#29 = DIRECTION('',(1.,0.,0.));
#30 = ORIENTED_EDGE('',*,*,#31,.T.);
#31 = EDGE_CURVE('',#22,#32,#34,.T.);
#32 = VERTEX_POINT('',#33);
#33 = CARTESIAN_POINT('',(-20.,-3.,-19.5));
#34 = LINE('',#35,#36);
#35 = CARTESIAN_POINT('',(-20.,-4.33E-15,-19.5));
#36 = VECTOR('',#37,1.);
#37 = DIRECTION('',(0.,-1.,2.2E-16));
#38 = ORIENTED_EDGE('',*,*,#39,.T.);
#39 = EDGE_CURVE('',#32,#40,#42,.T.);
#40 = VERTEX_POINT('',#41);
#41 = CARTESIAN_POINT('',(13.,-3.,-19.5));
#42 = LINE('',#43,#44);
#43 = CARTESIAN_POINT('',(-20.,-3.,-19.5));
#44 = VECTOR('',#45,1.);
#45 = DIRECTION('',(1.,0.,0.));
#46 = ORIENTED_EDGE('',*,*,#47,.T.);
#47 = EDGE_CURVE('',#40,#24,#48,.T.);
#48 = LINE('',#49,#50);
#49 = CARTESIAN_POINT('',(13.,-3.,-19.5));
#50 = VECTOR('',#51,1.);
#51 = DIRECTION('',(0.,1.,-2.2E-16));
#52 = PLANE('',#53);
#53 = AXIS2_PLACEMENT_3D('',#54,#55,#56);
#54 = CARTESIAN_POINT('',(-20.,-4.33E-15,-19.5));
#55 = DIRECTION('',(0.,2.2E-16,1.));
#56 = DIRECTION('',(1.,0.,0.));
#57 = ADVANCED_FACE('',(#58,#119,#130),#141,.T.);
#58 = FACE_BOUND('',#59,.T.);
#59 = EDGE_LOOP('',(#60,#61,#70,#78,#87,#95,#104,#112));
#60 = ORIENTED_EDGE('',*,*,#21,.F.);
#61 = ORIENTED_EDGE('',*,*,#62,.F.);
#62 = EDGE_CURVE('',#63,#22,#65,.T.);
#63 = VERTEX_POINT('',#64);
#64 = CARTESIAN_POINT('',(-25.,-3.E-15,-14.5));
#65 = CIRCLE('',#66,5.);
#66 = AXIS2_PLACEMENT_3D('',#67,#68,#69);
#67 = CARTESIAN_POINT('',(-20.,0.,-14.5));
#68 = DIRECTION('',(0.,-1.,0.));
#69 = DIRECTION('',(1.,0.,0.));
#70 = ORIENTED_EDGE('',*,*,#71,.F.);
#71 = EDGE_CURVE('',#72,#63,#74,.T.);
#72 = VERTEX_POINT('',#73);
#73 = CARTESIAN_POINT('',(-25.,3.E-15,14.5));
#74 = LINE('',#75,#76);
#75 = CARTESIAN_POINT('',(-25.,0.,14.5));
#76 = VECTOR('',#77,1.);
#77 = DIRECTION('',(0.,0.,-1.));
#78 = ORIENTED_EDGE('',*,*,#79,.F.);
#79 = EDGE_CURVE('',#80,#72,#82,.T.);
#80 = VERTEX_POINT('',#81);
#81 = CARTESIAN_POINT('',(-20.,4.E-15,19.5));
#82 = CIRCLE('',#83,5.);
#83 = AXIS2_PLACEMENT_3D('',#84,#85,#86);
#84 = CARTESIAN_POINT('',(-20.,0.,14.5));
#85 = DIRECTION('',(0.,-1.,0.));
#86 = DIRECTION('',(1.,0.,0.));
#87 = ORIENTED_EDGE('',*,*,#88,.F.);
#88 = EDGE_CURVE('',#89,#80,#91,.T.);
#89 = VERTEX_POINT('',#90);
#90 = CARTESIAN_POINT('',(13.,4.E-15,19.5));
#91 = LINE('',#92,#93);
#92 = CARTESIAN_POINT('',(20.,0.,19.5));
#93 = VECTOR('',#94,1.);
#94 = DIRECTION('',(-1.,0.,0.));
#95 = ORIENTED_EDGE('',*,*,#96,.F.);
#96 = EDGE_CURVE('',#97,#89,#99,.T.);
#97 = VERTEX_POINT('',#98);
#98 = CARTESIAN_POINT('',(18.,0.,14.5));
#99 = CIRCLE('',#100,5.);
#100 = AXIS2_PLACEMENT_3D('',#101,#102,#103);
#101 = CARTESIAN_POINT('',(13.,0.,14.5));
#102 = DIRECTION('',(0.,-1.,2.2E-16));
#103 = DIRECTION('',(1.,0.,0.));
#104 = ORIENTED_EDGE('',*,*,#105,.F.);
#105 = EDGE_CURVE('',#106,#97,#108,.T.);
#106 = VERTEX_POINT('',#107);
#107 = CARTESIAN_POINT('',(18.,0.,-14.5));
#108 = LINE('',#109,#110);
#109 = CARTESIAN_POINT('',(18.,0.,7.25));
#110 = VECTOR('',#111,1.);
#111 = DIRECTION('',(0.,0.,1.));
#112 = ORIENTED_EDGE('',*,*,#113,.F.);
#113 = EDGE_CURVE('',#24,#106,#114,.T.);
#114 = CIRCLE('',#115,5.);
#115 = AXIS2_PLACEMENT_3D('',#116,#117,#118);
#116 = CARTESIAN_POINT('',(13.,0.,-14.5));
#117 = DIRECTION('',(0.,-1.,2.2E-16));
#118 = DIRECTION('',(1.,0.,0.));
#119 = FACE_BOUND('',#120,.T.);
#120 = EDGE_LOOP('',(#121));
#121 = ORIENTED_EDGE('',*,*,#122,.T.);
#122 = EDGE_CURVE('',#123,#123,#125,.T.);
#123 = VERTEX_POINT('',#124);
#124 = CARTESIAN_POINT('',(-14.85,0.,-10.));
#125 = CIRCLE('',#126,2.65);
#126 = AXIS2_PLACEMENT_3D('',#127,#128,#129);
#127 = CARTESIAN_POINT('',(-17.5,0.,-10.));
#128 = DIRECTION('',(0.,-1.,2.2E-16));
#129 = DIRECTION('',(1.,0.,0.));
#130 = FACE_BOUND('',#131,.T.);
#131 = EDGE_LOOP('',(#132));
#132 = ORIENTED_EDGE('',*,*,#133,.T.);
#133 = EDGE_CURVE('',#134,#134,#136,.T.);
#134 = VERTEX_POINT('',#135);
#135 = CARTESIAN_POINT('',(-14.85,0.,10.));
#136 = CIRCLE('',#137,2.65);
#137 = AXIS2_PLACEMENT_3D('',#138,#139,#140);
#138 = CARTESIAN_POINT('',(-17.5,0.,10.));
#139 = DIRECTION('',(0.,-1.,2.2E-16));
#140 = DIRECTION('',(1.,0.,0.));
#141 = PLANE('',#142);
#142 = AXIS2_PLACEMENT_3D('',#143,#144,#145);
#143 = CARTESIAN_POINT('',(-1.47E-15,0.,2.27E-15));
#144 = DIRECTION('',(0.,1.,0.));
#145 = DIRECTION('',(0.,0.,1.));
#146 = ADVANCED_FACE('',(#147),#166,.T.);
#147 = FACE_BOUND('',#148,.T.);
#148 = EDGE_LOOP('',(#149,#158,#159,#160));
#149 = ORIENTED_EDGE('',*,*,#150,.F.);
#150 = EDGE_CURVE('',#40,#151,#153,.T.);
#151 = VERTEX_POINT('',#152);
#152 = CARTESIAN_POINT('',(18.,-3.,-14.5));
#153 = CIRCLE('',#154,5.);
#154 = AXIS2_PLACEMENT_3D('',#155,#156,#157);
#155 = CARTESIAN_POINT('',(13.,-3.,-14.5));
#156 = DIRECTION('',(0.,-1.,0.));
#157 = DIRECTION('',(1.,0.,0.));
#158 = ORIENTED_EDGE('',*,*,#47,.T.);
#159 = ORIENTED_EDGE('',*,*,#113,.T.);
#160 = ORIENTED_EDGE('',*,*,#161,.F.);
#161 = EDGE_CURVE('',#151,#106,#162,.T.);
#162 = LINE('',#163,#164);
#163 = CARTESIAN_POINT('',(18.,-3.,-14.5));
#164 = VECTOR('',#165,1.);
#165 = DIRECTION('',(0.,1.,-2.2E-16));
#166 = CYLINDRICAL_SURFACE('',#167,5.);
#167 = AXIS2_PLACEMENT_3D('',#168,#169,#170);
#168 = CARTESIAN_POINT('',(13.,-3.,-14.5));
#169 = DIRECTION('',(0.,-1.,2.2E-16));
#170 = DIRECTION('',(1.,0.,0.));
#171 = ADVANCED_FACE('',(#172,#225,#236,#247),#258,.T.);
#172 = FACE_BOUND('',#173,.T.);
#173 = EDGE_LOOP('',(#174,#183,#184,#185,#193,#202,#210,#219));
#174 = ORIENTED_EDGE('',*,*,#175,.T.);
#175 = EDGE_CURVE('',#176,#32,#178,.T.);
#176 = VERTEX_POINT('',#177);
#177 = CARTESIAN_POINT('',(-25.,-3.,-14.5));
#178 = CIRCLE('',#179,5.);
#179 = AXIS2_PLACEMENT_3D('',#180,#181,#182);
#180 = CARTESIAN_POINT('',(-20.,-3.,-14.5));
#181 = DIRECTION('',(0.,-1.,0.));
#182 = DIRECTION('',(1.,0.,0.));
#183 = ORIENTED_EDGE('',*,*,#39,.T.);
#184 = ORIENTED_EDGE('',*,*,#150,.T.);
#185 = ORIENTED_EDGE('',*,*,#186,.F.);
#186 = EDGE_CURVE('',#187,#151,#189,.T.);
#187 = VERTEX_POINT('',#188);
#188 = CARTESIAN_POINT('',(18.,-3.,14.5));
#189 = LINE('',#190,#191);
#190 = CARTESIAN_POINT('',(18.,-3.,14.5));
#191 = VECTOR('',#192,1.);
#192 = DIRECTION('',(0.,0.,-1.));
#193 = ORIENTED_EDGE('',*,*,#194,.T.);
#194 = EDGE_CURVE('',#187,#195,#197,.T.);
#195 = VERTEX_POINT('',#196);
#196 = CARTESIAN_POINT('',(13.,-3.,19.5));
#197 = CIRCLE('',#198,5.);
#198 = AXIS2_PLACEMENT_3D('',#199,#200,#201);
#199 = CARTESIAN_POINT('',(13.,-3.,14.5));
#200 = DIRECTION('',(0.,-1.,0.));
#201 = DIRECTION('',(1.,0.,0.));
#202 = ORIENTED_EDGE('',*,*,#203,.T.);
#203 = EDGE_CURVE('',#195,#204,#206,.T.);
#204 = VERTEX_POINT('',#205);
#205 = CARTESIAN_POINT('',(-20.,-3.,19.5));
#206 = LINE('',#207,#208);
#207 = CARTESIAN_POINT('',(20.,-3.,19.5));
#208 = VECTOR('',#209,1.);
#209 = DIRECTION('',(-1.,0.,0.));
#210 = ORIENTED_EDGE('',*,*,#211,.T.);
#211 = EDGE_CURVE('',#204,#212,#214,.T.);
#212 = VERTEX_POINT('',#213);
#213 = CARTESIAN_POINT('',(-25.,-3.,14.5));
#214 = CIRCLE('',#215,5.);
#215 = AXIS2_PLACEMENT_3D('',#216,#217,#218);
#216 = CARTESIAN_POINT('',(-20.,-3.,14.5));
#217 = DIRECTION('',(0.,-1.,0.));
#218 = DIRECTION('',(1.,0.,0.));
#219 = ORIENTED_EDGE('',*,*,#220,.T.);
#220 = EDGE_CURVE('',#212,#176,#221,.T.);
#221 = LINE('',#222,#223);
#222 = CARTESIAN_POINT('',(-25.,-3.,14.5));
#223 = VECTOR('',#224,1.);
#224 = DIRECTION('',(0.,0.,-1.));
#225 = FACE_BOUND('',#226,.T.);
#226 = EDGE_LOOP('',(#227));
#227 = ORIENTED_EDGE('',*,*,#228,.F.);
#228 = EDGE_CURVE('',#229,#229,#231,.T.);
#229 = VERTEX_POINT('',#230);
#230 = CARTESIAN_POINT('',(-14.85,-3.,10.));
#231 = CIRCLE('',#232,2.65);
#232 = AXIS2_PLACEMENT_3D('',#233,#234,#235);
#233 = CARTESIAN_POINT('',(-17.5,-3.,10.));
#234 = DIRECTION('',(0.,-1.,0.));
#235 = DIRECTION('',(1.,0.,0.));
#236 = FACE_BOUND('',#237,.T.);
#237 = EDGE_LOOP('',(#238));
#238 = ORIENTED_EDGE('',*,*,#239,.F.);
#239 = EDGE_CURVE('',#240,#240,#242,.T.);
#240 = VERTEX_POINT('',#241);
#241 = CARTESIAN_POINT('',(-14.85,-3.,-10.));
#242 = CIRCLE('',#243,2.65);
#243 = AXIS2_PLACEMENT_3D('',#244,#245,#246);
#244 = CARTESIAN_POINT('',(-17.5,-3.,-10.));
#245 = DIRECTION('',(0.,-1.,0.));
#246 = DIRECTION('',(1.,0.,0.));
#247 = FACE_BOUND('',#248,.T.);
#248 = EDGE_LOOP('',(#249));
#249 = ORIENTED_EDGE('',*,*,#250,.F.);
#250 = EDGE_CURVE('',#251,#251,#253,.T.);
#251 = VERTEX_POINT('',#252);
#252 = CARTESIAN_POINT('',(10.,-3.,0.));
#253 = CIRCLE('',#254,10.);
#254 = AXIS2_PLACEMENT_3D('',#255,#256,#257);
#255 = CARTESIAN_POINT('',(0.,-3.,0.));
#256 = DIRECTION('',(0.,-1.,0.));
#257 = DIRECTION('',(1.,0.,0.));
#258 = PLANE('',#259);
#259 = AXIS2_PLACEMENT_3D('',#260,#261,#262);
#260 = CARTESIAN_POINT('',(-9.7E-16,-3.,2.19E-15));
#261 = DIRECTION('',(0.,-1.,2.2E-16));
#262 = DIRECTION('',(0.,-2.2E-16,-1.));
#263 = ADVANCED_FACE('',(#264),#275,.T.);
#264 = FACE_BOUND('',#265,.F.);
#265 = EDGE_LOOP('',(#266,#272,#273,#274));
#266 = ORIENTED_EDGE('',*,*,#267,.T.);
#267 = EDGE_CURVE('',#63,#176,#268,.T.);
#268 = LINE('',#269,#270);
#269 = CARTESIAN_POINT('',(-25.,-3.22E-15,-14.5));
#270 = VECTOR('',#271,1.);
#271 = DIRECTION('',(0.,-1.,2.2E-16));
#272 = ORIENTED_EDGE('',*,*,#175,.T.);
#273 = ORIENTED_EDGE('',*,*,#31,.F.);
#274 = ORIENTED_EDGE('',*,*,#62,.F.);
#275 = CYLINDRICAL_SURFACE('',#276,5.);
#276 = AXIS2_PLACEMENT_3D('',#277,#278,#279);
#277 = CARTESIAN_POINT('',(-20.,-3.22E-15,-14.5));
#278 = DIRECTION('',(0.,1.,-2.2E-16));
#279 = DIRECTION('',(1.,0.,0.));
#280 = ADVANCED_FACE('',(#281),#292,.F.);
#281 = FACE_BOUND('',#282,.F.);
#282 = EDGE_LOOP('',(#283,#284,#290,#291));
#283 = ORIENTED_EDGE('',*,*,#186,.F.);
#284 = ORIENTED_EDGE('',*,*,#285,.T.);
#285 = EDGE_CURVE('',#187,#97,#286,.T.);
#286 = LINE('',#287,#288);
#287 = CARTESIAN_POINT('',(18.,-3.,14.5));
#288 = VECTOR('',#289,1.);
#289 = DIRECTION('',(0.,1.,-2.2E-16));
#290 = ORIENTED_EDGE('',*,*,#105,.F.);
#291 = ORIENTED_EDGE('',*,*,#161,.F.);
#292 = PLANE('',#293);
#293 = AXIS2_PLACEMENT_3D('',#294,#295,#296);
#294 = CARTESIAN_POINT('',(18.,-3.,14.5));
#295 = DIRECTION('',(-1.,0.,0.));
#296 = DIRECTION('',(-0.,-2.2E-16,-1.));
#297 = ADVANCED_FACE('',(#298),#309,.T.);
#298 = FACE_BOUND('',#299,.T.);
#299 = EDGE_LOOP('',(#300,#301,#302,#303));
#300 = ORIENTED_EDGE('',*,*,#194,.F.);
#301 = ORIENTED_EDGE('',*,*,#285,.T.);
#302 = ORIENTED_EDGE('',*,*,#96,.T.);
#303 = ORIENTED_EDGE('',*,*,#304,.F.);
#304 = EDGE_CURVE('',#195,#89,#305,.T.);
#305 = LINE('',#306,#307);
#306 = CARTESIAN_POINT('',(13.,-3.,19.5));
#307 = VECTOR('',#308,1.);
#308 = DIRECTION('',(0.,1.,-2.2E-16));
#309 = CYLINDRICAL_SURFACE('',#310,5.);
#310 = AXIS2_PLACEMENT_3D('',#311,#312,#313);
#311 = CARTESIAN_POINT('',(13.,-3.,14.5));
#312 = DIRECTION('',(0.,-1.,2.2E-16));
#313 = DIRECTION('',(1.,0.,0.));
#314 = ADVANCED_FACE('',(#315),#326,.F.);
#315 = FACE_BOUND('',#316,.F.);
#316 = EDGE_LOOP('',(#317,#318,#319,#320));
#317 = ORIENTED_EDGE('',*,*,#88,.F.);
#318 = ORIENTED_EDGE('',*,*,#304,.F.);
#319 = ORIENTED_EDGE('',*,*,#203,.T.);
#320 = ORIENTED_EDGE('',*,*,#321,.F.);
#321 = EDGE_CURVE('',#80,#204,#322,.T.);
#322 = LINE('',#323,#324);
#323 = CARTESIAN_POINT('',(-20.,4.33E-15,19.5));
#324 = VECTOR('',#325,1.);
#325 = DIRECTION('',(0.,-1.,2.2E-16));
#326 = PLANE('',#327);
#327 = AXIS2_PLACEMENT_3D('',#328,#329,#330);
#328 = CARTESIAN_POINT('',(20.,4.33E-15,19.5));
#329 = DIRECTION('',(-0.,-2.2E-16,-1.));
#330 = DIRECTION('',(-1.,0.,0.));
#331 = ADVANCED_FACE('',(#332),#343,.T.);
#332 = FACE_BOUND('',#333,.F.);
#333 = EDGE_LOOP('',(#334,#335,#336,#342));
#334 = ORIENTED_EDGE('',*,*,#321,.T.);
#335 = ORIENTED_EDGE('',*,*,#211,.T.);
#336 = ORIENTED_EDGE('',*,*,#337,.F.);
#337 = EDGE_CURVE('',#72,#212,#338,.T.);
#338 = LINE('',#339,#340);
#339 = CARTESIAN_POINT('',(-25.,3.22E-15,14.5));
#340 = VECTOR('',#341,1.);
#341 = DIRECTION('',(0.,-1.,2.2E-16));
#342 = ORIENTED_EDGE('',*,*,#79,.F.);
#343 = CYLINDRICAL_SURFACE('',#344,5.);
#344 = AXIS2_PLACEMENT_3D('',#345,#346,#347);
#345 = CARTESIAN_POINT('',(-20.,3.22E-15,14.5));
#346 = DIRECTION('',(0.,1.,-2.2E-16));
#347 = DIRECTION('',(1.,0.,0.));
#348 = ADVANCED_FACE('',(#349),#355,.F.);
#349 = FACE_BOUND('',#350,.F.);
#350 = EDGE_LOOP('',(#351,#352,#353,#354));
#351 = ORIENTED_EDGE('',*,*,#337,.T.);
#352 = ORIENTED_EDGE('',*,*,#220,.T.);
#353 = ORIENTED_EDGE('',*,*,#267,.F.);
#354 = ORIENTED_EDGE('',*,*,#71,.F.);
#355 = PLANE('',#356);
#356 = AXIS2_PLACEMENT_3D('',#357,#358,#359);
#357 = CARTESIAN_POINT('',(-25.,3.22E-15,14.5));
#358 = DIRECTION('',(1.,0.,0.));
#359 = DIRECTION('',(0.,-2.2E-16,-1.));
#360 = ADVANCED_FACE('',(#361),#372,.F.);
#361 = FACE_BOUND('',#362,.F.);
#362 = EDGE_LOOP('',(#363,#364,#370,#371));
#363 = ORIENTED_EDGE('',*,*,#239,.F.);
#364 = ORIENTED_EDGE('',*,*,#365,.T.);
#365 = EDGE_CURVE('',#240,#123,#366,.T.);
#366 = LINE('',#367,#368);
#367 = CARTESIAN_POINT('',(-14.85,-3.,-10.));
#368 = VECTOR('',#369,1.);
#369 = DIRECTION('',(0.,1.,-2.2E-16));
#370 = ORIENTED_EDGE('',*,*,#122,.T.);
#371 = ORIENTED_EDGE('',*,*,#365,.F.);
#372 = CYLINDRICAL_SURFACE('',#373,2.65);
#373 = AXIS2_PLACEMENT_3D('',#374,#375,#376);
#374 = CARTESIAN_POINT('',(-17.5,-3.,-10.));
#375 = DIRECTION('',(0.,-1.,2.2E-16));
#376 = DIRECTION('',(1.,0.,0.));
#377 = ADVANCED_FACE('',(#378),#389,.F.);
#378 = FACE_BOUND('',#379,.F.);
#379 = EDGE_LOOP('',(#380,#381,#387,#388));
#380 = ORIENTED_EDGE('',*,*,#228,.F.);
#381 = ORIENTED_EDGE('',*,*,#382,.T.);
#382 = EDGE_CURVE('',#229,#134,#383,.T.);
#383 = LINE('',#384,#385);
#384 = CARTESIAN_POINT('',(-14.85,-3.,10.));
#385 = VECTOR('',#386,1.);
#386 = DIRECTION('',(0.,1.,-2.2E-16));
#387 = ORIENTED_EDGE('',*,*,#133,.T.);
#388 = ORIENTED_EDGE('',*,*,#382,.F.);
#389 = CYLINDRICAL_SURFACE('',#390,2.65);
#390 = AXIS2_PLACEMENT_3D('',#391,#392,#393);
#391 = CARTESIAN_POINT('',(-17.5,-3.,10.));
#392 = DIRECTION('',(0.,-1.,2.2E-16));
#393 = DIRECTION('',(1.,0.,0.));
#394 = ADVANCED_FACE('',(#395),#413,.T.);
#395 = FACE_BOUND('',#396,.T.);
#396 = EDGE_LOOP('',(#397,#398,#405,#412));
#397 = ORIENTED_EDGE('',*,*,#250,.T.);
#398 = ORIENTED_EDGE('',*,*,#399,.T.);
#399 = EDGE_CURVE('',#251,#400,#402,.T.);
#400 = VERTEX_POINT('',#401);
#401 = CARTESIAN_POINT('',(8.236730192915,-13.,2.E-15));
#402 = B_SPLINE_CURVE_WITH_KNOTS('',1,(#403,#404),.UNSPECIFIED.,.F.,.F.,
  (2,2),(0.,1.),.PIECEWISE_BEZIER_KNOTS.);
#403 = CARTESIAN_POINT('',(10.,-3.,0.));
#404 = CARTESIAN_POINT('',(8.236730192915,-13.,2.22E-15));
#405 = ORIENTED_EDGE('',*,*,#406,.F.);
#406 = EDGE_CURVE('',#400,#400,#407,.T.);
#407 = CIRCLE('',#408,8.236730192915);
#408 = AXIS2_PLACEMENT_3D('',#409,#410,#411);
#409 = CARTESIAN_POINT('',(0.,-13.,2.E-15));
#410 = DIRECTION('',(0.,-1.,0.));
#411 = DIRECTION('',(1.,0.,0.));
#412 = ORIENTED_EDGE('',*,*,#399,.F.);
#413 = CONICAL_SURFACE('',#414,10.,0.174532925199);
#414 = AXIS2_PLACEMENT_3D('',#415,#416,#417);
#415 = CARTESIAN_POINT('',(0.,-3.,0.));
#416 = DIRECTION('',(0.,1.,-2.2E-16));
#417 = DIRECTION('',(1.,0.,0.));
#418 = ADVANCED_FACE('',(#419),#422,.T.);
#419 = FACE_BOUND('',#420,.T.);
#420 = EDGE_LOOP('',(#421));
#421 = ORIENTED_EDGE('',*,*,#406,.T.);
#422 = PLANE('',#423);
#423 = AXIS2_PLACEMENT_3D('',#424,#425,#426);
#424 = CARTESIAN_POINT('',(0.,-13.,2.22E-15));
#425 = DIRECTION('',(0.,-1.,2.2E-16));
#426 = DIRECTION('',(1.,0.,0.));
#427 = ( GEOMETRIC_REPRESENTATION_CONTEXT(3) 
GLOBAL_UNCERTAINTY_ASSIGNED_CONTEXT((#431)) GLOBAL_UNIT_ASSIGNED_CONTEXT
((#428,#429,#430)) REPRESENTATION_CONTEXT('Context #1',
  '3D Context with UNIT and UNCERTAINTY') );
#428 = ( LENGTH_UNIT() NAMED_UNIT(*) SI_UNIT(.MILLI.,.METRE.) );
#429 = ( NAMED_UNIT(*) PLANE_ANGLE_UNIT() SI_UNIT($,.RADIAN.) );
#430 = ( NAMED_UNIT(*) SI_UNIT($,.STERADIAN.) SOLID_ANGLE_UNIT() );
#431 = UNCERTAINTY_MEASURE_WITH_UNIT(LENGTH_MEASURE(5.E-06),#428,
  'distance_accuracy_value','confusion accuracy');
#432 = PRODUCT_RELATED_PRODUCT_CATEGORY('part',$,(#7));
#433 = MECHANICAL_DESIGN_GEOMETRIC_PRESENTATION_REPRESENTATION('',(#434)
  ,#427);
#434 = STYLED_ITEM('color',(#435),#15);
#435 = PRESENTATION_STYLE_ASSIGNMENT((#436,#442));
#436 = SURFACE_STYLE_USAGE(.BOTH.,#437);
#437 = SURFACE_SIDE_STYLE('',(#438));
#438 = SURFACE_STYLE_FILL_AREA(#439);
#439 = FILL_AREA_STYLE('',(#440));
#440 = FILL_AREA_STYLE_COLOUR('',#441);
#441 = COLOUR_RGB('',0.,0.666666687201,1.);
#442 = CURVE_STYLE('',#443,POSITIVE_LENGTH_MEASURE(0.1),#444);
#443 = DRAUGHTING_PRE_DEFINED_CURVE_FONT('continuous');
#444 = COLOUR_RGB('',9.803921802644E-02,9.803921802644E-02,
  9.803921802644E-02);
ENDSEC;
END-ISO-10303-21;
