ISO-10303-21;
HEADER;
FILE_DESCRIPTION(('FreeCAD Model'),'2;1');
FILE_NAME('Open CASCADE Shape Model','2026-08-30T13:46:25',('Author'),(
    ''),'Open CASCADE STEP processor 7.8','FreeCAD','Unknown');
FILE_SCHEMA(('AUTOMOTIVE_DESIGN { 1 0 10303 214 1 1 1 1 }'));
ENDSEC;
DATA;
#1 = APPLICATION_PROTOCOL_DEFINITION('international standard',
  'automotive_design',2000,#2);
#2 = APPLICATION_CONTEXT(
  'core data for automotive mechanical design processes');
#3 = SHAPE_DEFINITION_REPRESENTATION(#4,#10);
#4 = PRODUCT_DEFINITION_SHAPE('','',#5);
#5 = PRODUCT_DEFINITION('design','',#6,#9);
#6 = PRODUCT_DEFINITION_FORMATION('','',#7);
#7 = PRODUCT('Axle connector','Axle connector','',(#8));
#8 = PRODUCT_CONTEXT('',#2,'mechanical');
#9 = PRODUCT_DEFINITION_CONTEXT('part definition',#2,'design');
#10 = ADVANCED_BREP_SHAPE_REPRESENTATION('',(#11,#15),#1640);
#11 = AXIS2_PLACEMENT_3D('',#12,#13,#14);
#12 = CARTESIAN_POINT('',(0.,0.,0.));
#13 = DIRECTION('',(0.,0.,1.));
#14 = DIRECTION('',(1.,0.,-0.));
#15 = MANIFOLD_SOLID_BREP('',#16);
#16 = CLOSED_SHELL('',(#17,#57,#108,#139,#170,#203,#228,#253,#278,#303,
    #334,#359,#473,#498,#612,#665,#682,#699,#732,#749,#766,#790,#815,
    #839,#864,#888,#913,#938,#955,#972,#989,#1006,#1030,#1055,#1079,
    #1104,#1128,#1153,#1178,#1195,#1212,#1237,#1262,#1301,#1318,#1335,
    #1352,#1413,#1430,#1442,#1462,#1482,#1507,#1532,#1557,#1574,#1599,
    #1616,#1628));
#17 = ADVANCED_FACE('',(#18),#52,.F.);
#18 = FACE_BOUND('',#19,.F.);
#19 = EDGE_LOOP('',(#20,#30,#38,#46));
#20 = ORIENTED_EDGE('',*,*,#21,.T.);
#21 = EDGE_CURVE('',#22,#24,#26,.T.);
#22 = VERTEX_POINT('',#23);
#23 = CARTESIAN_POINT('',(-7.250462296293,-0.5,3.380946093926));
#24 = VERTEX_POINT('',#25);
#25 = CARTESIAN_POINT('',(-7.250462296293,-38.5,3.380946093926));
#26 = LINE('',#27,#28);
#27 = CARTESIAN_POINT('',(-7.250462296293,7.5E-16,3.380946093926));
#28 = VECTOR('',#29,1.);
#29 = DIRECTION('',(0.,-1.,2.2E-16));
#30 = ORIENTED_EDGE('',*,*,#31,.F.);
#31 = EDGE_CURVE('',#32,#24,#34,.T.);
#32 = VERTEX_POINT('',#33);
#33 = CARTESIAN_POINT('',(-11.87467477587,-38.5,-6.535709570444));
#34 = LINE('',#35,#36);
#35 = CARTESIAN_POINT('',(-11.87467477587,-38.5,-6.535709570444));
#36 = VECTOR('',#37,1.);
#37 = DIRECTION('',(0.422618261741,2.E-16,0.906307787037));
#38 = ORIENTED_EDGE('',*,*,#39,.F.);
#39 = EDGE_CURVE('',#40,#32,#42,.T.);
#40 = VERTEX_POINT('',#41);
#41 = CARTESIAN_POINT('',(-11.87467477587,-0.5,-6.535709570444));
#42 = LINE('',#43,#44);
#43 = CARTESIAN_POINT('',(-11.87467477587,-1.45E-15,-6.535709570444));
#44 = VECTOR('',#45,1.);
#45 = DIRECTION('',(0.,-1.,2.2E-16));
#46 = ORIENTED_EDGE('',*,*,#47,.T.);
#47 = EDGE_CURVE('',#40,#22,#48,.T.);
#48 = LINE('',#49,#50);
#49 = CARTESIAN_POINT('',(-11.87467477587,-0.5,-6.535709570444));
#50 = VECTOR('',#51,1.);
#51 = DIRECTION('',(0.422618261741,2.E-16,0.906307787037));
#52 = PLANE('',#53);
#53 = AXIS2_PLACEMENT_3D('',#54,#55,#56);
#54 = CARTESIAN_POINT('',(-7.250462296293,7.5E-16,3.380946093926));
#55 = DIRECTION('',(0.906307787037,-9.E-17,-0.422618261741));
#56 = DIRECTION('',(-0.422618261741,-2.E-16,-0.906307787037));
#57 = ADVANCED_FACE('',(#58),#103,.T.);
#58 = FACE_BOUND('',#59,.F.);
#59 = EDGE_LOOP('',(#60,#61,#70,#79,#87,#96));
#60 = ORIENTED_EDGE('',*,*,#21,.F.);
#61 = ORIENTED_EDGE('',*,*,#62,.T.);
#62 = EDGE_CURVE('',#22,#63,#65,.T.);
#63 = VERTEX_POINT('',#64);
#64 = CARTESIAN_POINT('',(0.,-0.5,8.));
#65 = CIRCLE('',#66,8.);
#66 = AXIS2_PLACEMENT_3D('',#67,#68,#69);
#67 = CARTESIAN_POINT('',(0.,-0.5,0.));
#68 = DIRECTION('',(0.,1.,-0.));
#69 = DIRECTION('',(-0.906307787037,0.,0.422618261741));
#70 = ORIENTED_EDGE('',*,*,#71,.T.);
#71 = EDGE_CURVE('',#63,#72,#74,.T.);
#72 = VERTEX_POINT('',#73);
#73 = CARTESIAN_POINT('',(7.250462296293,-0.5,3.380946093926));
#74 = CIRCLE('',#75,8.);
#75 = AXIS2_PLACEMENT_3D('',#76,#77,#78);
#76 = CARTESIAN_POINT('',(0.,-0.5,0.));
#77 = DIRECTION('',(-0.,1.,0.));
#78 = DIRECTION('',(6.E-17,0.,1.));
#79 = ORIENTED_EDGE('',*,*,#80,.T.);
#80 = EDGE_CURVE('',#72,#81,#83,.T.);
#81 = VERTEX_POINT('',#82);
#82 = CARTESIAN_POINT('',(7.250462296293,-38.5,3.380946093926));
#83 = LINE('',#84,#85);
#84 = CARTESIAN_POINT('',(7.250462296293,7.5E-16,3.380946093926));
#85 = VECTOR('',#86,1.);
#86 = DIRECTION('',(0.,-1.,2.2E-16));
#87 = ORIENTED_EDGE('',*,*,#88,.F.);
#88 = EDGE_CURVE('',#89,#81,#91,.T.);
#89 = VERTEX_POINT('',#90);
#90 = CARTESIAN_POINT('',(8.E-15,-38.5,8.));
#91 = CIRCLE('',#92,8.);
#92 = AXIS2_PLACEMENT_3D('',#93,#94,#95);
#93 = CARTESIAN_POINT('',(0.,-38.5,0.));
#94 = DIRECTION('',(-0.,1.,0.));
#95 = DIRECTION('',(6.E-17,0.,1.));
#96 = ORIENTED_EDGE('',*,*,#97,.F.);
#97 = EDGE_CURVE('',#24,#89,#98,.T.);
#98 = CIRCLE('',#99,8.);
#99 = AXIS2_PLACEMENT_3D('',#100,#101,#102);
#100 = CARTESIAN_POINT('',(0.,-38.5,0.));
#101 = DIRECTION('',(0.,1.,-0.));
#102 = DIRECTION('',(-0.906307787037,0.,0.422618261741));
#103 = CYLINDRICAL_SURFACE('',#104,8.);
#104 = AXIS2_PLACEMENT_3D('',#105,#106,#107);
#105 = CARTESIAN_POINT('',(0.,0.,4.E-16));
#106 = DIRECTION('',(0.,1.,-2.2E-16));
#107 = DIRECTION('',(1.,0.,0.));
#108 = ADVANCED_FACE('',(#109),#134,.F.);
#109 = FACE_BOUND('',#110,.F.);
#110 = EDGE_LOOP('',(#111,#119,#127,#133));
#111 = ORIENTED_EDGE('',*,*,#112,.F.);
#112 = EDGE_CURVE('',#113,#40,#115,.T.);
#113 = VERTEX_POINT('',#114);
#114 = CARTESIAN_POINT('',(-11.42152088235,-2.E-15,-6.747018701315));
#115 = LINE('',#116,#117);
#116 = CARTESIAN_POINT('',(-11.87467477587,-0.5,-6.535709570444));
#117 = VECTOR('',#118,1.);
#118 = DIRECTION('',(-0.640856382056,-0.707106781187,0.29883623873));
#119 = ORIENTED_EDGE('',*,*,#120,.T.);
#120 = EDGE_CURVE('',#113,#121,#123,.T.);
#121 = VERTEX_POINT('',#122);
#122 = CARTESIAN_POINT('',(-6.797308402775,-2.E-15,3.169636963055));
#123 = LINE('',#124,#125);
#124 = CARTESIAN_POINT('',(-11.42152088235,-2.3E-15,-6.747018701315));
#125 = VECTOR('',#126,1.);
#126 = DIRECTION('',(0.422618261741,2.E-16,0.906307787037));
#127 = ORIENTED_EDGE('',*,*,#128,.T.);
#128 = EDGE_CURVE('',#121,#22,#129,.T.);
#129 = LINE('',#130,#131);
#130 = CARTESIAN_POINT('',(-7.023885349534,-0.25,3.27529152849));
#131 = VECTOR('',#132,1.);
#132 = DIRECTION('',(-0.640856382056,-0.707106781187,0.29883623873));
#133 = ORIENTED_EDGE('',*,*,#47,.F.);
#134 = PLANE('',#135);
#135 = AXIS2_PLACEMENT_3D('',#136,#137,#138);
#136 = CARTESIAN_POINT('',(-11.64809782911,-0.25,-6.641364135879));
#137 = DIRECTION('',(0.640856382056,-0.707106781187,-0.29883623873));
#138 = DIRECTION('',(0.422618261741,1.110223024625E-16,0.906307787037));
#139 = ADVANCED_FACE('',(#140),#165,.T.);
#140 = FACE_BOUND('',#141,.T.);
#141 = EDGE_LOOP('',(#142,#150,#158,#164));
#142 = ORIENTED_EDGE('',*,*,#143,.F.);
#143 = EDGE_CURVE('',#144,#32,#146,.T.);
#144 = VERTEX_POINT('',#145);
#145 = CARTESIAN_POINT('',(-11.42152088235,-39.,-6.747018701315));
#146 = LINE('',#147,#148);
#147 = CARTESIAN_POINT('',(-11.87467477587,-38.5,-6.535709570444));
#148 = VECTOR('',#149,1.);
#149 = DIRECTION('',(-0.640856382056,0.707106781187,0.29883623873));
#150 = ORIENTED_EDGE('',*,*,#151,.T.);
#151 = EDGE_CURVE('',#144,#152,#154,.T.);
#152 = VERTEX_POINT('',#153);
#153 = CARTESIAN_POINT('',(-6.797308402775,-39.,3.169636963055));
#154 = LINE('',#155,#156);
#155 = CARTESIAN_POINT('',(-11.42152088235,-39.,-6.747018701315));
#156 = VECTOR('',#157,1.);
#157 = DIRECTION('',(0.422618261741,2.E-16,0.906307787037));
#158 = ORIENTED_EDGE('',*,*,#159,.T.);
#159 = EDGE_CURVE('',#152,#24,#160,.T.);
#160 = LINE('',#161,#162);
#161 = CARTESIAN_POINT('',(-7.023885349534,-38.75,3.27529152849));
#162 = VECTOR('',#163,1.);
#163 = DIRECTION('',(-0.640856382056,0.707106781187,0.29883623873));
#164 = ORIENTED_EDGE('',*,*,#31,.F.);
#165 = PLANE('',#166);
#166 = AXIS2_PLACEMENT_3D('',#167,#168,#169);
#167 = CARTESIAN_POINT('',(-11.64809782911,-38.75,-6.641364135879));
#168 = DIRECTION('',(-0.640856382056,-0.707106781187,0.29883623873));
#169 = DIRECTION('',(0.422618261741,1.942890293094E-16,0.906307787037));
#170 = ADVANCED_FACE('',(#171),#198,.F.);
#171 = FACE_BOUND('',#172,.T.);
#172 = EDGE_LOOP('',(#173,#183,#190,#191));
#173 = ORIENTED_EDGE('',*,*,#174,.T.);
#174 = EDGE_CURVE('',#175,#177,#179,.T.);
#175 = VERTEX_POINT('',#176);
#176 = CARTESIAN_POINT('',(-17.31252149809,-0.5,-10.));
#177 = VERTEX_POINT('',#178);
#178 = CARTESIAN_POINT('',(-17.31252149809,-38.5,-10.));
#179 = LINE('',#180,#181);
#180 = CARTESIAN_POINT('',(-17.31252149809,-2.22E-15,-10.));
#181 = VECTOR('',#182,1.);
#182 = DIRECTION('',(0.,-1.,2.2E-16));
#183 = ORIENTED_EDGE('',*,*,#184,.T.);
#184 = EDGE_CURVE('',#177,#32,#185,.T.);
#185 = CIRCLE('',#186,6.);
#186 = AXIS2_PLACEMENT_3D('',#187,#188,#189);
#187 = CARTESIAN_POINT('',(-17.31252149809,-38.5,-4.));
#188 = DIRECTION('',(0.,-1.,0.));
#189 = DIRECTION('',(0.,0.,-1.));
#190 = ORIENTED_EDGE('',*,*,#39,.F.);
#191 = ORIENTED_EDGE('',*,*,#192,.F.);
#192 = EDGE_CURVE('',#175,#40,#193,.T.);
#193 = CIRCLE('',#194,6.);
#194 = AXIS2_PLACEMENT_3D('',#195,#196,#197);
#195 = CARTESIAN_POINT('',(-17.31252149809,-0.5,-4.));
#196 = DIRECTION('',(0.,-1.,0.));
#197 = DIRECTION('',(0.,0.,-1.));
#198 = CYLINDRICAL_SURFACE('',#199,6.);
#199 = AXIS2_PLACEMENT_3D('',#200,#201,#202);
#200 = CARTESIAN_POINT('',(-17.31252149809,-8.9E-16,-4.));
#201 = DIRECTION('',(0.,1.,-2.2E-16));
#202 = DIRECTION('',(1.,0.,0.));
#203 = ADVANCED_FACE('',(#204),#223,.T.);
#204 = FACE_BOUND('',#205,.F.);
#205 = EDGE_LOOP('',(#206,#207,#216,#222));
#206 = ORIENTED_EDGE('',*,*,#128,.F.);
#207 = ORIENTED_EDGE('',*,*,#208,.T.);
#208 = EDGE_CURVE('',#121,#209,#211,.T.);
#209 = VERTEX_POINT('',#210);
#210 = CARTESIAN_POINT('',(0.,-2.E-15,7.5));
#211 = CIRCLE('',#212,7.5);
#212 = AXIS2_PLACEMENT_3D('',#213,#214,#215);
#213 = CARTESIAN_POINT('',(0.,-2.3E-15,0.));
#214 = DIRECTION('',(0.,1.,-0.));
#215 = DIRECTION('',(-0.906307787037,0.,0.422618261741));
#216 = ORIENTED_EDGE('',*,*,#217,.T.);
#217 = EDGE_CURVE('',#209,#63,#218,.T.);
#218 = LINE('',#219,#220);
#219 = CARTESIAN_POINT('',(4.4E-16,-0.5,8.));
#220 = VECTOR('',#221,1.);
#221 = DIRECTION('',(6.E-17,-0.707106781187,0.707106781187));
#222 = ORIENTED_EDGE('',*,*,#62,.F.);
#223 = CONICAL_SURFACE('',#224,8.,0.785398163397);
#224 = AXIS2_PLACEMENT_3D('',#225,#226,#227);
#225 = CARTESIAN_POINT('',(0.,-0.5,0.));
#226 = DIRECTION('',(-0.,-1.,-0.));
#227 = DIRECTION('',(-0.906307787037,0.,0.422618261741));
#228 = ADVANCED_FACE('',(#229),#248,.T.);
#229 = FACE_BOUND('',#230,.T.);
#230 = EDGE_LOOP('',(#231,#232,#241,#247));
#231 = ORIENTED_EDGE('',*,*,#159,.F.);
#232 = ORIENTED_EDGE('',*,*,#233,.T.);
#233 = EDGE_CURVE('',#152,#234,#236,.T.);
#234 = VERTEX_POINT('',#235);
#235 = CARTESIAN_POINT('',(8.E-15,-39.,7.5));
#236 = CIRCLE('',#237,7.5);
#237 = AXIS2_PLACEMENT_3D('',#238,#239,#240);
#238 = CARTESIAN_POINT('',(0.,-39.,0.));
#239 = DIRECTION('',(0.,1.,-0.));
#240 = DIRECTION('',(-0.906307787037,0.,0.422618261741));
#241 = ORIENTED_EDGE('',*,*,#242,.T.);
#242 = EDGE_CURVE('',#234,#89,#243,.T.);
#243 = LINE('',#244,#245);
#244 = CARTESIAN_POINT('',(8.44E-15,-38.5,8.));
#245 = VECTOR('',#246,1.);
#246 = DIRECTION('',(7.8E-16,0.707106781187,0.707106781187));
#247 = ORIENTED_EDGE('',*,*,#97,.F.);
#248 = CONICAL_SURFACE('',#249,8.,0.785398163397);
#249 = AXIS2_PLACEMENT_3D('',#250,#251,#252);
#250 = CARTESIAN_POINT('',(0.,-38.5,0.));
#251 = DIRECTION('',(0.,1.,0.));
#252 = DIRECTION('',(-0.906307787037,0.,0.422618261741));
#253 = ADVANCED_FACE('',(#254),#273,.T.);
#254 = FACE_BOUND('',#255,.F.);
#255 = EDGE_LOOP('',(#256,#257,#266,#272));
#256 = ORIENTED_EDGE('',*,*,#217,.F.);
#257 = ORIENTED_EDGE('',*,*,#258,.T.);
#258 = EDGE_CURVE('',#209,#259,#261,.T.);
#259 = VERTEX_POINT('',#260);
#260 = CARTESIAN_POINT('',(6.797308402775,-2.E-15,3.169636963055));
#261 = CIRCLE('',#262,7.5);
#262 = AXIS2_PLACEMENT_3D('',#263,#264,#265);
#263 = CARTESIAN_POINT('',(0.,-2.3E-15,0.));
#264 = DIRECTION('',(-0.,1.,0.));
#265 = DIRECTION('',(6.E-17,0.,1.));
#266 = ORIENTED_EDGE('',*,*,#267,.T.);
#267 = EDGE_CURVE('',#259,#72,#268,.T.);
#268 = LINE('',#269,#270);
#269 = CARTESIAN_POINT('',(7.250462296293,-0.5,3.380946093926));
#270 = VECTOR('',#271,1.);
#271 = DIRECTION('',(0.640856382056,-0.707106781187,0.29883623873));
#272 = ORIENTED_EDGE('',*,*,#71,.F.);
#273 = CONICAL_SURFACE('',#274,8.,0.785398163397);
#274 = AXIS2_PLACEMENT_3D('',#275,#276,#277);
#275 = CARTESIAN_POINT('',(0.,-0.5,0.));
#276 = DIRECTION('',(-0.,-1.,-0.));
#277 = DIRECTION('',(6.E-17,-0.,1.));
#278 = ADVANCED_FACE('',(#279),#298,.T.);
#279 = FACE_BOUND('',#280,.T.);
#280 = EDGE_LOOP('',(#281,#282,#291,#297));
#281 = ORIENTED_EDGE('',*,*,#242,.F.);
#282 = ORIENTED_EDGE('',*,*,#283,.T.);
#283 = EDGE_CURVE('',#234,#284,#286,.T.);
#284 = VERTEX_POINT('',#285);
#285 = CARTESIAN_POINT('',(6.797308402775,-39.,3.169636963055));
#286 = CIRCLE('',#287,7.5);
#287 = AXIS2_PLACEMENT_3D('',#288,#289,#290);
#288 = CARTESIAN_POINT('',(0.,-39.,0.));
#289 = DIRECTION('',(-0.,1.,0.));
#290 = DIRECTION('',(6.E-17,0.,1.));
#291 = ORIENTED_EDGE('',*,*,#292,.T.);
#292 = EDGE_CURVE('',#284,#81,#293,.T.);
#293 = LINE('',#294,#295);
#294 = CARTESIAN_POINT('',(7.250462296293,-38.5,3.380946093926));
#295 = VECTOR('',#296,1.);
#296 = DIRECTION('',(0.640856382056,0.707106781187,0.29883623873));
#297 = ORIENTED_EDGE('',*,*,#88,.F.);
#298 = CONICAL_SURFACE('',#299,8.,0.785398163397);
#299 = AXIS2_PLACEMENT_3D('',#300,#301,#302);
#300 = CARTESIAN_POINT('',(0.,-38.5,0.));
#301 = DIRECTION('',(0.,1.,0.));
#302 = DIRECTION('',(6.E-17,-0.,1.));
#303 = ADVANCED_FACE('',(#304),#329,.T.);
#304 = FACE_BOUND('',#305,.T.);
#305 = EDGE_LOOP('',(#306,#307,#315,#323));
#306 = ORIENTED_EDGE('',*,*,#80,.T.);
#307 = ORIENTED_EDGE('',*,*,#308,.T.);
#308 = EDGE_CURVE('',#81,#309,#311,.T.);
#309 = VERTEX_POINT('',#310);
#310 = CARTESIAN_POINT('',(11.874674775875,-38.5,-6.535709570444));
#311 = LINE('',#312,#313);
#312 = CARTESIAN_POINT('',(7.250462296293,-38.5,3.380946093926));
#313 = VECTOR('',#314,1.);
#314 = DIRECTION('',(0.422618261741,-2.E-16,-0.906307787037));
#315 = ORIENTED_EDGE('',*,*,#316,.F.);
#316 = EDGE_CURVE('',#317,#309,#319,.T.);
#317 = VERTEX_POINT('',#318);
#318 = CARTESIAN_POINT('',(11.874674775875,-0.5,-6.535709570444));
#319 = LINE('',#320,#321);
#320 = CARTESIAN_POINT('',(11.874674775875,-1.45E-15,-6.535709570444));
#321 = VECTOR('',#322,1.);
#322 = DIRECTION('',(0.,-1.,2.2E-16));
#323 = ORIENTED_EDGE('',*,*,#324,.F.);
#324 = EDGE_CURVE('',#72,#317,#325,.T.);
#325 = LINE('',#326,#327);
#326 = CARTESIAN_POINT('',(7.250462296293,-0.5,3.380946093926));
#327 = VECTOR('',#328,1.);
#328 = DIRECTION('',(0.422618261741,-2.E-16,-0.906307787037));
#329 = PLANE('',#330);
#330 = AXIS2_PLACEMENT_3D('',#331,#332,#333);
#331 = CARTESIAN_POINT('',(7.250462296293,7.5E-16,3.380946093926));
#332 = DIRECTION('',(0.906307787037,9.E-17,0.422618261741));
#333 = DIRECTION('',(0.422618261741,-2.E-16,-0.906307787037));
#334 = ADVANCED_FACE('',(#335),#354,.F.);
#335 = FACE_BOUND('',#336,.F.);
#336 = EDGE_LOOP('',(#337,#345,#352,#353));
#337 = ORIENTED_EDGE('',*,*,#338,.F.);
#338 = EDGE_CURVE('',#339,#175,#341,.T.);
#339 = VERTEX_POINT('',#340);
#340 = CARTESIAN_POINT('',(-17.31252149809,-3.E-15,-10.5));
#341 = LINE('',#342,#343);
#342 = CARTESIAN_POINT('',(-17.31252149809,-0.25,-10.25));
#343 = VECTOR('',#344,1.);
#344 = DIRECTION('',(0.,-0.707106781187,0.707106781187));
#345 = ORIENTED_EDGE('',*,*,#346,.T.);
#346 = EDGE_CURVE('',#339,#113,#347,.T.);
#347 = CIRCLE('',#348,6.5);
#348 = AXIS2_PLACEMENT_3D('',#349,#350,#351);
#349 = CARTESIAN_POINT('',(-17.31252149809,-2.3E-15,-4.));
#350 = DIRECTION('',(0.,-1.,0.));
#351 = DIRECTION('',(0.,0.,-1.));
#352 = ORIENTED_EDGE('',*,*,#112,.T.);
#353 = ORIENTED_EDGE('',*,*,#192,.F.);
#354 = CONICAL_SURFACE('',#355,6.,0.785398163397);
#355 = AXIS2_PLACEMENT_3D('',#356,#357,#358);
#356 = CARTESIAN_POINT('',(-17.31252149809,-0.5,-4.));
#357 = DIRECTION('',(0.,1.,0.));
#358 = DIRECTION('',(0.,0.,-1.));
#359 = ADVANCED_FACE('',(#360,#457),#468,.T.);
#360 = FACE_BOUND('',#361,.T.);
#361 = EDGE_LOOP('',(#362,#373,#381,#390,#398,#407,#415,#424,#432,#441,
    #447,#448,#449,#450,#451));
#362 = ORIENTED_EDGE('',*,*,#363,.T.);
#363 = EDGE_CURVE('',#364,#366,#368,.T.);
#364 = VERTEX_POINT('',#365);
#365 = CARTESIAN_POINT('',(11.421520882357,-2.E-15,-6.747018701315));
#366 = VERTEX_POINT('',#367);
#367 = CARTESIAN_POINT('',(17.312521498095,-2.E-15,-10.5));
#368 = CIRCLE('',#369,6.5);
#369 = AXIS2_PLACEMENT_3D('',#370,#371,#372);
#370 = CARTESIAN_POINT('',(17.312521498095,-2.3E-15,-4.));
#371 = DIRECTION('',(0.,-1.,-0.));
#372 = DIRECTION('',(-0.906307787037,0.,-0.422618261741));
#373 = ORIENTED_EDGE('',*,*,#374,.T.);
#374 = EDGE_CURVE('',#366,#375,#377,.T.);
#375 = VERTEX_POINT('',#376);
#376 = CARTESIAN_POINT('',(32.5,-3.E-15,-10.5));
#377 = LINE('',#378,#379);
#378 = CARTESIAN_POINT('',(17.312521498095,-2.3E-15,-10.5));
#379 = VECTOR('',#380,1.);
#380 = DIRECTION('',(1.,0.,0.));
#381 = ORIENTED_EDGE('',*,*,#382,.T.);
#382 = EDGE_CURVE('',#375,#383,#385,.T.);
#383 = VERTEX_POINT('',#384);
#384 = CARTESIAN_POINT('',(34.5,-2.E-15,-12.5));
#385 = CIRCLE('',#386,2.);
#386 = AXIS2_PLACEMENT_3D('',#387,#388,#389);
#387 = CARTESIAN_POINT('',(32.5,-2.3E-15,-12.5));
#388 = DIRECTION('',(0.,1.,0.));
#389 = DIRECTION('',(0.,-0.,1.));
#390 = ORIENTED_EDGE('',*,*,#391,.T.);
#391 = EDGE_CURVE('',#383,#392,#394,.T.);
#392 = VERTEX_POINT('',#393);
#393 = CARTESIAN_POINT('',(34.5,-1.E-15,-17.5));
#394 = LINE('',#395,#396);
#395 = CARTESIAN_POINT('',(34.5,-2.3E-15,-12.5));
#396 = VECTOR('',#397,1.);
#397 = DIRECTION('',(0.,-2.2E-16,-1.));
#398 = ORIENTED_EDGE('',*,*,#399,.T.);
#399 = EDGE_CURVE('',#392,#400,#402,.T.);
#400 = VERTEX_POINT('',#401);
#401 = CARTESIAN_POINT('',(32.5,-2.E-15,-19.5));
#402 = CIRCLE('',#403,2.);
#403 = AXIS2_PLACEMENT_3D('',#404,#405,#406);
#404 = CARTESIAN_POINT('',(32.5,-2.3E-15,-17.5));
#405 = DIRECTION('',(-0.,1.,0.));
#406 = DIRECTION('',(1.,0.,0.));
#407 = ORIENTED_EDGE('',*,*,#408,.T.);
#408 = EDGE_CURVE('',#400,#409,#411,.T.);
#409 = VERTEX_POINT('',#410);
#410 = CARTESIAN_POINT('',(-32.5,-3.E-15,-19.5));
#411 = LINE('',#412,#413);
#412 = CARTESIAN_POINT('',(32.5,-2.93E-15,-19.5));
#413 = VECTOR('',#414,1.);
#414 = DIRECTION('',(-1.,0.,0.));
#415 = ORIENTED_EDGE('',*,*,#416,.T.);
#416 = EDGE_CURVE('',#409,#417,#419,.T.);
#417 = VERTEX_POINT('',#418);
#418 = CARTESIAN_POINT('',(-34.5,-2.E-15,-17.5));
#419 = CIRCLE('',#420,2.);
#420 = AXIS2_PLACEMENT_3D('',#421,#422,#423);
#421 = CARTESIAN_POINT('',(-32.5,-2.3E-15,-17.5));
#422 = DIRECTION('',(0.,1.,0.));
#423 = DIRECTION('',(0.,0.,-1.));
#424 = ORIENTED_EDGE('',*,*,#425,.T.);
#425 = EDGE_CURVE('',#417,#426,#428,.T.);
#426 = VERTEX_POINT('',#427);
#427 = CARTESIAN_POINT('',(-34.5,0.,-12.5));
#428 = LINE('',#429,#430);
#429 = CARTESIAN_POINT('',(-34.5,-2.3E-15,-17.5));
#430 = VECTOR('',#431,1.);
#431 = DIRECTION('',(0.,2.2E-16,1.));
#432 = ORIENTED_EDGE('',*,*,#433,.T.);
#433 = EDGE_CURVE('',#426,#434,#436,.T.);
#434 = VERTEX_POINT('',#435);
#435 = CARTESIAN_POINT('',(-32.5,-2.E-15,-10.5));
#436 = CIRCLE('',#437,2.);
#437 = AXIS2_PLACEMENT_3D('',#438,#439,#440);
#438 = CARTESIAN_POINT('',(-32.5,-2.3E-15,-12.5));
#439 = DIRECTION('',(0.,1.,-0.));
#440 = DIRECTION('',(-1.,0.,0.));
#441 = ORIENTED_EDGE('',*,*,#442,.T.);
#442 = EDGE_CURVE('',#434,#339,#443,.T.);
#443 = LINE('',#444,#445);
#444 = CARTESIAN_POINT('',(-32.5,-2.3E-15,-10.5));
#445 = VECTOR('',#446,1.);
#446 = DIRECTION('',(1.,0.,0.));
#447 = ORIENTED_EDGE('',*,*,#346,.T.);
#448 = ORIENTED_EDGE('',*,*,#120,.T.);
#449 = ORIENTED_EDGE('',*,*,#208,.T.);
#450 = ORIENTED_EDGE('',*,*,#258,.T.);
#451 = ORIENTED_EDGE('',*,*,#452,.T.);
#452 = EDGE_CURVE('',#259,#364,#453,.T.);
#453 = LINE('',#454,#455);
#454 = CARTESIAN_POINT('',(6.797308402775,-2.3E-15,3.169636963055));
#455 = VECTOR('',#456,1.);
#456 = DIRECTION('',(0.422618261741,-2.E-16,-0.906307787037));
#457 = FACE_BOUND('',#458,.T.);
#458 = EDGE_LOOP('',(#459));
#459 = ORIENTED_EDGE('',*,*,#460,.T.);
#460 = EDGE_CURVE('',#461,#461,#463,.T.);
#461 = VERTEX_POINT('',#462);
#462 = CARTESIAN_POINT('',(4.,0.,0.));
#463 = CIRCLE('',#464,4.);
#464 = AXIS2_PLACEMENT_3D('',#465,#466,#467);
#465 = CARTESIAN_POINT('',(0.,0.,0.));
#466 = DIRECTION('',(0.,-1.,0.));
#467 = DIRECTION('',(1.,0.,0.));
#468 = PLANE('',#469);
#469 = AXIS2_PLACEMENT_3D('',#470,#471,#472);
#470 = CARTESIAN_POINT('',(5.1E-16,-2.3E-15,-10.37921466975));
#471 = DIRECTION('',(0.,1.,0.));
#472 = DIRECTION('',(0.,0.,1.));
#473 = ADVANCED_FACE('',(#474),#493,.F.);
#474 = FACE_BOUND('',#475,.T.);
#475 = EDGE_LOOP('',(#476,#484,#491,#492));
#476 = ORIENTED_EDGE('',*,*,#477,.F.);
#477 = EDGE_CURVE('',#478,#177,#480,.T.);
#478 = VERTEX_POINT('',#479);
#479 = CARTESIAN_POINT('',(-17.31252149809,-39.,-10.5));
#480 = LINE('',#481,#482);
#481 = CARTESIAN_POINT('',(-17.31252149809,-38.75,-10.25));
#482 = VECTOR('',#483,1.);
#483 = DIRECTION('',(0.,0.707106781187,0.707106781187));
#484 = ORIENTED_EDGE('',*,*,#485,.T.);
#485 = EDGE_CURVE('',#478,#144,#486,.T.);
#486 = CIRCLE('',#487,6.5);
#487 = AXIS2_PLACEMENT_3D('',#488,#489,#490);
#488 = CARTESIAN_POINT('',(-17.31252149809,-39.,-4.));
#489 = DIRECTION('',(0.,-1.,0.));
#490 = DIRECTION('',(0.,0.,-1.));
#491 = ORIENTED_EDGE('',*,*,#143,.T.);
#492 = ORIENTED_EDGE('',*,*,#184,.F.);
#493 = CONICAL_SURFACE('',#494,6.,0.785398163397);
#494 = AXIS2_PLACEMENT_3D('',#495,#496,#497);
#495 = CARTESIAN_POINT('',(-17.31252149809,-38.5,-4.));
#496 = DIRECTION('',(-0.,-1.,-0.));
#497 = DIRECTION('',(0.,0.,-1.));
#498 = ADVANCED_FACE('',(#499,#596),#607,.F.);
#499 = FACE_BOUND('',#500,.F.);
#500 = EDGE_LOOP('',(#501,#512,#520,#529,#537,#546,#554,#563,#571,#580,
    #586,#587,#588,#589,#590));
#501 = ORIENTED_EDGE('',*,*,#502,.T.);
#502 = EDGE_CURVE('',#503,#505,#507,.T.);
#503 = VERTEX_POINT('',#504);
#504 = CARTESIAN_POINT('',(11.421520882357,-39.,-6.747018701315));
#505 = VERTEX_POINT('',#506);
#506 = CARTESIAN_POINT('',(17.312521498095,-39.,-10.5));
#507 = CIRCLE('',#508,6.5);
#508 = AXIS2_PLACEMENT_3D('',#509,#510,#511);
#509 = CARTESIAN_POINT('',(17.312521498095,-39.,-4.));
#510 = DIRECTION('',(0.,-1.,-0.));
#511 = DIRECTION('',(-0.906307787037,0.,-0.422618261741));
#512 = ORIENTED_EDGE('',*,*,#513,.T.);
#513 = EDGE_CURVE('',#505,#514,#516,.T.);
#514 = VERTEX_POINT('',#515);
#515 = CARTESIAN_POINT('',(32.5,-39.,-10.5));
#516 = LINE('',#517,#518);
#517 = CARTESIAN_POINT('',(17.312521498095,-39.,-10.5));
#518 = VECTOR('',#519,1.);
#519 = DIRECTION('',(1.,0.,0.));
#520 = ORIENTED_EDGE('',*,*,#521,.T.);
#521 = EDGE_CURVE('',#514,#522,#524,.T.);
#522 = VERTEX_POINT('',#523);
#523 = CARTESIAN_POINT('',(34.5,-39.,-12.5));
#524 = CIRCLE('',#525,2.);
#525 = AXIS2_PLACEMENT_3D('',#526,#527,#528);
#526 = CARTESIAN_POINT('',(32.5,-39.,-12.5));
#527 = DIRECTION('',(0.,1.,0.));
#528 = DIRECTION('',(0.,-0.,1.));
#529 = ORIENTED_EDGE('',*,*,#530,.T.);
#530 = EDGE_CURVE('',#522,#531,#533,.T.);
#531 = VERTEX_POINT('',#532);
#532 = CARTESIAN_POINT('',(34.5,-39.,-17.5));
#533 = LINE('',#534,#535);
#534 = CARTESIAN_POINT('',(34.5,-39.,-12.5));
#535 = VECTOR('',#536,1.);
#536 = DIRECTION('',(0.,-2.2E-16,-1.));
#537 = ORIENTED_EDGE('',*,*,#538,.T.);
#538 = EDGE_CURVE('',#531,#539,#541,.T.);
#539 = VERTEX_POINT('',#540);
#540 = CARTESIAN_POINT('',(32.5,-39.,-19.5));
#541 = CIRCLE('',#542,2.);
#542 = AXIS2_PLACEMENT_3D('',#543,#544,#545);
#543 = CARTESIAN_POINT('',(32.5,-39.,-17.5));
#544 = DIRECTION('',(-0.,1.,0.));
#545 = DIRECTION('',(1.,0.,2.84E-15));
#546 = ORIENTED_EDGE('',*,*,#547,.T.);
#547 = EDGE_CURVE('',#539,#548,#550,.T.);
#548 = VERTEX_POINT('',#549);
#549 = CARTESIAN_POINT('',(-32.5,-39.,-19.5));
#550 = LINE('',#551,#552);
#551 = CARTESIAN_POINT('',(32.5,-39.,-19.5));
#552 = VECTOR('',#553,1.);
#553 = DIRECTION('',(-1.,-0.,-0.));
#554 = ORIENTED_EDGE('',*,*,#555,.T.);
#555 = EDGE_CURVE('',#548,#556,#558,.T.);
#556 = VERTEX_POINT('',#557);
#557 = CARTESIAN_POINT('',(-34.5,-39.,-17.5));
#558 = CIRCLE('',#559,2.);
#559 = AXIS2_PLACEMENT_3D('',#560,#561,#562);
#560 = CARTESIAN_POINT('',(-32.5,-39.,-17.5));
#561 = DIRECTION('',(0.,1.,0.));
#562 = DIRECTION('',(0.,0.,-1.));
#563 = ORIENTED_EDGE('',*,*,#564,.T.);
#564 = EDGE_CURVE('',#556,#565,#567,.T.);
#565 = VERTEX_POINT('',#566);
#566 = CARTESIAN_POINT('',(-34.5,-39.,-12.5));
#567 = LINE('',#568,#569);
#568 = CARTESIAN_POINT('',(-34.5,-39.,-17.5));
#569 = VECTOR('',#570,1.);
#570 = DIRECTION('',(0.,2.2E-16,1.));
#571 = ORIENTED_EDGE('',*,*,#572,.T.);
#572 = EDGE_CURVE('',#565,#573,#575,.T.);
#573 = VERTEX_POINT('',#574);
#574 = CARTESIAN_POINT('',(-32.5,-39.,-10.5));
#575 = CIRCLE('',#576,2.);
#576 = AXIS2_PLACEMENT_3D('',#577,#578,#579);
#577 = CARTESIAN_POINT('',(-32.5,-39.,-12.5));
#578 = DIRECTION('',(0.,1.,-0.));
#579 = DIRECTION('',(-1.,0.,3.55E-15));
#580 = ORIENTED_EDGE('',*,*,#581,.T.);
#581 = EDGE_CURVE('',#573,#478,#582,.T.);
#582 = LINE('',#583,#584);
#583 = CARTESIAN_POINT('',(-32.5,-39.,-10.5));
#584 = VECTOR('',#585,1.);
#585 = DIRECTION('',(1.,0.,0.));
#586 = ORIENTED_EDGE('',*,*,#485,.T.);
#587 = ORIENTED_EDGE('',*,*,#151,.T.);
#588 = ORIENTED_EDGE('',*,*,#233,.T.);
#589 = ORIENTED_EDGE('',*,*,#283,.T.);
#590 = ORIENTED_EDGE('',*,*,#591,.T.);
#591 = EDGE_CURVE('',#284,#503,#592,.T.);
#592 = LINE('',#593,#594);
#593 = CARTESIAN_POINT('',(6.797308402775,-39.,3.169636963055));
#594 = VECTOR('',#595,1.);
#595 = DIRECTION('',(0.422618261741,-2.E-16,-0.906307787037));
#596 = FACE_BOUND('',#597,.F.);
#597 = EDGE_LOOP('',(#598));
#598 = ORIENTED_EDGE('',*,*,#599,.T.);
#599 = EDGE_CURVE('',#600,#600,#602,.T.);
#600 = VERTEX_POINT('',#601);
#601 = CARTESIAN_POINT('',(4.,-39.,9.E-15));
#602 = CIRCLE('',#603,4.);
#603 = AXIS2_PLACEMENT_3D('',#604,#605,#606);
#604 = CARTESIAN_POINT('',(0.,-39.,9.E-15));
#605 = DIRECTION('',(0.,-1.,0.));
#606 = DIRECTION('',(1.,0.,0.));
#607 = PLANE('',#608);
#608 = AXIS2_PLACEMENT_3D('',#609,#610,#611);
#609 = CARTESIAN_POINT('',(5.1E-16,-39.,-10.37921466975));
#610 = DIRECTION('',(0.,1.,0.));
#611 = DIRECTION('',(0.,0.,1.));
#612 = ADVANCED_FACE('',(#613,#638,#649),#660,.F.);
#613 = FACE_BOUND('',#614,.F.);
#614 = EDGE_LOOP('',(#615,#616,#624,#632));
#615 = ORIENTED_EDGE('',*,*,#174,.T.);
#616 = ORIENTED_EDGE('',*,*,#617,.F.);
#617 = EDGE_CURVE('',#618,#177,#620,.T.);
#618 = VERTEX_POINT('',#619);
#619 = CARTESIAN_POINT('',(-32.5,-38.5,-10.));
#620 = LINE('',#621,#622);
#621 = CARTESIAN_POINT('',(-32.5,-38.5,-10.));
#622 = VECTOR('',#623,1.);
#623 = DIRECTION('',(1.,0.,0.));
#624 = ORIENTED_EDGE('',*,*,#625,.F.);
#625 = EDGE_CURVE('',#626,#618,#628,.T.);
#626 = VERTEX_POINT('',#627);
#627 = CARTESIAN_POINT('',(-32.5,-0.5,-10.));
#628 = LINE('',#629,#630);
#629 = CARTESIAN_POINT('',(-32.5,-2.22E-15,-10.));
#630 = VECTOR('',#631,1.);
#631 = DIRECTION('',(0.,-1.,2.2E-16));
#632 = ORIENTED_EDGE('',*,*,#633,.T.);
#633 = EDGE_CURVE('',#626,#175,#634,.T.);
#634 = LINE('',#635,#636);
#635 = CARTESIAN_POINT('',(-32.5,-0.5,-10.));
#636 = VECTOR('',#637,1.);
#637 = DIRECTION('',(1.,0.,0.));
#638 = FACE_BOUND('',#639,.F.);
#639 = EDGE_LOOP('',(#640));
#640 = ORIENTED_EDGE('',*,*,#641,.T.);
#641 = EDGE_CURVE('',#642,#642,#644,.T.);
#642 = VERTEX_POINT('',#643);
#643 = CARTESIAN_POINT('',(-20.60626074904,-29.5,-10.));
#644 = CIRCLE('',#645,4.3);
#645 = AXIS2_PLACEMENT_3D('',#646,#647,#648);
#646 = CARTESIAN_POINT('',(-24.90626074904,-29.5,-10.));
#647 = DIRECTION('',(0.,0.,1.));
#648 = DIRECTION('',(1.,0.,0.));
#649 = FACE_BOUND('',#650,.F.);
#650 = EDGE_LOOP('',(#651));
#651 = ORIENTED_EDGE('',*,*,#652,.T.);
#652 = EDGE_CURVE('',#653,#653,#655,.T.);
#653 = VERTEX_POINT('',#654);
#654 = CARTESIAN_POINT('',(-20.60626074904,-9.5,-10.));
#655 = CIRCLE('',#656,4.3);
#656 = AXIS2_PLACEMENT_3D('',#657,#658,#659);
#657 = CARTESIAN_POINT('',(-24.90626074904,-9.5,-10.));
#658 = DIRECTION('',(0.,0.,1.));
#659 = DIRECTION('',(1.,0.,0.));
#660 = PLANE('',#661);
#661 = AXIS2_PLACEMENT_3D('',#662,#663,#664);
#662 = CARTESIAN_POINT('',(-17.31252149809,-2.22E-15,-10.));
#663 = DIRECTION('',(-0.,-2.2E-16,-1.));
#664 = DIRECTION('',(-1.,0.,0.));
#665 = ADVANCED_FACE('',(#666),#677,.T.);
#666 = FACE_BOUND('',#667,.F.);
#667 = EDGE_LOOP('',(#668,#669,#670,#676));
#668 = ORIENTED_EDGE('',*,*,#267,.F.);
#669 = ORIENTED_EDGE('',*,*,#452,.T.);
#670 = ORIENTED_EDGE('',*,*,#671,.T.);
#671 = EDGE_CURVE('',#364,#317,#672,.T.);
#672 = LINE('',#673,#674);
#673 = CARTESIAN_POINT('',(11.874674775875,-0.5,-6.535709570444));
#674 = VECTOR('',#675,1.);
#675 = DIRECTION('',(0.640856382056,-0.707106781187,0.29883623873));
#676 = ORIENTED_EDGE('',*,*,#324,.F.);
#677 = PLANE('',#678);
#678 = AXIS2_PLACEMENT_3D('',#679,#680,#681);
#679 = CARTESIAN_POINT('',(7.023885349534,-0.25,3.27529152849));
#680 = DIRECTION('',(0.640856382056,0.707106781187,0.29883623873));
#681 = DIRECTION('',(-0.422618261741,1.387778780781E-16,0.906307787037)
  );
#682 = ADVANCED_FACE('',(#683),#694,.F.);
#683 = FACE_BOUND('',#684,.T.);
#684 = EDGE_LOOP('',(#685,#686,#687,#693));
#685 = ORIENTED_EDGE('',*,*,#292,.F.);
#686 = ORIENTED_EDGE('',*,*,#591,.T.);
#687 = ORIENTED_EDGE('',*,*,#688,.T.);
#688 = EDGE_CURVE('',#503,#309,#689,.T.);
#689 = LINE('',#690,#691);
#690 = CARTESIAN_POINT('',(11.874674775875,-38.5,-6.535709570444));
#691 = VECTOR('',#692,1.);
#692 = DIRECTION('',(0.640856382056,0.707106781187,0.29883623873));
#693 = ORIENTED_EDGE('',*,*,#308,.F.);
#694 = PLANE('',#695);
#695 = AXIS2_PLACEMENT_3D('',#696,#697,#698);
#696 = CARTESIAN_POINT('',(7.023885349534,-38.75,3.27529152849));
#697 = DIRECTION('',(-0.640856382056,0.707106781187,-0.29883623873));
#698 = DIRECTION('',(-0.422618261741,1.665334536938E-16,0.906307787037)
  );
#699 = ADVANCED_FACE('',(#700),#727,.F.);
#700 = FACE_BOUND('',#701,.T.);
#701 = EDGE_LOOP('',(#702,#703,#712,#720));
#702 = ORIENTED_EDGE('',*,*,#316,.T.);
#703 = ORIENTED_EDGE('',*,*,#704,.T.);
#704 = EDGE_CURVE('',#309,#705,#707,.T.);
#705 = VERTEX_POINT('',#706);
#706 = CARTESIAN_POINT('',(17.312521498095,-38.5,-10.));
#707 = CIRCLE('',#708,6.);
#708 = AXIS2_PLACEMENT_3D('',#709,#710,#711);
#709 = CARTESIAN_POINT('',(17.312521498095,-38.5,-4.));
#710 = DIRECTION('',(0.,-1.,-0.));
#711 = DIRECTION('',(-0.906307787037,0.,-0.422618261741));
#712 = ORIENTED_EDGE('',*,*,#713,.F.);
#713 = EDGE_CURVE('',#714,#705,#716,.T.);
#714 = VERTEX_POINT('',#715);
#715 = CARTESIAN_POINT('',(17.312521498095,-0.5,-10.));
#716 = LINE('',#717,#718);
#717 = CARTESIAN_POINT('',(17.312521498095,-2.22E-15,-10.));
#718 = VECTOR('',#719,1.);
#719 = DIRECTION('',(0.,-1.,2.2E-16));
#720 = ORIENTED_EDGE('',*,*,#721,.F.);
#721 = EDGE_CURVE('',#317,#714,#722,.T.);
#722 = CIRCLE('',#723,6.);
#723 = AXIS2_PLACEMENT_3D('',#724,#725,#726);
#724 = CARTESIAN_POINT('',(17.312521498095,-0.5,-4.));
#725 = DIRECTION('',(0.,-1.,-0.));
#726 = DIRECTION('',(-0.906307787037,0.,-0.422618261741));
#727 = CYLINDRICAL_SURFACE('',#728,6.);
#728 = AXIS2_PLACEMENT_3D('',#729,#730,#731);
#729 = CARTESIAN_POINT('',(17.312521498095,-8.9E-16,-4.));
#730 = DIRECTION('',(0.,1.,-2.2E-16));
#731 = DIRECTION('',(1.,0.,0.));
#732 = ADVANCED_FACE('',(#733),#744,.F.);
#733 = FACE_BOUND('',#734,.F.);
#734 = EDGE_LOOP('',(#735,#741,#742,#743));
#735 = ORIENTED_EDGE('',*,*,#736,.F.);
#736 = EDGE_CURVE('',#434,#626,#737,.T.);
#737 = LINE('',#738,#739);
#738 = CARTESIAN_POINT('',(-32.5,-0.5,-10.));
#739 = VECTOR('',#740,1.);
#740 = DIRECTION('',(7.4E-16,-0.707106781187,0.707106781187));
#741 = ORIENTED_EDGE('',*,*,#442,.T.);
#742 = ORIENTED_EDGE('',*,*,#338,.T.);
#743 = ORIENTED_EDGE('',*,*,#633,.F.);
#744 = PLANE('',#745);
#745 = AXIS2_PLACEMENT_3D('',#746,#747,#748);
#746 = CARTESIAN_POINT('',(-32.5,-0.25,-10.25));
#747 = DIRECTION('',(0.,-0.707106781187,-0.707106781187));
#748 = DIRECTION('',(1.,0.,0.));
#749 = ADVANCED_FACE('',(#750),#761,.F.);
#750 = FACE_BOUND('',#751,.F.);
#751 = EDGE_LOOP('',(#752,#753,#754,#760));
#752 = ORIENTED_EDGE('',*,*,#671,.F.);
#753 = ORIENTED_EDGE('',*,*,#363,.T.);
#754 = ORIENTED_EDGE('',*,*,#755,.T.);
#755 = EDGE_CURVE('',#366,#714,#756,.T.);
#756 = LINE('',#757,#758);
#757 = CARTESIAN_POINT('',(17.312521498095,-0.5,-10.));
#758 = VECTOR('',#759,1.);
#759 = DIRECTION('',(1.7E-16,-0.707106781187,0.707106781187));
#760 = ORIENTED_EDGE('',*,*,#721,.F.);
#761 = CONICAL_SURFACE('',#762,6.,0.785398163397);
#762 = AXIS2_PLACEMENT_3D('',#763,#764,#765);
#763 = CARTESIAN_POINT('',(17.312521498095,-0.5,-4.));
#764 = DIRECTION('',(0.,1.,0.));
#765 = DIRECTION('',(-0.906307787037,0.,-0.422618261741));
#766 = ADVANCED_FACE('',(#767),#785,.T.);
#767 = FACE_BOUND('',#768,.F.);
#768 = EDGE_LOOP('',(#769,#770,#771,#779));
#769 = ORIENTED_EDGE('',*,*,#755,.F.);
#770 = ORIENTED_EDGE('',*,*,#374,.T.);
#771 = ORIENTED_EDGE('',*,*,#772,.T.);
#772 = EDGE_CURVE('',#375,#773,#775,.T.);
#773 = VERTEX_POINT('',#774);
#774 = CARTESIAN_POINT('',(32.5,-0.5,-10.));
#775 = LINE('',#776,#777);
#776 = CARTESIAN_POINT('',(32.5,-0.25,-10.25));
#777 = VECTOR('',#778,1.);
#778 = DIRECTION('',(0.,-0.707106781187,0.707106781187));
#779 = ORIENTED_EDGE('',*,*,#780,.F.);
#780 = EDGE_CURVE('',#714,#773,#781,.T.);
#781 = LINE('',#782,#783);
#782 = CARTESIAN_POINT('',(17.312521498095,-0.5,-10.));
#783 = VECTOR('',#784,1.);
#784 = DIRECTION('',(1.,0.,0.));
#785 = PLANE('',#786);
#786 = AXIS2_PLACEMENT_3D('',#787,#788,#789);
#787 = CARTESIAN_POINT('',(17.312521498095,-0.25,-10.25));
#788 = DIRECTION('',(0.,0.707106781187,0.707106781187));
#789 = DIRECTION('',(-1.,-0.,0.));
#790 = ADVANCED_FACE('',(#791),#810,.T.);
#791 = FACE_BOUND('',#792,.F.);
#792 = EDGE_LOOP('',(#793,#794,#795,#803));
#793 = ORIENTED_EDGE('',*,*,#772,.F.);
#794 = ORIENTED_EDGE('',*,*,#382,.T.);
#795 = ORIENTED_EDGE('',*,*,#796,.T.);
#796 = EDGE_CURVE('',#383,#797,#799,.T.);
#797 = VERTEX_POINT('',#798);
#798 = CARTESIAN_POINT('',(35.,-0.5,-12.5));
#799 = LINE('',#800,#801);
#800 = CARTESIAN_POINT('',(35.,-0.5,-12.5));
#801 = VECTOR('',#802,1.);
#802 = DIRECTION('',(0.707106781187,-0.707106781187,2.E-16));
#803 = ORIENTED_EDGE('',*,*,#804,.F.);
#804 = EDGE_CURVE('',#773,#797,#805,.T.);
#805 = CIRCLE('',#806,2.5);
#806 = AXIS2_PLACEMENT_3D('',#807,#808,#809);
#807 = CARTESIAN_POINT('',(32.5,-0.5,-12.5));
#808 = DIRECTION('',(0.,1.,0.));
#809 = DIRECTION('',(0.,-0.,1.));
#810 = CONICAL_SURFACE('',#811,2.5,0.785398163397);
#811 = AXIS2_PLACEMENT_3D('',#812,#813,#814);
#812 = CARTESIAN_POINT('',(32.5,-0.5,-12.5));
#813 = DIRECTION('',(-0.,-1.,-0.));
#814 = DIRECTION('',(0.,0.,1.));
#815 = ADVANCED_FACE('',(#816),#834,.T.);
#816 = FACE_BOUND('',#817,.F.);
#817 = EDGE_LOOP('',(#818,#819,#820,#828));
#818 = ORIENTED_EDGE('',*,*,#796,.F.);
#819 = ORIENTED_EDGE('',*,*,#391,.T.);
#820 = ORIENTED_EDGE('',*,*,#821,.T.);
#821 = EDGE_CURVE('',#392,#822,#824,.T.);
#822 = VERTEX_POINT('',#823);
#823 = CARTESIAN_POINT('',(35.,-0.5,-17.5));
#824 = LINE('',#825,#826);
#825 = CARTESIAN_POINT('',(34.75,-0.25,-17.5));
#826 = VECTOR('',#827,1.);
#827 = DIRECTION('',(0.707106781187,-0.707106781187,1.6E-16));
#828 = ORIENTED_EDGE('',*,*,#829,.F.);
#829 = EDGE_CURVE('',#797,#822,#830,.T.);
#830 = LINE('',#831,#832);
#831 = CARTESIAN_POINT('',(35.,-0.5,-12.5));
#832 = VECTOR('',#833,1.);
#833 = DIRECTION('',(0.,-2.2E-16,-1.));
#834 = PLANE('',#835);
#835 = AXIS2_PLACEMENT_3D('',#836,#837,#838);
#836 = CARTESIAN_POINT('',(34.75,-0.25,-12.5));
#837 = DIRECTION('',(0.707106781187,0.707106781187,0.));
#838 = DIRECTION('',(-1.1E-16,1.1E-16,1.));
#839 = ADVANCED_FACE('',(#840),#859,.T.);
#840 = FACE_BOUND('',#841,.F.);
#841 = EDGE_LOOP('',(#842,#843,#844,#852));
#842 = ORIENTED_EDGE('',*,*,#821,.F.);
#843 = ORIENTED_EDGE('',*,*,#399,.T.);
#844 = ORIENTED_EDGE('',*,*,#845,.T.);
#845 = EDGE_CURVE('',#400,#846,#848,.T.);
#846 = VERTEX_POINT('',#847);
#847 = CARTESIAN_POINT('',(32.5,-0.5,-20.));
#848 = LINE('',#849,#850);
#849 = CARTESIAN_POINT('',(32.5,-0.5,-20.));
#850 = VECTOR('',#851,1.);
#851 = DIRECTION('',(4.E-17,-0.707106781187,-0.707106781187));
#852 = ORIENTED_EDGE('',*,*,#853,.F.);
#853 = EDGE_CURVE('',#822,#846,#854,.T.);
#854 = CIRCLE('',#855,2.5);
#855 = AXIS2_PLACEMENT_3D('',#856,#857,#858);
#856 = CARTESIAN_POINT('',(32.5,-0.5,-17.5));
#857 = DIRECTION('',(-0.,1.,0.));
#858 = DIRECTION('',(1.,0.,0.));
#859 = CONICAL_SURFACE('',#860,2.5,0.785398163397);
#860 = AXIS2_PLACEMENT_3D('',#861,#862,#863);
#861 = CARTESIAN_POINT('',(32.5,-0.5,-17.5));
#862 = DIRECTION('',(-0.,-1.,-0.));
#863 = DIRECTION('',(1.,-0.,0.));
#864 = ADVANCED_FACE('',(#865),#883,.T.);
#865 = FACE_BOUND('',#866,.F.);
#866 = EDGE_LOOP('',(#867,#868,#869,#877));
#867 = ORIENTED_EDGE('',*,*,#845,.F.);
#868 = ORIENTED_EDGE('',*,*,#408,.T.);
#869 = ORIENTED_EDGE('',*,*,#870,.T.);
#870 = EDGE_CURVE('',#409,#871,#873,.T.);
#871 = VERTEX_POINT('',#872);
#872 = CARTESIAN_POINT('',(-32.5,-0.5,-20.));
#873 = LINE('',#874,#875);
#874 = CARTESIAN_POINT('',(-32.5,-0.25,-19.75));
#875 = VECTOR('',#876,1.);
#876 = DIRECTION('',(-0.,-0.707106781187,-0.707106781187));
#877 = ORIENTED_EDGE('',*,*,#878,.F.);
#878 = EDGE_CURVE('',#846,#871,#879,.T.);
#879 = LINE('',#880,#881);
#880 = CARTESIAN_POINT('',(32.5,-0.5,-20.));
#881 = VECTOR('',#882,1.);
#882 = DIRECTION('',(-1.,0.,0.));
#883 = PLANE('',#884);
#884 = AXIS2_PLACEMENT_3D('',#885,#886,#887);
#885 = CARTESIAN_POINT('',(32.5,-0.25,-19.75));
#886 = DIRECTION('',(0.,0.707106781187,-0.707106781187));
#887 = DIRECTION('',(1.,-0.,-0.));
#888 = ADVANCED_FACE('',(#889),#908,.T.);
#889 = FACE_BOUND('',#890,.F.);
#890 = EDGE_LOOP('',(#891,#892,#893,#901));
#891 = ORIENTED_EDGE('',*,*,#870,.F.);
#892 = ORIENTED_EDGE('',*,*,#416,.T.);
#893 = ORIENTED_EDGE('',*,*,#894,.T.);
#894 = EDGE_CURVE('',#417,#895,#897,.T.);
#895 = VERTEX_POINT('',#896);
#896 = CARTESIAN_POINT('',(-35.,-0.5,-17.5));
#897 = LINE('',#898,#899);
#898 = CARTESIAN_POINT('',(-35.,-0.5,-17.5));
#899 = VECTOR('',#900,1.);
#900 = DIRECTION('',(-0.707106781187,-0.707106781187,-3.6E-16));
#901 = ORIENTED_EDGE('',*,*,#902,.F.);
#902 = EDGE_CURVE('',#871,#895,#903,.T.);
#903 = CIRCLE('',#904,2.5);
#904 = AXIS2_PLACEMENT_3D('',#905,#906,#907);
#905 = CARTESIAN_POINT('',(-32.5,-0.5,-17.5));
#906 = DIRECTION('',(0.,1.,0.));
#907 = DIRECTION('',(0.,0.,-1.));
#908 = CONICAL_SURFACE('',#909,2.5,0.785398163397);
#909 = AXIS2_PLACEMENT_3D('',#910,#911,#912);
#910 = CARTESIAN_POINT('',(-32.5,-0.5,-17.5));
#911 = DIRECTION('',(-0.,-1.,-0.));
#912 = DIRECTION('',(0.,0.,-1.));
#913 = ADVANCED_FACE('',(#914),#933,.T.);
#914 = FACE_BOUND('',#915,.F.);
#915 = EDGE_LOOP('',(#916,#924,#925,#926));
#916 = ORIENTED_EDGE('',*,*,#917,.F.);
#917 = EDGE_CURVE('',#426,#918,#920,.T.);
#918 = VERTEX_POINT('',#919);
#919 = CARTESIAN_POINT('',(-35.,-0.5,-12.5));
#920 = LINE('',#921,#922);
#921 = CARTESIAN_POINT('',(-34.75,-0.25,-12.5));
#922 = VECTOR('',#923,1.);
#923 = DIRECTION('',(-0.707106781187,-0.707106781187,1.6E-16));
#924 = ORIENTED_EDGE('',*,*,#433,.T.);
#925 = ORIENTED_EDGE('',*,*,#736,.T.);
#926 = ORIENTED_EDGE('',*,*,#927,.F.);
#927 = EDGE_CURVE('',#918,#626,#928,.T.);
#928 = CIRCLE('',#929,2.5);
#929 = AXIS2_PLACEMENT_3D('',#930,#931,#932);
#930 = CARTESIAN_POINT('',(-32.5,-0.5,-12.5));
#931 = DIRECTION('',(0.,1.,-0.));
#932 = DIRECTION('',(-1.,0.,0.));
#933 = CONICAL_SURFACE('',#934,2.5,0.785398163397);
#934 = AXIS2_PLACEMENT_3D('',#935,#936,#937);
#935 = CARTESIAN_POINT('',(-32.5,-0.5,-12.5));
#936 = DIRECTION('',(-0.,-1.,-0.));
#937 = DIRECTION('',(-1.,0.,0.));
#938 = ADVANCED_FACE('',(#939),#950,.F.);
#939 = FACE_BOUND('',#940,.F.);
#940 = EDGE_LOOP('',(#941,#942,#943,#944));
#941 = ORIENTED_EDGE('',*,*,#894,.F.);
#942 = ORIENTED_EDGE('',*,*,#425,.T.);
#943 = ORIENTED_EDGE('',*,*,#917,.T.);
#944 = ORIENTED_EDGE('',*,*,#945,.F.);
#945 = EDGE_CURVE('',#895,#918,#946,.T.);
#946 = LINE('',#947,#948);
#947 = CARTESIAN_POINT('',(-35.,-0.5,-17.5));
#948 = VECTOR('',#949,1.);
#949 = DIRECTION('',(0.,2.2E-16,1.));
#950 = PLANE('',#951);
#951 = AXIS2_PLACEMENT_3D('',#952,#953,#954);
#952 = CARTESIAN_POINT('',(-34.75,-0.25,-17.5));
#953 = DIRECTION('',(0.707106781187,-0.707106781187,0.));
#954 = DIRECTION('',(1.1E-16,1.1E-16,1.));
#955 = ADVANCED_FACE('',(#956),#967,.F.);
#956 = FACE_BOUND('',#957,.T.);
#957 = EDGE_LOOP('',(#958,#964,#965,#966));
#958 = ORIENTED_EDGE('',*,*,#959,.T.);
#959 = EDGE_CURVE('',#461,#600,#960,.T.);
#960 = LINE('',#961,#962);
#961 = CARTESIAN_POINT('',(4.,0.,0.));
#962 = VECTOR('',#963,1.);
#963 = DIRECTION('',(0.,-1.,2.2E-16));
#964 = ORIENTED_EDGE('',*,*,#599,.T.);
#965 = ORIENTED_EDGE('',*,*,#959,.F.);
#966 = ORIENTED_EDGE('',*,*,#460,.F.);
#967 = CYLINDRICAL_SURFACE('',#968,4.);
#968 = AXIS2_PLACEMENT_3D('',#969,#970,#971);
#969 = CARTESIAN_POINT('',(0.,0.,0.));
#970 = DIRECTION('',(0.,1.,-2.2E-16));
#971 = DIRECTION('',(1.,0.,0.));
#972 = ADVANCED_FACE('',(#973),#984,.T.);
#973 = FACE_BOUND('',#974,.T.);
#974 = EDGE_LOOP('',(#975,#981,#982,#983));
#975 = ORIENTED_EDGE('',*,*,#976,.F.);
#976 = EDGE_CURVE('',#573,#618,#977,.T.);
#977 = LINE('',#978,#979);
#978 = CARTESIAN_POINT('',(-32.5,-38.5,-10.));
#979 = VECTOR('',#980,1.);
#980 = DIRECTION('',(3.25E-15,0.707106781187,0.707106781187));
#981 = ORIENTED_EDGE('',*,*,#581,.T.);
#982 = ORIENTED_EDGE('',*,*,#477,.T.);
#983 = ORIENTED_EDGE('',*,*,#617,.F.);
#984 = PLANE('',#985);
#985 = AXIS2_PLACEMENT_3D('',#986,#987,#988);
#986 = CARTESIAN_POINT('',(-32.5,-38.75,-10.25));
#987 = DIRECTION('',(0.,-0.707106781187,0.707106781187));
#988 = DIRECTION('',(1.,0.,0.));
#989 = ADVANCED_FACE('',(#990),#1001,.F.);
#990 = FACE_BOUND('',#991,.T.);
#991 = EDGE_LOOP('',(#992,#993,#994,#1000));
#992 = ORIENTED_EDGE('',*,*,#688,.F.);
#993 = ORIENTED_EDGE('',*,*,#502,.T.);
#994 = ORIENTED_EDGE('',*,*,#995,.T.);
#995 = EDGE_CURVE('',#505,#705,#996,.T.);
#996 = LINE('',#997,#998);
#997 = CARTESIAN_POINT('',(17.312521498095,-38.5,-10.));
#998 = VECTOR('',#999,1.);
#999 = DIRECTION('',(1.11E-15,0.707106781187,0.707106781187));
#1000 = ORIENTED_EDGE('',*,*,#704,.F.);
#1001 = CONICAL_SURFACE('',#1002,6.,0.785398163397);
#1002 = AXIS2_PLACEMENT_3D('',#1003,#1004,#1005);
#1003 = CARTESIAN_POINT('',(17.312521498095,-38.5,-4.));
#1004 = DIRECTION('',(-0.,-1.,-0.));
#1005 = DIRECTION('',(-0.906307787037,0.,-0.422618261741));
#1006 = ADVANCED_FACE('',(#1007),#1025,.F.);
#1007 = FACE_BOUND('',#1008,.T.);
#1008 = EDGE_LOOP('',(#1009,#1010,#1011,#1019));
#1009 = ORIENTED_EDGE('',*,*,#995,.F.);
#1010 = ORIENTED_EDGE('',*,*,#513,.T.);
#1011 = ORIENTED_EDGE('',*,*,#1012,.T.);
#1012 = EDGE_CURVE('',#514,#1013,#1015,.T.);
#1013 = VERTEX_POINT('',#1014);
#1014 = CARTESIAN_POINT('',(32.5,-38.5,-10.));
#1015 = LINE('',#1016,#1017);
#1016 = CARTESIAN_POINT('',(32.5,-38.75,-10.25));
#1017 = VECTOR('',#1018,1.);
#1018 = DIRECTION('',(0.,0.707106781187,0.707106781187));
#1019 = ORIENTED_EDGE('',*,*,#1020,.F.);
#1020 = EDGE_CURVE('',#705,#1013,#1021,.T.);
#1021 = LINE('',#1022,#1023);
#1022 = CARTESIAN_POINT('',(17.312521498095,-38.5,-10.));
#1023 = VECTOR('',#1024,1.);
#1024 = DIRECTION('',(1.,0.,0.));
#1025 = PLANE('',#1026);
#1026 = AXIS2_PLACEMENT_3D('',#1027,#1028,#1029);
#1027 = CARTESIAN_POINT('',(17.312521498095,-38.75,-10.25));
#1028 = DIRECTION('',(0.,0.707106781187,-0.707106781187));
#1029 = DIRECTION('',(-1.,-0.,-0.));
#1030 = ADVANCED_FACE('',(#1031),#1050,.T.);
#1031 = FACE_BOUND('',#1032,.T.);
#1032 = EDGE_LOOP('',(#1033,#1034,#1035,#1043));
#1033 = ORIENTED_EDGE('',*,*,#1012,.F.);
#1034 = ORIENTED_EDGE('',*,*,#521,.T.);
#1035 = ORIENTED_EDGE('',*,*,#1036,.T.);
#1036 = EDGE_CURVE('',#522,#1037,#1039,.T.);
#1037 = VERTEX_POINT('',#1038);
#1038 = CARTESIAN_POINT('',(35.,-38.5,-12.5));
#1039 = LINE('',#1040,#1041);
#1040 = CARTESIAN_POINT('',(35.,-38.5,-12.5));
#1041 = VECTOR('',#1042,1.);
#1042 = DIRECTION('',(0.707106781187,0.707106781187,2.E-16));
#1043 = ORIENTED_EDGE('',*,*,#1044,.F.);
#1044 = EDGE_CURVE('',#1013,#1037,#1045,.T.);
#1045 = CIRCLE('',#1046,2.5);
#1046 = AXIS2_PLACEMENT_3D('',#1047,#1048,#1049);
#1047 = CARTESIAN_POINT('',(32.5,-38.5,-12.5));
#1048 = DIRECTION('',(0.,1.,0.));
#1049 = DIRECTION('',(0.,-0.,1.));
#1050 = CONICAL_SURFACE('',#1051,2.5,0.785398163397);
#1051 = AXIS2_PLACEMENT_3D('',#1052,#1053,#1054);
#1052 = CARTESIAN_POINT('',(32.5,-38.5,-12.5));
#1053 = DIRECTION('',(0.,1.,0.));
#1054 = DIRECTION('',(0.,-0.,1.));
#1055 = ADVANCED_FACE('',(#1056),#1074,.F.);
#1056 = FACE_BOUND('',#1057,.T.);
#1057 = EDGE_LOOP('',(#1058,#1059,#1060,#1068));
#1058 = ORIENTED_EDGE('',*,*,#1036,.F.);
#1059 = ORIENTED_EDGE('',*,*,#530,.T.);
#1060 = ORIENTED_EDGE('',*,*,#1061,.T.);
#1061 = EDGE_CURVE('',#531,#1062,#1064,.T.);
#1062 = VERTEX_POINT('',#1063);
#1063 = CARTESIAN_POINT('',(35.,-38.5,-17.5));
#1064 = LINE('',#1065,#1066);
#1065 = CARTESIAN_POINT('',(34.75,-38.75,-17.5));
#1066 = VECTOR('',#1067,1.);
#1067 = DIRECTION('',(0.707106781187,0.707106781187,-1.6E-16));
#1068 = ORIENTED_EDGE('',*,*,#1069,.F.);
#1069 = EDGE_CURVE('',#1037,#1062,#1070,.T.);
#1070 = LINE('',#1071,#1072);
#1071 = CARTESIAN_POINT('',(35.,-38.5,-12.5));
#1072 = VECTOR('',#1073,1.);
#1073 = DIRECTION('',(0.,-2.2E-16,-1.));
#1074 = PLANE('',#1075);
#1075 = AXIS2_PLACEMENT_3D('',#1076,#1077,#1078);
#1076 = CARTESIAN_POINT('',(34.75,-38.75,-12.5));
#1077 = DIRECTION('',(-0.707106781187,0.707106781187,0.));
#1078 = DIRECTION('',(1.1E-16,1.1E-16,1.));
#1079 = ADVANCED_FACE('',(#1080),#1099,.T.);
#1080 = FACE_BOUND('',#1081,.T.);
#1081 = EDGE_LOOP('',(#1082,#1083,#1084,#1092));
#1082 = ORIENTED_EDGE('',*,*,#1061,.F.);
#1083 = ORIENTED_EDGE('',*,*,#538,.T.);
#1084 = ORIENTED_EDGE('',*,*,#1085,.T.);
#1085 = EDGE_CURVE('',#539,#1086,#1088,.T.);
#1086 = VERTEX_POINT('',#1087);
#1087 = CARTESIAN_POINT('',(32.5,-38.5,-20.));
#1088 = LINE('',#1089,#1090);
#1089 = CARTESIAN_POINT('',(32.5,-38.5,-20.));
#1090 = VECTOR('',#1091,1.);
#1091 = DIRECTION('',(2.05E-15,0.707106781187,-0.707106781187));
#1092 = ORIENTED_EDGE('',*,*,#1093,.F.);
#1093 = EDGE_CURVE('',#1062,#1086,#1094,.T.);
#1094 = CIRCLE('',#1095,2.5);
#1095 = AXIS2_PLACEMENT_3D('',#1096,#1097,#1098);
#1096 = CARTESIAN_POINT('',(32.5,-38.5,-17.5));
#1097 = DIRECTION('',(-0.,1.,0.));
#1098 = DIRECTION('',(1.,0.,2.84E-15));
#1099 = CONICAL_SURFACE('',#1100,2.5,0.785398163397);
#1100 = AXIS2_PLACEMENT_3D('',#1101,#1102,#1103);
#1101 = CARTESIAN_POINT('',(32.5,-38.5,-17.5));
#1102 = DIRECTION('',(0.,1.,0.));
#1103 = DIRECTION('',(1.,-0.,2.84E-15));
#1104 = ADVANCED_FACE('',(#1105),#1123,.F.);
#1105 = FACE_BOUND('',#1106,.T.);
#1106 = EDGE_LOOP('',(#1107,#1108,#1109,#1117));
#1107 = ORIENTED_EDGE('',*,*,#1085,.F.);
#1108 = ORIENTED_EDGE('',*,*,#547,.T.);
#1109 = ORIENTED_EDGE('',*,*,#1110,.T.);
#1110 = EDGE_CURVE('',#548,#1111,#1113,.T.);
#1111 = VERTEX_POINT('',#1112);
#1112 = CARTESIAN_POINT('',(-32.5,-38.5,-20.));
#1113 = LINE('',#1114,#1115);
#1114 = CARTESIAN_POINT('',(-32.5,-38.75,-19.75));
#1115 = VECTOR('',#1116,1.);
#1116 = DIRECTION('',(0.,0.707106781187,-0.707106781187));
#1117 = ORIENTED_EDGE('',*,*,#1118,.F.);
#1118 = EDGE_CURVE('',#1086,#1111,#1119,.T.);
#1119 = LINE('',#1120,#1121);
#1120 = CARTESIAN_POINT('',(32.5,-38.5,-20.));
#1121 = VECTOR('',#1122,1.);
#1122 = DIRECTION('',(-1.,-0.,-0.));
#1123 = PLANE('',#1124);
#1124 = AXIS2_PLACEMENT_3D('',#1125,#1126,#1127);
#1125 = CARTESIAN_POINT('',(32.5,-38.75,-19.75));
#1126 = DIRECTION('',(0.,0.707106781187,0.707106781187));
#1127 = DIRECTION('',(1.,-0.,-0.));
#1128 = ADVANCED_FACE('',(#1129),#1148,.T.);
#1129 = FACE_BOUND('',#1130,.T.);
#1130 = EDGE_LOOP('',(#1131,#1132,#1133,#1141));
#1131 = ORIENTED_EDGE('',*,*,#1110,.F.);
#1132 = ORIENTED_EDGE('',*,*,#555,.T.);
#1133 = ORIENTED_EDGE('',*,*,#1134,.T.);
#1134 = EDGE_CURVE('',#556,#1135,#1137,.T.);
#1135 = VERTEX_POINT('',#1136);
#1136 = CARTESIAN_POINT('',(-35.,-38.5,-17.5));
#1137 = LINE('',#1138,#1139);
#1138 = CARTESIAN_POINT('',(-35.,-38.5,-17.5));
#1139 = VECTOR('',#1140,1.);
#1140 = DIRECTION('',(-0.707106781187,0.707106781187,-3.6E-16));
#1141 = ORIENTED_EDGE('',*,*,#1142,.F.);
#1142 = EDGE_CURVE('',#1111,#1135,#1143,.T.);
#1143 = CIRCLE('',#1144,2.5);
#1144 = AXIS2_PLACEMENT_3D('',#1145,#1146,#1147);
#1145 = CARTESIAN_POINT('',(-32.5,-38.5,-17.5));
#1146 = DIRECTION('',(0.,1.,0.));
#1147 = DIRECTION('',(0.,0.,-1.));
#1148 = CONICAL_SURFACE('',#1149,2.5,0.785398163397);
#1149 = AXIS2_PLACEMENT_3D('',#1150,#1151,#1152);
#1150 = CARTESIAN_POINT('',(-32.5,-38.5,-17.5));
#1151 = DIRECTION('',(0.,1.,0.));
#1152 = DIRECTION('',(0.,0.,-1.));
#1153 = ADVANCED_FACE('',(#1154),#1173,.T.);
#1154 = FACE_BOUND('',#1155,.T.);
#1155 = EDGE_LOOP('',(#1156,#1164,#1165,#1166));
#1156 = ORIENTED_EDGE('',*,*,#1157,.F.);
#1157 = EDGE_CURVE('',#565,#1158,#1160,.T.);
#1158 = VERTEX_POINT('',#1159);
#1159 = CARTESIAN_POINT('',(-35.,-38.5,-12.5));
#1160 = LINE('',#1161,#1162);
#1161 = CARTESIAN_POINT('',(-34.75,-38.75,-12.5));
#1162 = VECTOR('',#1163,1.);
#1163 = DIRECTION('',(-0.707106781187,0.707106781187,-1.6E-16));
#1164 = ORIENTED_EDGE('',*,*,#572,.T.);
#1165 = ORIENTED_EDGE('',*,*,#976,.T.);
#1166 = ORIENTED_EDGE('',*,*,#1167,.F.);
#1167 = EDGE_CURVE('',#1158,#618,#1168,.T.);
#1168 = CIRCLE('',#1169,2.5);
#1169 = AXIS2_PLACEMENT_3D('',#1170,#1171,#1172);
#1170 = CARTESIAN_POINT('',(-32.5,-38.5,-12.5));
#1171 = DIRECTION('',(0.,1.,-0.));
#1172 = DIRECTION('',(-1.,0.,3.55E-15));
#1173 = CONICAL_SURFACE('',#1174,2.5,0.785398163397);
#1174 = AXIS2_PLACEMENT_3D('',#1175,#1176,#1177);
#1175 = CARTESIAN_POINT('',(-32.5,-38.5,-12.5));
#1176 = DIRECTION('',(0.,1.,0.));
#1177 = DIRECTION('',(-1.,0.,3.55E-15));
#1178 = ADVANCED_FACE('',(#1179),#1190,.T.);
#1179 = FACE_BOUND('',#1180,.T.);
#1180 = EDGE_LOOP('',(#1181,#1182,#1183,#1184));
#1181 = ORIENTED_EDGE('',*,*,#1134,.F.);
#1182 = ORIENTED_EDGE('',*,*,#564,.T.);
#1183 = ORIENTED_EDGE('',*,*,#1157,.T.);
#1184 = ORIENTED_EDGE('',*,*,#1185,.F.);
#1185 = EDGE_CURVE('',#1135,#1158,#1186,.T.);
#1186 = LINE('',#1187,#1188);
#1187 = CARTESIAN_POINT('',(-35.,-38.5,-17.5));
#1188 = VECTOR('',#1189,1.);
#1189 = DIRECTION('',(0.,2.2E-16,1.));
#1190 = PLANE('',#1191);
#1191 = AXIS2_PLACEMENT_3D('',#1192,#1193,#1194);
#1192 = CARTESIAN_POINT('',(-34.75,-38.75,-17.5));
#1193 = DIRECTION('',(-0.707106781187,-0.707106781187,0.));
#1194 = DIRECTION('',(-1.1E-16,1.1E-16,1.));
#1195 = ADVANCED_FACE('',(#1196),#1207,.T.);
#1196 = FACE_BOUND('',#1197,.F.);
#1197 = EDGE_LOOP('',(#1198,#1199,#1200,#1206));
#1198 = ORIENTED_EDGE('',*,*,#625,.T.);
#1199 = ORIENTED_EDGE('',*,*,#1167,.F.);
#1200 = ORIENTED_EDGE('',*,*,#1201,.F.);
#1201 = EDGE_CURVE('',#918,#1158,#1202,.T.);
#1202 = LINE('',#1203,#1204);
#1203 = CARTESIAN_POINT('',(-35.,-2.78E-15,-12.5));
#1204 = VECTOR('',#1205,1.);
#1205 = DIRECTION('',(0.,-1.,2.2E-16));
#1206 = ORIENTED_EDGE('',*,*,#927,.T.);
#1207 = CYLINDRICAL_SURFACE('',#1208,2.5);
#1208 = AXIS2_PLACEMENT_3D('',#1209,#1210,#1211);
#1209 = CARTESIAN_POINT('',(-32.5,-2.78E-15,-12.5));
#1210 = DIRECTION('',(0.,1.,-2.2E-16));
#1211 = DIRECTION('',(1.,0.,0.));
#1212 = ADVANCED_FACE('',(#1213),#1232,.F.);
#1213 = FACE_BOUND('',#1214,.F.);
#1214 = EDGE_LOOP('',(#1215,#1223,#1230,#1231));
#1215 = ORIENTED_EDGE('',*,*,#1216,.T.);
#1216 = EDGE_CURVE('',#642,#1217,#1219,.T.);
#1217 = VERTEX_POINT('',#1218);
#1218 = CARTESIAN_POINT('',(-20.60626074904,-29.5,-13.5));
#1219 = LINE('',#1220,#1221);
#1220 = CARTESIAN_POINT('',(-20.60626074904,-29.5,-10.));
#1221 = VECTOR('',#1222,1.);
#1222 = DIRECTION('',(-0.,-0.,-1.));
#1223 = ORIENTED_EDGE('',*,*,#1224,.T.);
#1224 = EDGE_CURVE('',#1217,#1217,#1225,.T.);
#1225 = CIRCLE('',#1226,4.3);
#1226 = AXIS2_PLACEMENT_3D('',#1227,#1228,#1229);
#1227 = CARTESIAN_POINT('',(-24.90626074904,-29.5,-13.5));
#1228 = DIRECTION('',(0.,0.,1.));
#1229 = DIRECTION('',(1.,0.,0.));
#1230 = ORIENTED_EDGE('',*,*,#1216,.F.);
#1231 = ORIENTED_EDGE('',*,*,#641,.F.);
#1232 = CYLINDRICAL_SURFACE('',#1233,4.3);
#1233 = AXIS2_PLACEMENT_3D('',#1234,#1235,#1236);
#1234 = CARTESIAN_POINT('',(-24.90626074904,-29.5,-10.));
#1235 = DIRECTION('',(0.,0.,1.));
#1236 = DIRECTION('',(1.,0.,0.));
#1237 = ADVANCED_FACE('',(#1238),#1257,.F.);
#1238 = FACE_BOUND('',#1239,.F.);
#1239 = EDGE_LOOP('',(#1240,#1248,#1255,#1256));
#1240 = ORIENTED_EDGE('',*,*,#1241,.T.);
#1241 = EDGE_CURVE('',#653,#1242,#1244,.T.);
#1242 = VERTEX_POINT('',#1243);
#1243 = CARTESIAN_POINT('',(-20.60626074904,-9.5,-13.5));
#1244 = LINE('',#1245,#1246);
#1245 = CARTESIAN_POINT('',(-20.60626074904,-9.5,-10.));
#1246 = VECTOR('',#1247,1.);
#1247 = DIRECTION('',(-0.,-0.,-1.));
#1248 = ORIENTED_EDGE('',*,*,#1249,.T.);
#1249 = EDGE_CURVE('',#1242,#1242,#1250,.T.);
#1250 = CIRCLE('',#1251,4.3);
#1251 = AXIS2_PLACEMENT_3D('',#1252,#1253,#1254);
#1252 = CARTESIAN_POINT('',(-24.90626074904,-9.5,-13.5));
#1253 = DIRECTION('',(0.,0.,1.));
#1254 = DIRECTION('',(1.,0.,0.));
#1255 = ORIENTED_EDGE('',*,*,#1241,.F.);
#1256 = ORIENTED_EDGE('',*,*,#652,.F.);
#1257 = CYLINDRICAL_SURFACE('',#1258,4.3);
#1258 = AXIS2_PLACEMENT_3D('',#1259,#1260,#1261);
#1259 = CARTESIAN_POINT('',(-24.90626074904,-9.5,-10.));
#1260 = DIRECTION('',(0.,0.,1.));
#1261 = DIRECTION('',(1.,0.,0.));
#1262 = ADVANCED_FACE('',(#1263,#1274,#1285),#1296,.T.);
#1263 = FACE_BOUND('',#1264,.T.);
#1264 = EDGE_LOOP('',(#1265,#1266,#1267,#1273));
#1265 = ORIENTED_EDGE('',*,*,#713,.T.);
#1266 = ORIENTED_EDGE('',*,*,#1020,.T.);
#1267 = ORIENTED_EDGE('',*,*,#1268,.F.);
#1268 = EDGE_CURVE('',#773,#1013,#1269,.T.);
#1269 = LINE('',#1270,#1271);
#1270 = CARTESIAN_POINT('',(32.5,-2.22E-15,-10.));
#1271 = VECTOR('',#1272,1.);
#1272 = DIRECTION('',(0.,-1.,2.2E-16));
#1273 = ORIENTED_EDGE('',*,*,#780,.F.);
#1274 = FACE_BOUND('',#1275,.T.);
#1275 = EDGE_LOOP('',(#1276));
#1276 = ORIENTED_EDGE('',*,*,#1277,.T.);
#1277 = EDGE_CURVE('',#1278,#1278,#1280,.T.);
#1278 = VERTEX_POINT('',#1279);
#1279 = CARTESIAN_POINT('',(20.606260749047,-29.5,-10.));
#1280 = CIRCLE('',#1281,4.3);
#1281 = AXIS2_PLACEMENT_3D('',#1282,#1283,#1284);
#1282 = CARTESIAN_POINT('',(24.906260749047,-29.5,-10.));
#1283 = DIRECTION('',(0.,0.,-1.));
#1284 = DIRECTION('',(-1.,-0.,-0.));
#1285 = FACE_BOUND('',#1286,.T.);
#1286 = EDGE_LOOP('',(#1287));
#1287 = ORIENTED_EDGE('',*,*,#1288,.T.);
#1288 = EDGE_CURVE('',#1289,#1289,#1291,.T.);
#1289 = VERTEX_POINT('',#1290);
#1290 = CARTESIAN_POINT('',(20.606260749047,-9.5,-10.));
#1291 = CIRCLE('',#1292,4.3);
#1292 = AXIS2_PLACEMENT_3D('',#1293,#1294,#1295);
#1293 = CARTESIAN_POINT('',(24.906260749047,-9.5,-10.));
#1294 = DIRECTION('',(0.,0.,-1.));
#1295 = DIRECTION('',(-1.,-0.,-0.));
#1296 = PLANE('',#1297);
#1297 = AXIS2_PLACEMENT_3D('',#1298,#1299,#1300);
#1298 = CARTESIAN_POINT('',(17.312521498095,-2.22E-15,-10.));
#1299 = DIRECTION('',(0.,2.2E-16,1.));
#1300 = DIRECTION('',(1.,0.,0.));
#1301 = ADVANCED_FACE('',(#1302),#1313,.T.);
#1302 = FACE_BOUND('',#1303,.F.);
#1303 = EDGE_LOOP('',(#1304,#1310,#1311,#1312));
#1304 = ORIENTED_EDGE('',*,*,#1305,.T.);
#1305 = EDGE_CURVE('',#797,#1037,#1306,.T.);
#1306 = LINE('',#1307,#1308);
#1307 = CARTESIAN_POINT('',(35.,-2.78E-15,-12.5));
#1308 = VECTOR('',#1309,1.);
#1309 = DIRECTION('',(0.,-1.,2.2E-16));
#1310 = ORIENTED_EDGE('',*,*,#1044,.F.);
#1311 = ORIENTED_EDGE('',*,*,#1268,.F.);
#1312 = ORIENTED_EDGE('',*,*,#804,.T.);
#1313 = CYLINDRICAL_SURFACE('',#1314,2.5);
#1314 = AXIS2_PLACEMENT_3D('',#1315,#1316,#1317);
#1315 = CARTESIAN_POINT('',(32.5,-2.78E-15,-12.5));
#1316 = DIRECTION('',(0.,1.,-2.2E-16));
#1317 = DIRECTION('',(1.,0.,0.));
#1318 = ADVANCED_FACE('',(#1319),#1330,.T.);
#1319 = FACE_BOUND('',#1320,.T.);
#1320 = EDGE_LOOP('',(#1321,#1322,#1323,#1329));
#1321 = ORIENTED_EDGE('',*,*,#1305,.T.);
#1322 = ORIENTED_EDGE('',*,*,#1069,.T.);
#1323 = ORIENTED_EDGE('',*,*,#1324,.F.);
#1324 = EDGE_CURVE('',#822,#1062,#1325,.T.);
#1325 = LINE('',#1326,#1327);
#1326 = CARTESIAN_POINT('',(35.,-3.89E-15,-17.5));
#1327 = VECTOR('',#1328,1.);
#1328 = DIRECTION('',(0.,-1.,2.2E-16));
#1329 = ORIENTED_EDGE('',*,*,#829,.F.);
#1330 = PLANE('',#1331);
#1331 = AXIS2_PLACEMENT_3D('',#1332,#1333,#1334);
#1332 = CARTESIAN_POINT('',(35.,-2.78E-15,-12.5));
#1333 = DIRECTION('',(1.,0.,0.));
#1334 = DIRECTION('',(0.,-2.2E-16,-1.));
#1335 = ADVANCED_FACE('',(#1336),#1347,.T.);
#1336 = FACE_BOUND('',#1337,.F.);
#1337 = EDGE_LOOP('',(#1338,#1344,#1345,#1346));
#1338 = ORIENTED_EDGE('',*,*,#1339,.T.);
#1339 = EDGE_CURVE('',#846,#1086,#1340,.T.);
#1340 = LINE('',#1341,#1342);
#1341 = CARTESIAN_POINT('',(32.5,-4.44E-15,-20.));
#1342 = VECTOR('',#1343,1.);
#1343 = DIRECTION('',(0.,-1.,2.2E-16));
#1344 = ORIENTED_EDGE('',*,*,#1093,.F.);
#1345 = ORIENTED_EDGE('',*,*,#1324,.F.);
#1346 = ORIENTED_EDGE('',*,*,#853,.T.);
#1347 = CYLINDRICAL_SURFACE('',#1348,2.5);
#1348 = AXIS2_PLACEMENT_3D('',#1349,#1350,#1351);
#1349 = CARTESIAN_POINT('',(32.5,-3.89E-15,-17.5));
#1350 = DIRECTION('',(0.,1.,-2.2E-16));
#1351 = DIRECTION('',(1.,0.,0.));
#1352 = ADVANCED_FACE('',(#1353,#1364,#1375,#1386,#1397),#1408,.T.);
#1353 = FACE_BOUND('',#1354,.T.);
#1354 = EDGE_LOOP('',(#1355,#1361,#1362,#1363));
#1355 = ORIENTED_EDGE('',*,*,#1356,.F.);
#1356 = EDGE_CURVE('',#871,#1111,#1357,.T.);
#1357 = LINE('',#1358,#1359);
#1358 = CARTESIAN_POINT('',(-32.5,-4.44E-15,-20.));
#1359 = VECTOR('',#1360,1.);
#1360 = DIRECTION('',(0.,-1.,2.2E-16));
#1361 = ORIENTED_EDGE('',*,*,#878,.F.);
#1362 = ORIENTED_EDGE('',*,*,#1339,.T.);
#1363 = ORIENTED_EDGE('',*,*,#1118,.T.);
#1364 = FACE_BOUND('',#1365,.T.);
#1365 = EDGE_LOOP('',(#1366));
#1366 = ORIENTED_EDGE('',*,*,#1367,.T.);
#1367 = EDGE_CURVE('',#1368,#1368,#1370,.T.);
#1368 = VERTEX_POINT('',#1369);
#1369 = CARTESIAN_POINT('',(22.356260749047,-29.5,-20.));
#1370 = CIRCLE('',#1371,2.55);
#1371 = AXIS2_PLACEMENT_3D('',#1372,#1373,#1374);
#1372 = CARTESIAN_POINT('',(24.906260749047,-29.5,-20.));
#1373 = DIRECTION('',(0.,0.,1.));
#1374 = DIRECTION('',(-1.,0.,0.));
#1375 = FACE_BOUND('',#1376,.T.);
#1376 = EDGE_LOOP('',(#1377));
#1377 = ORIENTED_EDGE('',*,*,#1378,.T.);
#1378 = EDGE_CURVE('',#1379,#1379,#1381,.T.);
#1379 = VERTEX_POINT('',#1380);
#1380 = CARTESIAN_POINT('',(-22.35626074904,-29.5,-20.));
#1381 = CIRCLE('',#1382,2.55);
#1382 = AXIS2_PLACEMENT_3D('',#1383,#1384,#1385);
#1383 = CARTESIAN_POINT('',(-24.90626074904,-29.5,-20.));
#1384 = DIRECTION('',(0.,0.,1.));
#1385 = DIRECTION('',(1.,0.,0.));
#1386 = FACE_BOUND('',#1387,.T.);
#1387 = EDGE_LOOP('',(#1388));
#1388 = ORIENTED_EDGE('',*,*,#1389,.T.);
#1389 = EDGE_CURVE('',#1390,#1390,#1392,.T.);
#1390 = VERTEX_POINT('',#1391);
#1391 = CARTESIAN_POINT('',(22.356260749047,-9.5,-20.));
#1392 = CIRCLE('',#1393,2.55);
#1393 = AXIS2_PLACEMENT_3D('',#1394,#1395,#1396);
#1394 = CARTESIAN_POINT('',(24.906260749047,-9.5,-20.));
#1395 = DIRECTION('',(0.,0.,1.));
#1396 = DIRECTION('',(-1.,0.,0.));
#1397 = FACE_BOUND('',#1398,.T.);
#1398 = EDGE_LOOP('',(#1399));
#1399 = ORIENTED_EDGE('',*,*,#1400,.T.);
#1400 = EDGE_CURVE('',#1401,#1401,#1403,.T.);
#1401 = VERTEX_POINT('',#1402);
#1402 = CARTESIAN_POINT('',(-22.35626074904,-9.5,-20.));
#1403 = CIRCLE('',#1404,2.55);
#1404 = AXIS2_PLACEMENT_3D('',#1405,#1406,#1407);
#1405 = CARTESIAN_POINT('',(-24.90626074904,-9.5,-20.));
#1406 = DIRECTION('',(0.,0.,1.));
#1407 = DIRECTION('',(1.,0.,0.));
#1408 = PLANE('',#1409);
#1409 = AXIS2_PLACEMENT_3D('',#1410,#1411,#1412);
#1410 = CARTESIAN_POINT('',(0.,-19.5,-20.));
#1411 = DIRECTION('',(-0.,-0.,-1.));
#1412 = DIRECTION('',(-1.,0.,0.));
#1413 = ADVANCED_FACE('',(#1414),#1425,.T.);
#1414 = FACE_BOUND('',#1415,.F.);
#1415 = EDGE_LOOP('',(#1416,#1422,#1423,#1424));
#1416 = ORIENTED_EDGE('',*,*,#1417,.T.);
#1417 = EDGE_CURVE('',#895,#1135,#1418,.T.);
#1418 = LINE('',#1419,#1420);
#1419 = CARTESIAN_POINT('',(-35.,-3.89E-15,-17.5));
#1420 = VECTOR('',#1421,1.);
#1421 = DIRECTION('',(0.,-1.,2.2E-16));
#1422 = ORIENTED_EDGE('',*,*,#1142,.F.);
#1423 = ORIENTED_EDGE('',*,*,#1356,.F.);
#1424 = ORIENTED_EDGE('',*,*,#902,.T.);
#1425 = CYLINDRICAL_SURFACE('',#1426,2.5);
#1426 = AXIS2_PLACEMENT_3D('',#1427,#1428,#1429);
#1427 = CARTESIAN_POINT('',(-32.5,-3.89E-15,-17.5));
#1428 = DIRECTION('',(0.,1.,-2.2E-16));
#1429 = DIRECTION('',(1.,0.,0.));
#1430 = ADVANCED_FACE('',(#1431),#1437,.F.);
#1431 = FACE_BOUND('',#1432,.F.);
#1432 = EDGE_LOOP('',(#1433,#1434,#1435,#1436));
#1433 = ORIENTED_EDGE('',*,*,#1201,.T.);
#1434 = ORIENTED_EDGE('',*,*,#1185,.F.);
#1435 = ORIENTED_EDGE('',*,*,#1417,.F.);
#1436 = ORIENTED_EDGE('',*,*,#945,.T.);
#1437 = PLANE('',#1438);
#1438 = AXIS2_PLACEMENT_3D('',#1439,#1440,#1441);
#1439 = CARTESIAN_POINT('',(-35.,-2.78E-15,-12.5));
#1440 = DIRECTION('',(1.,0.,0.));
#1441 = DIRECTION('',(0.,-2.2E-16,-1.));
#1442 = ADVANCED_FACE('',(#1443,#1446),#1457,.T.);
#1443 = FACE_BOUND('',#1444,.T.);
#1444 = EDGE_LOOP('',(#1445));
#1445 = ORIENTED_EDGE('',*,*,#1224,.T.);
#1446 = FACE_BOUND('',#1447,.T.);
#1447 = EDGE_LOOP('',(#1448));
#1448 = ORIENTED_EDGE('',*,*,#1449,.F.);
#1449 = EDGE_CURVE('',#1450,#1450,#1452,.T.);
#1450 = VERTEX_POINT('',#1451);
#1451 = CARTESIAN_POINT('',(-22.35626074904,-29.5,-13.5));
#1452 = CIRCLE('',#1453,2.55);
#1453 = AXIS2_PLACEMENT_3D('',#1454,#1455,#1456);
#1454 = CARTESIAN_POINT('',(-24.90626074904,-29.5,-13.5));
#1455 = DIRECTION('',(0.,0.,1.));
#1456 = DIRECTION('',(1.,0.,0.));
#1457 = PLANE('',#1458);
#1458 = AXIS2_PLACEMENT_3D('',#1459,#1460,#1461);
#1459 = CARTESIAN_POINT('',(-24.90626074904,-19.5,-13.5));
#1460 = DIRECTION('',(0.,0.,1.));
#1461 = DIRECTION('',(1.,0.,0.));
#1462 = ADVANCED_FACE('',(#1463,#1466),#1477,.T.);
#1463 = FACE_BOUND('',#1464,.T.);
#1464 = EDGE_LOOP('',(#1465));
#1465 = ORIENTED_EDGE('',*,*,#1249,.T.);
#1466 = FACE_BOUND('',#1467,.T.);
#1467 = EDGE_LOOP('',(#1468));
#1468 = ORIENTED_EDGE('',*,*,#1469,.F.);
#1469 = EDGE_CURVE('',#1470,#1470,#1472,.T.);
#1470 = VERTEX_POINT('',#1471);
#1471 = CARTESIAN_POINT('',(-22.35626074904,-9.5,-13.5));
#1472 = CIRCLE('',#1473,2.55);
#1473 = AXIS2_PLACEMENT_3D('',#1474,#1475,#1476);
#1474 = CARTESIAN_POINT('',(-24.90626074904,-9.5,-13.5));
#1475 = DIRECTION('',(0.,0.,1.));
#1476 = DIRECTION('',(1.,0.,0.));
#1477 = PLANE('',#1478);
#1478 = AXIS2_PLACEMENT_3D('',#1479,#1480,#1481);
#1479 = CARTESIAN_POINT('',(-24.90626074904,-19.5,-13.5));
#1480 = DIRECTION('',(0.,0.,1.));
#1481 = DIRECTION('',(1.,0.,0.));
#1482 = ADVANCED_FACE('',(#1483),#1502,.F.);
#1483 = FACE_BOUND('',#1484,.T.);
#1484 = EDGE_LOOP('',(#1485,#1493,#1500,#1501));
#1485 = ORIENTED_EDGE('',*,*,#1486,.T.);
#1486 = EDGE_CURVE('',#1278,#1487,#1489,.T.);
#1487 = VERTEX_POINT('',#1488);
#1488 = CARTESIAN_POINT('',(20.606260749047,-29.5,-13.5));
#1489 = LINE('',#1490,#1491);
#1490 = CARTESIAN_POINT('',(20.606260749047,-29.5,-10.));
#1491 = VECTOR('',#1492,1.);
#1492 = DIRECTION('',(0.,0.,-1.));
#1493 = ORIENTED_EDGE('',*,*,#1494,.T.);
#1494 = EDGE_CURVE('',#1487,#1487,#1495,.T.);
#1495 = CIRCLE('',#1496,4.3);
#1496 = AXIS2_PLACEMENT_3D('',#1497,#1498,#1499);
#1497 = CARTESIAN_POINT('',(24.906260749047,-29.5,-13.5));
#1498 = DIRECTION('',(0.,0.,-1.));
#1499 = DIRECTION('',(-1.,-0.,-0.));
#1500 = ORIENTED_EDGE('',*,*,#1486,.F.);
#1501 = ORIENTED_EDGE('',*,*,#1277,.F.);
#1502 = CYLINDRICAL_SURFACE('',#1503,4.3);
#1503 = AXIS2_PLACEMENT_3D('',#1504,#1505,#1506);
#1504 = CARTESIAN_POINT('',(24.906260749047,-29.5,-10.));
#1505 = DIRECTION('',(0.,0.,1.));
#1506 = DIRECTION('',(-1.,0.,0.));
#1507 = ADVANCED_FACE('',(#1508),#1527,.F.);
#1508 = FACE_BOUND('',#1509,.T.);
#1509 = EDGE_LOOP('',(#1510,#1518,#1525,#1526));
#1510 = ORIENTED_EDGE('',*,*,#1511,.T.);
#1511 = EDGE_CURVE('',#1289,#1512,#1514,.T.);
#1512 = VERTEX_POINT('',#1513);
#1513 = CARTESIAN_POINT('',(20.606260749047,-9.5,-13.5));
#1514 = LINE('',#1515,#1516);
#1515 = CARTESIAN_POINT('',(20.606260749047,-9.5,-10.));
#1516 = VECTOR('',#1517,1.);
#1517 = DIRECTION('',(0.,0.,-1.));
#1518 = ORIENTED_EDGE('',*,*,#1519,.T.);
#1519 = EDGE_CURVE('',#1512,#1512,#1520,.T.);
#1520 = CIRCLE('',#1521,4.3);
#1521 = AXIS2_PLACEMENT_3D('',#1522,#1523,#1524);
#1522 = CARTESIAN_POINT('',(24.906260749047,-9.5,-13.5));
#1523 = DIRECTION('',(0.,0.,-1.));
#1524 = DIRECTION('',(-1.,-0.,-0.));
#1525 = ORIENTED_EDGE('',*,*,#1511,.F.);
#1526 = ORIENTED_EDGE('',*,*,#1288,.F.);
#1527 = CYLINDRICAL_SURFACE('',#1528,4.3);
#1528 = AXIS2_PLACEMENT_3D('',#1529,#1530,#1531);
#1529 = CARTESIAN_POINT('',(24.906260749047,-9.5,-10.));
#1530 = DIRECTION('',(0.,0.,1.));
#1531 = DIRECTION('',(-1.,0.,0.));
#1532 = ADVANCED_FACE('',(#1533),#1552,.F.);
#1533 = FACE_BOUND('',#1534,.T.);
#1534 = EDGE_LOOP('',(#1535,#1544,#1550,#1551));
#1535 = ORIENTED_EDGE('',*,*,#1536,.T.);
#1536 = EDGE_CURVE('',#1537,#1537,#1539,.T.);
#1537 = VERTEX_POINT('',#1538);
#1538 = CARTESIAN_POINT('',(22.356260749047,-29.5,-13.5));
#1539 = CIRCLE('',#1540,2.55);
#1540 = AXIS2_PLACEMENT_3D('',#1541,#1542,#1543);
#1541 = CARTESIAN_POINT('',(24.906260749047,-29.5,-13.5));
#1542 = DIRECTION('',(0.,0.,1.));
#1543 = DIRECTION('',(-1.,0.,0.));
#1544 = ORIENTED_EDGE('',*,*,#1545,.T.);
#1545 = EDGE_CURVE('',#1537,#1368,#1546,.T.);
#1546 = LINE('',#1547,#1548);
#1547 = CARTESIAN_POINT('',(22.356260749047,-29.5,-10.));
#1548 = VECTOR('',#1549,1.);
#1549 = DIRECTION('',(0.,0.,-1.));
#1550 = ORIENTED_EDGE('',*,*,#1367,.F.);
#1551 = ORIENTED_EDGE('',*,*,#1545,.F.);
#1552 = CYLINDRICAL_SURFACE('',#1553,2.55);
#1553 = AXIS2_PLACEMENT_3D('',#1554,#1555,#1556);
#1554 = CARTESIAN_POINT('',(24.906260749047,-29.5,-10.));
#1555 = DIRECTION('',(0.,0.,1.));
#1556 = DIRECTION('',(-1.,0.,0.));
#1557 = ADVANCED_FACE('',(#1558),#1569,.F.);
#1558 = FACE_BOUND('',#1559,.F.);
#1559 = EDGE_LOOP('',(#1560,#1561,#1567,#1568));
#1560 = ORIENTED_EDGE('',*,*,#1449,.F.);
#1561 = ORIENTED_EDGE('',*,*,#1562,.T.);
#1562 = EDGE_CURVE('',#1450,#1379,#1563,.T.);
#1563 = LINE('',#1564,#1565);
#1564 = CARTESIAN_POINT('',(-22.35626074904,-29.5,-10.));
#1565 = VECTOR('',#1566,1.);
#1566 = DIRECTION('',(-0.,-0.,-1.));
#1567 = ORIENTED_EDGE('',*,*,#1378,.T.);
#1568 = ORIENTED_EDGE('',*,*,#1562,.F.);
#1569 = CYLINDRICAL_SURFACE('',#1570,2.55);
#1570 = AXIS2_PLACEMENT_3D('',#1571,#1572,#1573);
#1571 = CARTESIAN_POINT('',(-24.90626074904,-29.5,-10.));
#1572 = DIRECTION('',(0.,0.,1.));
#1573 = DIRECTION('',(1.,0.,0.));
#1574 = ADVANCED_FACE('',(#1575),#1594,.F.);
#1575 = FACE_BOUND('',#1576,.T.);
#1576 = EDGE_LOOP('',(#1577,#1586,#1592,#1593));
#1577 = ORIENTED_EDGE('',*,*,#1578,.T.);
#1578 = EDGE_CURVE('',#1579,#1579,#1581,.T.);
#1579 = VERTEX_POINT('',#1580);
#1580 = CARTESIAN_POINT('',(22.356260749047,-9.5,-13.5));
#1581 = CIRCLE('',#1582,2.55);
#1582 = AXIS2_PLACEMENT_3D('',#1583,#1584,#1585);
#1583 = CARTESIAN_POINT('',(24.906260749047,-9.5,-13.5));
#1584 = DIRECTION('',(0.,0.,1.));
#1585 = DIRECTION('',(-1.,0.,0.));
#1586 = ORIENTED_EDGE('',*,*,#1587,.T.);
#1587 = EDGE_CURVE('',#1579,#1390,#1588,.T.);
#1588 = LINE('',#1589,#1590);
#1589 = CARTESIAN_POINT('',(22.356260749047,-9.5,-10.));
#1590 = VECTOR('',#1591,1.);
#1591 = DIRECTION('',(0.,0.,-1.));
#1592 = ORIENTED_EDGE('',*,*,#1389,.F.);
#1593 = ORIENTED_EDGE('',*,*,#1587,.F.);
#1594 = CYLINDRICAL_SURFACE('',#1595,2.55);
#1595 = AXIS2_PLACEMENT_3D('',#1596,#1597,#1598);
#1596 = CARTESIAN_POINT('',(24.906260749047,-9.5,-10.));
#1597 = DIRECTION('',(0.,0.,1.));
#1598 = DIRECTION('',(-1.,0.,0.));
#1599 = ADVANCED_FACE('',(#1600),#1611,.F.);
#1600 = FACE_BOUND('',#1601,.F.);
#1601 = EDGE_LOOP('',(#1602,#1603,#1609,#1610));
#1602 = ORIENTED_EDGE('',*,*,#1469,.F.);
#1603 = ORIENTED_EDGE('',*,*,#1604,.T.);
#1604 = EDGE_CURVE('',#1470,#1401,#1605,.T.);
#1605 = LINE('',#1606,#1607);
#1606 = CARTESIAN_POINT('',(-22.35626074904,-9.5,-10.));
#1607 = VECTOR('',#1608,1.);
#1608 = DIRECTION('',(-0.,-0.,-1.));
#1609 = ORIENTED_EDGE('',*,*,#1400,.T.);
#1610 = ORIENTED_EDGE('',*,*,#1604,.F.);
#1611 = CYLINDRICAL_SURFACE('',#1612,2.55);
#1612 = AXIS2_PLACEMENT_3D('',#1613,#1614,#1615);
#1613 = CARTESIAN_POINT('',(-24.90626074904,-9.5,-10.));
#1614 = DIRECTION('',(0.,0.,1.));
#1615 = DIRECTION('',(1.,0.,0.));
#1616 = ADVANCED_FACE('',(#1617,#1620),#1623,.T.);
#1617 = FACE_BOUND('',#1618,.F.);
#1618 = EDGE_LOOP('',(#1619));
#1619 = ORIENTED_EDGE('',*,*,#1494,.T.);
#1620 = FACE_BOUND('',#1621,.F.);
#1621 = EDGE_LOOP('',(#1622));
#1622 = ORIENTED_EDGE('',*,*,#1536,.T.);
#1623 = PLANE('',#1624);
#1624 = AXIS2_PLACEMENT_3D('',#1625,#1626,#1627);
#1625 = CARTESIAN_POINT('',(24.906260749047,-19.5,-13.5));
#1626 = DIRECTION('',(0.,0.,1.));
#1627 = DIRECTION('',(1.,0.,0.));
#1628 = ADVANCED_FACE('',(#1629,#1632),#1635,.T.);
#1629 = FACE_BOUND('',#1630,.F.);
#1630 = EDGE_LOOP('',(#1631));
#1631 = ORIENTED_EDGE('',*,*,#1519,.T.);
#1632 = FACE_BOUND('',#1633,.F.);
#1633 = EDGE_LOOP('',(#1634));
#1634 = ORIENTED_EDGE('',*,*,#1578,.T.);
#1635 = PLANE('',#1636);
#1636 = AXIS2_PLACEMENT_3D('',#1637,#1638,#1639);
#1637 = CARTESIAN_POINT('',(24.906260749047,-19.5,-13.5));
#1638 = DIRECTION('',(0.,0.,1.));
#1639 = DIRECTION('',(1.,0.,0.));
#1640 = ( GEOMETRIC_REPRESENTATION_CONTEXT(3) 
GLOBAL_UNCERTAINTY_ASSIGNED_CONTEXT((#1644)) 
GLOBAL_UNIT_ASSIGNED_CONTEXT((#1641,#1642,#1643)) REPRESENTATION_CONTEXT
('Context #1','3D Context with UNIT and UNCERTAINTY') );
#1641 = ( LENGTH_UNIT() NAMED_UNIT(*) SI_UNIT(.MILLI.,.METRE.) );
#1642 = ( NAMED_UNIT(*) PLANE_ANGLE_UNIT() SI_UNIT($,.RADIAN.) );
#1643 = ( NAMED_UNIT(*) SI_UNIT($,.STERADIAN.) SOLID_ANGLE_UNIT() );
#1644 = UNCERTAINTY_MEASURE_WITH_UNIT(LENGTH_MEASURE(1.E-07),#1641,
  'distance_accuracy_value','confusion accuracy');
#1645 = PRODUCT_RELATED_PRODUCT_CATEGORY('part',$,(#7));
#1646 = MECHANICAL_DESIGN_GEOMETRIC_PRESENTATION_REPRESENTATION('',(
    #1647),#1640);
#1647 = STYLED_ITEM('color',(#1648),#15);
#1648 = PRESENTATION_STYLE_ASSIGNMENT((#1649,#1655));
#1649 = SURFACE_STYLE_USAGE(.BOTH.,#1650);
#1650 = SURFACE_SIDE_STYLE('',(#1651));
#1651 = SURFACE_STYLE_FILL_AREA(#1652);
#1652 = FILL_AREA_STYLE('',(#1653));
#1653 = FILL_AREA_STYLE_COLOUR('',#1654);
#1654 = COLOUR_RGB('',0.,0.666666687201,1.);
#1655 = CURVE_STYLE('',#1656,POSITIVE_LENGTH_MEASURE(0.1),#1657);
#1656 = DRAUGHTING_PRE_DEFINED_CURVE_FONT('continuous');
#1657 = COLOUR_RGB('',9.803921802644E-02,9.803921802644E-02,
  9.803921802644E-02);
ENDSEC;
END-ISO-10303-21;
