ISO-10303-21;
HEADER;
FILE_DESCRIPTION(('FreeCAD Model'),'2;1');
FILE_NAME('Open CASCADE Shape Model','2026-08-30T13:46:47',('Author'),(
    ''),'Open CASCADE STEP processor 7.8','FreeCAD','Unknown');
FILE_SCHEMA(('AUTOMOTIVE_DESIGN { 1 0 10303 214 1 1 1 1 }'));
ENDSEC;
DATA;
#1 = APPLICATION_PROTOCOL_DEFINITION('international standard',
  'automotive_design',2000,#2);
#2 = APPLICATION_CONTEXT(
  'core data for automotive mechanical design processes');
#3 = SHAPE_DEFINITION_REPRESENTATION(#4,#10);
#4 = PRODUCT_DEFINITION_SHAPE('','',#5);
#5 = PRODUCT_DEFINITION('design','',#6,#9);
#6 = PRODUCT_DEFINITION_FORMATION('','',#7);
#7 = PRODUCT('Wheel connecting plate','Wheel connecting plate','',(#8));
#8 = PRODUCT_CONTEXT('',#2,'mechanical');
#9 = PRODUCT_DEFINITION_CONTEXT('part definition',#2,'design');
#10 = ADVANCED_BREP_SHAPE_REPRESENTATION('',(#11,#15),#939);
#11 = AXIS2_PLACEMENT_3D('',#12,#13,#14);
#12 = CARTESIAN_POINT('',(0.,0.,0.));
#13 = DIRECTION('',(0.,0.,1.));
#14 = DIRECTION('',(1.,0.,-0.));
#15 = MANIFOLD_SOLID_BREP('',#16);
#16 = CLOSED_SHELL('',(#17,#74,#121,#241,#281,#355,#583,#641,#694,#711,
    #747,#772,#797,#814,#831,#848,#865,#875,#885,#895,#905,#922));
#17 = ADVANCED_FACE('',(#18),#69,.T.);
#18 = FACE_BOUND('',#19,.T.);
#19 = EDGE_LOOP('',(#20,#30,#38,#47,#55,#63));
#20 = ORIENTED_EDGE('',*,*,#21,.F.);
#21 = EDGE_CURVE('',#22,#24,#26,.T.);
#22 = VERTEX_POINT('',#23);
#23 = CARTESIAN_POINT('',(0.,2.E-15,10.));
#24 = VERTEX_POINT('',#25);
#25 = CARTESIAN_POINT('',(0.,0.,0.));
#26 = LINE('',#27,#28);
#27 = CARTESIAN_POINT('',(0.,0.,10.));
#28 = VECTOR('',#29,1.);
#29 = DIRECTION('',(0.,0.,-1.));
#30 = ORIENTED_EDGE('',*,*,#31,.T.);
#31 = EDGE_CURVE('',#22,#32,#34,.T.);
#32 = VERTEX_POINT('',#33);
#33 = CARTESIAN_POINT('',(0.,-12.,10.));
#34 = LINE('',#35,#36);
#35 = CARTESIAN_POINT('',(0.,2.22E-15,10.));
#36 = VECTOR('',#37,1.);
#37 = DIRECTION('',(0.,-1.,2.2E-16));
#38 = ORIENTED_EDGE('',*,*,#39,.F.);
#39 = EDGE_CURVE('',#40,#32,#42,.T.);
#40 = VERTEX_POINT('',#41);
#41 = CARTESIAN_POINT('',(0.,-28.,10.));
#42 = CIRCLE('',#43,8.);
#43 = AXIS2_PLACEMENT_3D('',#44,#45,#46);
#44 = CARTESIAN_POINT('',(0.,-20.,10.));
#45 = DIRECTION('',(1.,0.,0.));
#46 = DIRECTION('',(0.,1.,0.));
#47 = ORIENTED_EDGE('',*,*,#48,.T.);
#48 = EDGE_CURVE('',#40,#49,#51,.T.);
#49 = VERTEX_POINT('',#50);
#50 = CARTESIAN_POINT('',(0.,-40.,10.));
#51 = LINE('',#52,#53);
#52 = CARTESIAN_POINT('',(0.,2.22E-15,10.));
#53 = VECTOR('',#54,1.);
#54 = DIRECTION('',(0.,-1.,2.2E-16));
#55 = ORIENTED_EDGE('',*,*,#56,.T.);
#56 = EDGE_CURVE('',#49,#57,#59,.T.);
#57 = VERTEX_POINT('',#58);
#58 = CARTESIAN_POINT('',(0.,-40.,9.E-15));
#59 = LINE('',#60,#61);
#60 = CARTESIAN_POINT('',(0.,-40.,10.));
#61 = VECTOR('',#62,1.);
#62 = DIRECTION('',(0.,0.,-1.));
#63 = ORIENTED_EDGE('',*,*,#64,.F.);
#64 = EDGE_CURVE('',#24,#57,#65,.T.);
#65 = LINE('',#66,#67);
#66 = CARTESIAN_POINT('',(0.,0.,0.));
#67 = VECTOR('',#68,1.);
#68 = DIRECTION('',(0.,-1.,2.2E-16));
#69 = PLANE('',#70);
#70 = AXIS2_PLACEMENT_3D('',#71,#72,#73);
#71 = CARTESIAN_POINT('',(0.,2.22E-15,10.));
#72 = DIRECTION('',(1.,0.,0.));
#73 = DIRECTION('',(0.,-2.2E-16,-1.));
#74 = ADVANCED_FACE('',(#75),#116,.T.);
#75 = FACE_BOUND('',#76,.T.);
#76 = EDGE_LOOP('',(#77,#85,#93,#101,#109,#115));
#77 = ORIENTED_EDGE('',*,*,#78,.T.);
#78 = EDGE_CURVE('',#24,#79,#81,.T.);
#79 = VERTEX_POINT('',#80);
#80 = CARTESIAN_POINT('',(-62.,0.,0.));
#81 = LINE('',#82,#83);
#82 = CARTESIAN_POINT('',(0.,0.,0.));
#83 = VECTOR('',#84,1.);
#84 = DIRECTION('',(-1.,0.,0.));
#85 = ORIENTED_EDGE('',*,*,#86,.T.);
#86 = EDGE_CURVE('',#79,#87,#89,.T.);
#87 = VERTEX_POINT('',#88);
#88 = CARTESIAN_POINT('',(-62.,-4.E-15,-20.));
#89 = LINE('',#90,#91);
#90 = CARTESIAN_POINT('',(-62.,0.,0.));
#91 = VECTOR('',#92,1.);
#92 = DIRECTION('',(0.,0.,-1.));
#93 = ORIENTED_EDGE('',*,*,#94,.T.);
#94 = EDGE_CURVE('',#87,#95,#97,.T.);
#95 = VERTEX_POINT('',#96);
#96 = CARTESIAN_POINT('',(-67.,-4.E-15,-20.));
#97 = LINE('',#98,#99);
#98 = CARTESIAN_POINT('',(-62.,0.,-20.));
#99 = VECTOR('',#100,1.);
#100 = DIRECTION('',(-1.,0.,0.));
#101 = ORIENTED_EDGE('',*,*,#102,.T.);
#102 = EDGE_CURVE('',#95,#103,#105,.T.);
#103 = VERTEX_POINT('',#104);
#104 = CARTESIAN_POINT('',(-67.,2.E-15,10.));
#105 = LINE('',#106,#107);
#106 = CARTESIAN_POINT('',(-67.,0.,-20.));
#107 = VECTOR('',#108,1.);
#108 = DIRECTION('',(0.,0.,1.));
#109 = ORIENTED_EDGE('',*,*,#110,.T.);
#110 = EDGE_CURVE('',#103,#22,#111,.T.);
#111 = LINE('',#112,#113);
#112 = CARTESIAN_POINT('',(-67.,0.,10.));
#113 = VECTOR('',#114,1.);
#114 = DIRECTION('',(1.,0.,0.));
#115 = ORIENTED_EDGE('',*,*,#21,.T.);
#116 = PLANE('',#117);
#117 = AXIS2_PLACEMENT_3D('',#118,#119,#120);
#118 = CARTESIAN_POINT('',(-39.89175257732,3.1E-16,1.39175257732));
#119 = DIRECTION('',(0.,1.,0.));
#120 = DIRECTION('',(0.,0.,1.));
#121 = ADVANCED_FACE('',(#122,#192,#203,#214,#225),#236,.T.);
#122 = FACE_BOUND('',#123,.T.);
#123 = EDGE_LOOP('',(#124,#125,#126,#134,#142,#151,#160,#168,#177,#186)
  );
#124 = ORIENTED_EDGE('',*,*,#78,.F.);
#125 = ORIENTED_EDGE('',*,*,#64,.T.);
#126 = ORIENTED_EDGE('',*,*,#127,.T.);
#127 = EDGE_CURVE('',#57,#128,#130,.T.);
#128 = VERTEX_POINT('',#129);
#129 = CARTESIAN_POINT('',(-62.,-40.,9.E-15));
#130 = LINE('',#131,#132);
#131 = CARTESIAN_POINT('',(0.,-40.,9.E-15));
#132 = VECTOR('',#133,1.);
#133 = DIRECTION('',(-1.,0.,0.));
#134 = ORIENTED_EDGE('',*,*,#135,.F.);
#135 = EDGE_CURVE('',#136,#128,#138,.T.);
#136 = VERTEX_POINT('',#137);
#137 = CARTESIAN_POINT('',(-62.,-37.2360679775,7.E-15));
#138 = LINE('',#139,#140);
#139 = CARTESIAN_POINT('',(-62.,0.,0.));
#140 = VECTOR('',#141,1.);
#141 = DIRECTION('',(0.,-1.,2.2E-16));
#142 = ORIENTED_EDGE('',*,*,#143,.T.);
#143 = EDGE_CURVE('',#136,#144,#146,.T.);
#144 = VERTEX_POINT('',#145);
#145 = CARTESIAN_POINT('',(-57.,-35.,5.E-15));
#146 = CIRCLE('',#147,3.);
#147 = AXIS2_PLACEMENT_3D('',#148,#149,#150);
#148 = CARTESIAN_POINT('',(-60.,-35.,5.33E-15));
#149 = DIRECTION('',(0.,0.,1.));
#150 = DIRECTION('',(1.,0.,0.));
#151 = ORIENTED_EDGE('',*,*,#152,.T.);
#152 = EDGE_CURVE('',#144,#153,#155,.T.);
#153 = VERTEX_POINT('',#154);
#154 = CARTESIAN_POINT('',(-62.,-32.7639320225,6.E-15));
#155 = CIRCLE('',#156,3.);
#156 = AXIS2_PLACEMENT_3D('',#157,#158,#159);
#157 = CARTESIAN_POINT('',(-60.,-35.,5.33E-15));
#158 = DIRECTION('',(0.,0.,1.));
#159 = DIRECTION('',(1.,0.,0.));
#160 = ORIENTED_EDGE('',*,*,#161,.F.);
#161 = EDGE_CURVE('',#162,#153,#164,.T.);
#162 = VERTEX_POINT('',#163);
#163 = CARTESIAN_POINT('',(-62.,-7.2360679775,3.E-15));
#164 = LINE('',#165,#166);
#165 = CARTESIAN_POINT('',(-62.,0.,0.));
#166 = VECTOR('',#167,1.);
#167 = DIRECTION('',(0.,-1.,2.2E-16));
#168 = ORIENTED_EDGE('',*,*,#169,.T.);
#169 = EDGE_CURVE('',#162,#170,#172,.T.);
#170 = VERTEX_POINT('',#171);
#171 = CARTESIAN_POINT('',(-57.,-5.,5.E-15));
#172 = CIRCLE('',#173,3.);
#173 = AXIS2_PLACEMENT_3D('',#174,#175,#176);
#174 = CARTESIAN_POINT('',(-60.,-5.,5.33E-15));
#175 = DIRECTION('',(0.,0.,1.));
#176 = DIRECTION('',(1.,0.,0.));
#177 = ORIENTED_EDGE('',*,*,#178,.T.);
#178 = EDGE_CURVE('',#170,#179,#181,.T.);
#179 = VERTEX_POINT('',#180);
#180 = CARTESIAN_POINT('',(-62.,-2.7639320225,3.E-15));
#181 = CIRCLE('',#182,3.);
#182 = AXIS2_PLACEMENT_3D('',#183,#184,#185);
#183 = CARTESIAN_POINT('',(-60.,-5.,5.33E-15));
#184 = DIRECTION('',(0.,0.,1.));
#185 = DIRECTION('',(1.,0.,0.));
#186 = ORIENTED_EDGE('',*,*,#187,.F.);
#187 = EDGE_CURVE('',#79,#179,#188,.T.);
#188 = LINE('',#189,#190);
#189 = CARTESIAN_POINT('',(-62.,0.,0.));
#190 = VECTOR('',#191,1.);
#191 = DIRECTION('',(0.,-1.,2.2E-16));
#192 = FACE_BOUND('',#193,.T.);
#193 = EDGE_LOOP('',(#194));
#194 = ORIENTED_EDGE('',*,*,#195,.T.);
#195 = EDGE_CURVE('',#196,#196,#198,.T.);
#196 = VERTEX_POINT('',#197);
#197 = CARTESIAN_POINT('',(-7.35,-30.,5.E-15));
#198 = CIRCLE('',#199,2.65);
#199 = AXIS2_PLACEMENT_3D('',#200,#201,#202);
#200 = CARTESIAN_POINT('',(-10.,-30.,5.33E-15));
#201 = DIRECTION('',(0.,0.,1.));
#202 = DIRECTION('',(1.,0.,0.));
#203 = FACE_BOUND('',#204,.T.);
#204 = EDGE_LOOP('',(#205));
#205 = ORIENTED_EDGE('',*,*,#206,.T.);
#206 = EDGE_CURVE('',#207,#207,#209,.T.);
#207 = VERTEX_POINT('',#208);
#208 = CARTESIAN_POINT('',(-26.7,-35.,5.E-15));
#209 = CIRCLE('',#210,3.3);
#210 = AXIS2_PLACEMENT_3D('',#211,#212,#213);
#211 = CARTESIAN_POINT('',(-30.,-35.,5.E-15));
#212 = DIRECTION('',(0.,0.,1.));
#213 = DIRECTION('',(1.,0.,0.));
#214 = FACE_BOUND('',#215,.T.);
#215 = EDGE_LOOP('',(#216));
#216 = ORIENTED_EDGE('',*,*,#217,.T.);
#217 = EDGE_CURVE('',#218,#218,#220,.T.);
#218 = VERTEX_POINT('',#219);
#219 = CARTESIAN_POINT('',(-7.35,-10.,5.E-15));
#220 = CIRCLE('',#221,2.65);
#221 = AXIS2_PLACEMENT_3D('',#222,#223,#224);
#222 = CARTESIAN_POINT('',(-10.,-10.,5.33E-15));
#223 = DIRECTION('',(0.,0.,1.));
#224 = DIRECTION('',(1.,0.,0.));
#225 = FACE_BOUND('',#226,.T.);
#226 = EDGE_LOOP('',(#227));
#227 = ORIENTED_EDGE('',*,*,#228,.T.);
#228 = EDGE_CURVE('',#229,#229,#231,.T.);
#229 = VERTEX_POINT('',#230);
#230 = CARTESIAN_POINT('',(-27.,-5.,5.E-15));
#231 = CIRCLE('',#232,3.);
#232 = AXIS2_PLACEMENT_3D('',#233,#234,#235);
#233 = CARTESIAN_POINT('',(-30.,-5.,5.33E-15));
#234 = DIRECTION('',(0.,0.,1.));
#235 = DIRECTION('',(1.,0.,0.));
#236 = PLANE('',#237);
#237 = AXIS2_PLACEMENT_3D('',#238,#239,#240);
#238 = CARTESIAN_POINT('',(-31.,-20.,4.44E-15));
#239 = DIRECTION('',(-0.,-0.,-1.));
#240 = DIRECTION('',(-1.,0.,0.));
#241 = ADVANCED_FACE('',(#242),#276,.F.);
#242 = FACE_BOUND('',#243,.F.);
#243 = EDGE_LOOP('',(#244,#245,#253,#261,#269,#275));
#244 = ORIENTED_EDGE('',*,*,#127,.T.);
#245 = ORIENTED_EDGE('',*,*,#246,.T.);
#246 = EDGE_CURVE('',#128,#247,#249,.T.);
#247 = VERTEX_POINT('',#248);
#248 = CARTESIAN_POINT('',(-62.,-40.,-20.));
#249 = LINE('',#250,#251);
#250 = CARTESIAN_POINT('',(-62.,-40.,9.E-15));
#251 = VECTOR('',#252,1.);
#252 = DIRECTION('',(0.,0.,-1.));
#253 = ORIENTED_EDGE('',*,*,#254,.T.);
#254 = EDGE_CURVE('',#247,#255,#257,.T.);
#255 = VERTEX_POINT('',#256);
#256 = CARTESIAN_POINT('',(-67.,-40.,-20.));
#257 = LINE('',#258,#259);
#258 = CARTESIAN_POINT('',(-62.,-40.,-20.));
#259 = VECTOR('',#260,1.);
#260 = DIRECTION('',(-1.,0.,0.));
#261 = ORIENTED_EDGE('',*,*,#262,.T.);
#262 = EDGE_CURVE('',#255,#263,#265,.T.);
#263 = VERTEX_POINT('',#264);
#264 = CARTESIAN_POINT('',(-67.,-40.,10.));
#265 = LINE('',#266,#267);
#266 = CARTESIAN_POINT('',(-67.,-40.,-20.));
#267 = VECTOR('',#268,1.);
#268 = DIRECTION('',(0.,0.,1.));
#269 = ORIENTED_EDGE('',*,*,#270,.T.);
#270 = EDGE_CURVE('',#263,#49,#271,.T.);
#271 = LINE('',#272,#273);
#272 = CARTESIAN_POINT('',(-67.,-40.,10.));
#273 = VECTOR('',#274,1.);
#274 = DIRECTION('',(1.,0.,0.));
#275 = ORIENTED_EDGE('',*,*,#56,.T.);
#276 = PLANE('',#277);
#277 = AXIS2_PLACEMENT_3D('',#278,#279,#280);
#278 = CARTESIAN_POINT('',(-39.89175257732,-40.,1.39175257732));
#279 = DIRECTION('',(0.,1.,0.));
#280 = DIRECTION('',(0.,0.,1.));
#281 = ADVANCED_FACE('',(#282,#317,#328,#339),#350,.T.);
#282 = FACE_BOUND('',#283,.T.);
#283 = EDGE_LOOP('',(#284,#294,#300,#301,#302,#310));
#284 = ORIENTED_EDGE('',*,*,#285,.F.);
#285 = EDGE_CURVE('',#286,#288,#290,.T.);
#286 = VERTEX_POINT('',#287);
#287 = CARTESIAN_POINT('',(-67.,-28.,10.));
#288 = VERTEX_POINT('',#289);
#289 = CARTESIAN_POINT('',(-14.03112887414,-28.,10.));
#290 = LINE('',#291,#292);
#291 = CARTESIAN_POINT('',(0.,-28.,10.));
#292 = VECTOR('',#293,1.);
#293 = DIRECTION('',(1.,0.,0.));
#294 = ORIENTED_EDGE('',*,*,#295,.T.);
#295 = EDGE_CURVE('',#286,#263,#296,.T.);
#296 = LINE('',#297,#298);
#297 = CARTESIAN_POINT('',(-67.,2.22E-15,10.));
#298 = VECTOR('',#299,1.);
#299 = DIRECTION('',(0.,-1.,2.2E-16));
#300 = ORIENTED_EDGE('',*,*,#270,.T.);
#301 = ORIENTED_EDGE('',*,*,#48,.F.);
#302 = ORIENTED_EDGE('',*,*,#303,.F.);
#303 = EDGE_CURVE('',#304,#40,#306,.T.);
#304 = VERTEX_POINT('',#305);
#305 = CARTESIAN_POINT('',(-5.968871125851,-28.,10.));
#306 = LINE('',#307,#308);
#307 = CARTESIAN_POINT('',(0.,-28.,10.));
#308 = VECTOR('',#309,1.);
#309 = DIRECTION('',(1.,0.,0.));
#310 = ORIENTED_EDGE('',*,*,#311,.T.);
#311 = EDGE_CURVE('',#304,#288,#312,.T.);
#312 = CIRCLE('',#313,4.5);
#313 = AXIS2_PLACEMENT_3D('',#314,#315,#316);
#314 = CARTESIAN_POINT('',(-10.,-30.,10.));
#315 = DIRECTION('',(0.,0.,1.));
#316 = DIRECTION('',(1.,0.,0.));
#317 = FACE_BOUND('',#318,.T.);
#318 = EDGE_LOOP('',(#319));
#319 = ORIENTED_EDGE('',*,*,#320,.F.);
#320 = EDGE_CURVE('',#321,#321,#323,.T.);
#321 = VERTEX_POINT('',#322);
#322 = CARTESIAN_POINT('',(-26.7,-35.,10.));
#323 = CIRCLE('',#324,3.3);
#324 = AXIS2_PLACEMENT_3D('',#325,#326,#327);
#325 = CARTESIAN_POINT('',(-30.,-35.,10.));
#326 = DIRECTION('',(0.,0.,1.));
#327 = DIRECTION('',(1.,0.,0.));
#328 = FACE_BOUND('',#329,.T.);
#329 = EDGE_LOOP('',(#330));
#330 = ORIENTED_EDGE('',*,*,#331,.F.);
#331 = EDGE_CURVE('',#332,#332,#334,.T.);
#332 = VERTEX_POINT('',#333);
#333 = CARTESIAN_POINT('',(-7.35,-30.,10.));
#334 = CIRCLE('',#335,2.65);
#335 = AXIS2_PLACEMENT_3D('',#336,#337,#338);
#336 = CARTESIAN_POINT('',(-10.,-30.,10.));
#337 = DIRECTION('',(0.,0.,1.));
#338 = DIRECTION('',(1.,0.,0.));
#339 = FACE_BOUND('',#340,.T.);
#340 = EDGE_LOOP('',(#341));
#341 = ORIENTED_EDGE('',*,*,#342,.F.);
#342 = EDGE_CURVE('',#343,#343,#345,.T.);
#343 = VERTEX_POINT('',#344);
#344 = CARTESIAN_POINT('',(-57.,-35.,10.));
#345 = CIRCLE('',#346,3.);
#346 = AXIS2_PLACEMENT_3D('',#347,#348,#349);
#347 = CARTESIAN_POINT('',(-60.,-35.,10.));
#348 = DIRECTION('',(0.,0.,1.));
#349 = DIRECTION('',(1.,0.,0.));
#350 = PLANE('',#351);
#351 = AXIS2_PLACEMENT_3D('',#352,#353,#354);
#352 = CARTESIAN_POINT('',(-33.24934960014,-33.84650934064,10.));
#353 = DIRECTION('',(0.,3.3E-16,1.));
#354 = DIRECTION('',(0.,1.,-3.3E-16));
#355 = ADVANCED_FACE('',(#356),#578,.F.);
#356 = FACE_BOUND('',#357,.F.);
#357 = EDGE_LOOP('',(#358,#367,#375,#473,#479,#480,#481,#577));
#358 = ORIENTED_EDGE('',*,*,#359,.T.);
#359 = EDGE_CURVE('',#286,#360,#362,.T.);
#360 = VERTEX_POINT('',#361);
#361 = CARTESIAN_POINT('',(-67.,-12.,10.));
#362 = CIRCLE('',#363,8.);
#363 = AXIS2_PLACEMENT_3D('',#364,#365,#366);
#364 = CARTESIAN_POINT('',(-67.,-20.,10.));
#365 = DIRECTION('',(1.,0.,0.));
#366 = DIRECTION('',(0.,1.,0.));
#367 = ORIENTED_EDGE('',*,*,#368,.F.);
#368 = EDGE_CURVE('',#369,#360,#371,.T.);
#369 = VERTEX_POINT('',#370);
#370 = CARTESIAN_POINT('',(-14.03112887414,-12.,10.));
#371 = LINE('',#372,#373);
#372 = CARTESIAN_POINT('',(0.,-12.,10.));
#373 = VECTOR('',#374,1.);
#374 = DIRECTION('',(-1.,-0.,-0.));
#375 = ORIENTED_EDGE('',*,*,#376,.T.);
#376 = EDGE_CURVE('',#369,#377,#379,.T.);
#377 = VERTEX_POINT('',#378);
#378 = CARTESIAN_POINT('',(-5.968871125851,-12.,10.));
#379 = B_SPLINE_CURVE_WITH_KNOTS('',8,(#380,#381,#382,#383,#384,#385,
    #386,#387,#388,#389,#390,#391,#392,#393,#394,#395,#396,#397,#398,
    #399,#400,#401,#402,#403,#404,#405,#406,#407,#408,#409,#410,#411,
    #412,#413,#414,#415,#416,#417,#418,#419,#420,#421,#422,#423,#424,
    #425,#426,#427,#428,#429,#430,#431,#432,#433,#434,#435,#436,#437,
    #438,#439,#440,#441,#442,#443,#444,#445,#446,#447,#448,#449,#450,
    #451,#452,#453,#454,#455,#456,#457,#458,#459,#460,#461,#462,#463,
    #464,#465,#466,#467,#468,#469,#470,#471,#472),.UNSPECIFIED.,.F.,.F.,
  (9,7,7,7,7,7,7,7,7,7,7,7,7,9),(0.,0.223009917999,0.271384309488,
    0.298237906993,0.359091191192,0.424078412482,0.499883191873,
    0.551921474531,0.575952241937,0.640699978847,0.70213647409,
    0.72956637177,0.777380555484,1.),.UNSPECIFIED.);
#380 = CARTESIAN_POINT('',(-14.03112887414,-12.,10.));
#381 = CARTESIAN_POINT('',(-14.03112887414,-12.,9.536225974715));
#382 = CARTESIAN_POINT('',(-14.01588398484,-12.03072655117,
    9.071657219302));
#383 = CARTESIAN_POINT('',(-13.98530443294,-12.09236449205,8.60840855285
    ));
#384 = CARTESIAN_POINT('',(-13.9377194179,-12.18497268737,8.148834335904
    ));
#385 = CARTESIAN_POINT('',(-13.86991903131,-12.30836921374,
    7.695859338518));
#386 = CARTESIAN_POINT('',(-13.77690288617,-12.46167341346,7.25307243372
    ));
#387 = CARTESIAN_POINT('',(-13.65168068778,-12.64291230296,
    6.824825404578));
#388 = CARTESIAN_POINT('',(-13.44830650365,-12.89179261208,
    6.328052708711));
#389 = CARTESIAN_POINT('',(-13.41012311745,-12.93720240467,
    6.240541805143));
#390 = CARTESIAN_POINT('',(-13.36994100573,-12.98357707605,
    6.154182608123));
#391 = CARTESIAN_POINT('',(-13.32769401328,-13.03082726879,6.06908164974
    ));
#392 = CARTESIAN_POINT('',(-13.28331687181,-13.07885658818,5.98533944739
    ));
#393 = CARTESIAN_POINT('',(-13.23674535086,-13.12756205051,
    5.903050580868));
#394 = CARTESIAN_POINT('',(-13.18791640868,-13.17683453139,
    5.822303769466));
#395 = CARTESIAN_POINT('',(-13.10837502336,-13.25416238528,
    5.699259835449));
#396 = CARTESIAN_POINT('',(-13.07927119861,-13.2819009494,5.65584491122)
  );
#397 = CARTESIAN_POINT('',(-13.04945095444,-13.30975083,5.61295780267));
#398 = CARTESIAN_POINT('',(-13.01890908571,-13.33768752181,
    5.570618081439));
#399 = CARTESIAN_POINT('',(-12.98764109651,-13.36568609074,
    5.528844264509));
#400 = CARTESIAN_POINT('',(-12.95564320018,-13.39372117383,
    5.487653814203));
#401 = CARTESIAN_POINT('',(-12.92291231932,-13.42176697927,5.44706313819
    ));
#402 = CARTESIAN_POINT('',(-12.8136078217,-13.51331712746,5.316498482148
    ));
#403 = CARTESIAN_POINT('',(-12.73398230547,-13.57676726937,
    5.229054568314));
#404 = CARTESIAN_POINT('',(-12.65058297673,-13.639807873,5.144989129342)
  );
#405 = CARTESIAN_POINT('',(-12.5634574509,-13.70209036582,5.064499278884
    ));
#406 = CARTESIAN_POINT('',(-12.47268850632,-13.76326447732,
    4.987747978506));
#407 = CARTESIAN_POINT('',(-12.37839507145,-13.82298527458,
    4.914866053321));
#408 = CARTESIAN_POINT('',(-12.28073321194,-13.88092019774,4.84595420762
    ));
#409 = CARTESIAN_POINT('',(-12.07221094046,-13.99638508497,
    4.711809125911));
#410 = CARTESIAN_POINT('',(-11.96098407687,-14.05357593436,4.64719556647
    ));
#411 = CARTESIAN_POINT('',(-11.84640895574,-14.10798253297,
    4.587286865006));
#412 = CARTESIAN_POINT('',(-11.72871662592,-14.15927819934,4.53210470343
    ));
#413 = CARTESIAN_POINT('',(-11.60817682332,-14.20716204595,
    4.481652303896));
#414 = CARTESIAN_POINT('',(-11.48509803786,-14.251365344,4.435916789965)
  );
#415 = CARTESIAN_POINT('',(-11.35982758031,-14.29165788813,
    4.394871547761));
#416 = CARTESIAN_POINT('',(-11.0845230785,-14.37007597947,4.31602777455)
  );
#417 = CARTESIAN_POINT('',(-10.93380423418,-14.40673436423,
    4.279896922985));
#418 = CARTESIAN_POINT('',(-10.78097505122,-14.43759639966,
    4.249962630307));
#419 = CARTESIAN_POINT('',(-10.62644206224,-14.46247264132,
    4.226124384151));
#420 = CARTESIAN_POINT('',(-10.4706324401,-14.481219829,4.208304601585)
  );
#421 = CARTESIAN_POINT('',(-10.31398804038,-14.49374339959,
    4.196448668783));
#422 = CARTESIAN_POINT('',(-10.15695944406,-14.5,4.190524980689));
#423 = CARTESIAN_POINT('',(-9.892250858303,-14.5,4.190524980689));
#424 = CARTESIAN_POINT('',(-9.784490134451,-14.49705141256,
    4.193316526866));
#425 = CARTESIAN_POINT('',(-9.676858140792,-14.49115327967,
    4.198900422156));
#426 = CARTESIAN_POINT('',(-9.569493318699,-14.48231505604,
    4.207283691784));
#427 = CARTESIAN_POINT('',(-9.462532178901,-14.47055646828,
    4.218479515857));
#428 = CARTESIAN_POINT('',(-9.35610924182,-14.45590737419,4.232507161959
    ));
#429 = CARTESIAN_POINT('',(-9.250356977902,-14.43840762199,
    4.249391917754));
#430 = CARTESIAN_POINT('',(-9.096940301612,-14.40873224011,
    4.278296049482));
#431 = CARTESIAN_POINT('',(-9.04864882283,-14.39876092245,4.288042346123
    ));
#432 = CARTESIAN_POINT('',(-9.00054545478,-14.38819818603,4.298406691966
    ));
#433 = CARTESIAN_POINT('',(-8.952644488134,-14.37704993745,
    4.309391853146));
#434 = CARTESIAN_POINT('',(-8.904960361064,-14.36532276052,
    4.321000583472));
#435 = CARTESIAN_POINT('',(-8.857507659245,-14.35302391618,
    4.333235624423));
#436 = CARTESIAN_POINT('',(-8.810301115851,-14.34016134259,
    4.346099705148));
#437 = CARTESIAN_POINT('',(-8.636867134943,-14.29059146364,
    4.395958298167));
#438 = CARTESIAN_POINT('',(-8.512176501737,-14.25038178725,
    4.436935151344));
#439 = CARTESIAN_POINT('',(-8.389664721568,-14.20629843076,
    4.482563404886));
#440 = CARTESIAN_POINT('',(-8.269674508352,-14.15856929428,
    4.532869105431));
#441 = CARTESIAN_POINT('',(-8.15251034842,-14.10746012986,4.587864727485
    ));
#442 = CARTESIAN_POINT('',(-8.038438568631,-14.05326829836,
    4.647546857531));
#443 = CARTESIAN_POINT('',(-7.9276874045,-13.99631652613,4.711893878136)
  );
#444 = CARTESIAN_POINT('',(-7.71869107315,-13.88061301124,4.84630626659)
  );
#445 = CARTESIAN_POINT('',(-7.620164196453,-13.82214004056,
    4.915866827445));
#446 = CARTESIAN_POINT('',(-7.525069529517,-13.76185170809,
    4.989467927312));
#447 = CARTESIAN_POINT('',(-7.433567302539,-13.70008986475,
    5.067005890872));
#448 = CARTESIAN_POINT('',(-7.345777577659,-13.63720802719,
    5.148347209666));
#449 = CARTESIAN_POINT('',(-7.261782942006,-13.5735651508,5.233324976949
    ));
#450 = CARTESIAN_POINT('',(-7.181631200741,-13.50951940278,
    5.321735322548));
#451 = CARTESIAN_POINT('',(-7.071275046829,-13.41680397823,
    5.454230356592));
#452 = CARTESIAN_POINT('',(-7.037978453749,-13.38817330813,
    5.495765706534));
#453 = CARTESIAN_POINT('',(-7.005445553733,-13.35955770157,
    5.537923575984));
#454 = CARTESIAN_POINT('',(-6.973672855327,-13.33098446077,
    5.580686507594));
#455 = CARTESIAN_POINT('',(-6.942656112741,-13.30248041347,
    5.624035908232));
#456 = CARTESIAN_POINT('',(-6.912390325858,-13.27407191294,
    5.667952048984));
#457 = CARTESIAN_POINT('',(-6.882869740227,-13.24578483796,
    5.712414065146));
#458 = CARTESIAN_POINT('',(-6.803916944376,-13.16859217333,
    5.835816714698));
#459 = CARTESIAN_POINT('',(-6.75600283488,-13.11999760588,5.915806120668
    ));
#460 = CARTESIAN_POINT('',(-6.710285210923,-13.07197048561,
    5.997288134271));
#461 = CARTESIAN_POINT('',(-6.666702605035,-13.02461493613,
    6.080177304809));
#462 = CARTESIAN_POINT('',(-6.625192527929,-12.97802920344,
    6.164382701506));
#463 = CARTESIAN_POINT('',(-6.58569160649,-12.93230524987,6.24980784425)
  );
#464 = CARTESIAN_POINT('',(-6.548135721767,-12.88752834795,
    6.336350634344));
#465 = CARTESIAN_POINT('',(-6.346357203707,-12.6400719884,6.831542211525
    ));
#466 = CARTESIAN_POINT('',(-6.221846827266,-12.45961180583,
    7.259032122204));
#467 = CARTESIAN_POINT('',(-6.129320944542,-12.30698585311,
    7.700942632235));
#468 = CARTESIAN_POINT('',(-6.061853611042,-12.18414172166,
    8.152961613634));
#469 = CARTESIAN_POINT('',(-6.014489456134,-12.09194909134,
    8.611530824948));
#470 = CARTESIAN_POINT('',(-5.984047249539,-12.03058793787,
    9.073748052496));
#471 = CARTESIAN_POINT('',(-5.968871125851,-12.,9.537273235154));
#472 = CARTESIAN_POINT('',(-5.968871125851,-12.,10.));
#473 = ORIENTED_EDGE('',*,*,#474,.F.);
#474 = EDGE_CURVE('',#32,#377,#475,.T.);
#475 = LINE('',#476,#477);
#476 = CARTESIAN_POINT('',(0.,-12.,10.));
#477 = VECTOR('',#478,1.);
#478 = DIRECTION('',(-1.,-0.,-0.));
#479 = ORIENTED_EDGE('',*,*,#39,.F.);
#480 = ORIENTED_EDGE('',*,*,#303,.F.);
#481 = ORIENTED_EDGE('',*,*,#482,.T.);
#482 = EDGE_CURVE('',#304,#288,#483,.T.);
#483 = B_SPLINE_CURVE_WITH_KNOTS('',8,(#484,#485,#486,#487,#488,#489,
    #490,#491,#492,#493,#494,#495,#496,#497,#498,#499,#500,#501,#502,
    #503,#504,#505,#506,#507,#508,#509,#510,#511,#512,#513,#514,#515,
    #516,#517,#518,#519,#520,#521,#522,#523,#524,#525,#526,#527,#528,
    #529,#530,#531,#532,#533,#534,#535,#536,#537,#538,#539,#540,#541,
    #542,#543,#544,#545,#546,#547,#548,#549,#550,#551,#552,#553,#554,
    #555,#556,#557,#558,#559,#560,#561,#562,#563,#564,#565,#566,#567,
    #568,#569,#570,#571,#572,#573,#574,#575,#576),.UNSPECIFIED.,.F.,.F.,
  (9,7,7,7,7,7,7,7,7,7,7,7,7,9),(0.,0.223009917122,0.271384308421,
    0.29823790582,0.359091189779,0.424078410813,0.499883192069,
    0.551921474563,0.575952241892,0.640699978595,0.702136474961,
    0.729566372557,0.77738055613,1.),.UNSPECIFIED.);
#484 = CARTESIAN_POINT('',(-5.968871125851,-28.,10.));
#485 = CARTESIAN_POINT('',(-5.968871125851,-28.,9.536225974711));
#486 = CARTESIAN_POINT('',(-5.984116015158,-27.96927344882,9.07165721931
    ));
#487 = CARTESIAN_POINT('',(-6.014695567056,-27.90763550793,
    8.608408552837));
#488 = CARTESIAN_POINT('',(-6.062280582092,-27.81502731263,
    8.148834335929));
#489 = CARTESIAN_POINT('',(-6.130080968687,-27.69163078625,
    7.695859338494));
#490 = CARTESIAN_POINT('',(-6.223097113827,-27.53832658653,
    7.253072433726));
#491 = CARTESIAN_POINT('',(-6.34831931221,-27.35708769703,6.824825404583
    ));
#492 = CARTESIAN_POINT('',(-6.55169349634,-27.10820738791,6.328052708712
    ));
#493 = CARTESIAN_POINT('',(-6.589876882548,-27.06279759532,
    6.240541805143));
#494 = CARTESIAN_POINT('',(-6.630058994264,-27.01642292394,
    6.154182608124));
#495 = CARTESIAN_POINT('',(-6.672305986715,-26.9691727312,6.069081649741
    ));
#496 = CARTESIAN_POINT('',(-6.716683128186,-26.92114341181,5.98533944739
    ));
#497 = CARTESIAN_POINT('',(-6.763254649134,-26.87243794948,
    5.903050580869));
#498 = CARTESIAN_POINT('',(-6.812083591311,-26.8231654686,5.822303769467
    ));
#499 = CARTESIAN_POINT('',(-6.891624976633,-26.74583761471,5.69925983545
    ));
#500 = CARTESIAN_POINT('',(-6.920728801387,-26.71809905059,
    5.655844911221));
#501 = CARTESIAN_POINT('',(-6.950549045551,-26.69024916999,
    5.612957802671));
#502 = CARTESIAN_POINT('',(-6.981090914282,-26.66231247818,5.57061808144
    ));
#503 = CARTESIAN_POINT('',(-7.012358903488,-26.63431390925,5.52884426451
    ));
#504 = CARTESIAN_POINT('',(-7.04435679982,-26.60627882616,5.487653814204
    ));
#505 = CARTESIAN_POINT('',(-7.077087680674,-26.57823302072,
    5.447063138191));
#506 = CARTESIAN_POINT('',(-7.186392178291,-26.48668287253,
    5.316498482149));
#507 = CARTESIAN_POINT('',(-7.266017694521,-26.42323273062,
    5.229054568314));
#508 = CARTESIAN_POINT('',(-7.34941702326,-26.36019212699,5.144989129343
    ));
#509 = CARTESIAN_POINT('',(-7.436542549094,-26.29790963418,
    5.064499278885));
#510 = CARTESIAN_POINT('',(-7.527311493671,-26.23673552268,
    4.987747978507));
#511 = CARTESIAN_POINT('',(-7.621604928549,-26.17701472541,
    4.914866053322));
#512 = CARTESIAN_POINT('',(-7.719266788051,-26.11907980225,
    4.845954207621));
#513 = CARTESIAN_POINT('',(-7.927789059532,-26.00361491502,
    4.711809125911));
#514 = CARTESIAN_POINT('',(-8.039015923122,-25.94642406563,
    4.647195566471));
#515 = CARTESIAN_POINT('',(-8.153591044251,-25.89201746702,
    4.587286865007));
#516 = CARTESIAN_POINT('',(-8.271283374079,-25.84072180065,4.53210470343
    ));
#517 = CARTESIAN_POINT('',(-8.391823176677,-25.79283795404,
    4.481652303896));
#518 = CARTESIAN_POINT('',(-8.514901962137,-25.74863465599,
    4.435916789965));
#519 = CARTESIAN_POINT('',(-8.640172419687,-25.70834211187,
    4.394871547761));
#520 = CARTESIAN_POINT('',(-8.915476925721,-25.62992401931,
    4.316027773339));
#521 = CARTESIAN_POINT('',(-9.066195763302,-25.59326563585,
    4.279896923074));
#522 = CARTESIAN_POINT('',(-9.219024944476,-25.56240360121,
    4.249962631183));
#523 = CARTESIAN_POINT('',(-9.373557937793,-25.53752735917,
    4.226124384656));
#524 = CARTESIAN_POINT('',(-9.529367564244,-25.51878017067,
    4.208304601262));
#525 = CARTESIAN_POINT('',(-9.686011962074,-25.50625659981,
    4.196448668192));
#526 = CARTESIAN_POINT('',(-9.843040551594,-25.5,4.190524980689));
#527 = CARTESIAN_POINT('',(-10.10774914168,-25.5,4.190524980689));
#528 = CARTESIAN_POINT('',(-10.21550986554,-25.50294858744,
    4.193316526865));
#529 = CARTESIAN_POINT('',(-10.32314185921,-25.50884672032,
    4.198900422156));
#530 = CARTESIAN_POINT('',(-10.4305066813,-25.51768494395,4.207283691785
    ));
#531 = CARTESIAN_POINT('',(-10.5374678211,-25.52944353171,4.218479515857
    ));
#532 = CARTESIAN_POINT('',(-10.64389075817,-25.5440926258,4.232507161959
    ));
#533 = CARTESIAN_POINT('',(-10.74964302209,-25.561592378,4.249391917753)
  );
#534 = CARTESIAN_POINT('',(-10.90305969838,-25.59126775988,
    4.278296049482));
#535 = CARTESIAN_POINT('',(-10.95135117717,-25.60123907754,
    4.288042346123));
#536 = CARTESIAN_POINT('',(-10.99945454522,-25.61180181396,
    4.298406691966));
#537 = CARTESIAN_POINT('',(-11.04735551186,-25.62295006254,
    4.309391853146));
#538 = CARTESIAN_POINT('',(-11.09503963893,-25.63467723947,
    4.321000583472));
#539 = CARTESIAN_POINT('',(-11.14249234075,-25.64697608381,
    4.333235624423));
#540 = CARTESIAN_POINT('',(-11.18969888414,-25.6598386574,4.346099705148
    ));
#541 = CARTESIAN_POINT('',(-11.36313286505,-25.70940853636,
    4.395958298167));
#542 = CARTESIAN_POINT('',(-11.48782349826,-25.74961821274,
    4.436935151344));
#543 = CARTESIAN_POINT('',(-11.61033527843,-25.79370156923,
    4.482563404886));
#544 = CARTESIAN_POINT('',(-11.73032549164,-25.84143070572,
    4.532869105431));
#545 = CARTESIAN_POINT('',(-11.84748965158,-25.89253987013,
    4.587864727485));
#546 = CARTESIAN_POINT('',(-11.96156143136,-25.94673170163,
    4.647546857531));
#547 = CARTESIAN_POINT('',(-12.0723125955,-26.00368347386,4.711893878136
    ));
#548 = CARTESIAN_POINT('',(-12.28130892903,-26.11938698997,
    4.846306267996));
#549 = CARTESIAN_POINT('',(-12.37983580253,-26.17785995863,
    4.915866826337));
#550 = CARTESIAN_POINT('',(-12.4749304684,-26.23814829062,4.989467925724
    ));
#551 = CARTESIAN_POINT('',(-12.56643269722,-26.29991013531,
    5.067005891106));
#552 = CARTESIAN_POINT('',(-12.65422242415,-26.36279197416,
    5.148347211513));
#553 = CARTESIAN_POINT('',(-12.73821705923,-26.42643484993,
    5.233324977835));
#554 = CARTESIAN_POINT('',(-12.81836879763,-26.49048059585,
    5.321735320594));
#555 = CARTESIAN_POINT('',(-12.92872495317,-26.58319602176,
    5.454230356592));
#556 = CARTESIAN_POINT('',(-12.96202154625,-26.61182669186,
    5.495765706535));
#557 = CARTESIAN_POINT('',(-12.99455444626,-26.64044229842,
    5.537923575984));
#558 = CARTESIAN_POINT('',(-13.02632714467,-26.66901553922,
    5.580686507594));
#559 = CARTESIAN_POINT('',(-13.05734388725,-26.69751958652,
    5.624035908232));
#560 = CARTESIAN_POINT('',(-13.08760967414,-26.72592808705,
    5.667952048984));
#561 = CARTESIAN_POINT('',(-13.11713025977,-26.75421516203,
    5.712414065146));
#562 = CARTESIAN_POINT('',(-13.19608305562,-26.83140782667,
    5.835816714705));
#563 = CARTESIAN_POINT('',(-13.24399716512,-26.88000239412,
    5.915806120671));
#564 = CARTESIAN_POINT('',(-13.28971478907,-26.92802951438,
    5.997288134268));
#565 = CARTESIAN_POINT('',(-13.33329739496,-26.97538506386,
    6.080177304803));
#566 = CARTESIAN_POINT('',(-13.37480747206,-27.02197079655,
    6.164382701502));
#567 = CARTESIAN_POINT('',(-13.41430839351,-27.06769475012,
    6.249807844252));
#568 = CARTESIAN_POINT('',(-13.45186427823,-27.11247165204,
    6.336350634351));
#569 = CARTESIAN_POINT('',(-13.65364279629,-27.35992801159,
    6.831542211517));
#570 = CARTESIAN_POINT('',(-13.77815317274,-27.54038819417,
    7.259032122216));
#571 = CARTESIAN_POINT('',(-13.87067905545,-27.69301414688,
    7.700942632219));
#572 = CARTESIAN_POINT('',(-13.93814638896,-27.81585827834,
    8.152961613664));
#573 = CARTESIAN_POINT('',(-13.98551054386,-27.90805090865,
    8.611530824917));
#574 = CARTESIAN_POINT('',(-14.01595275046,-27.96941206212,
    9.073748052509));
#575 = CARTESIAN_POINT('',(-14.03112887414,-28.,9.537273235154));
#576 = CARTESIAN_POINT('',(-14.03112887414,-28.,10.));
#577 = ORIENTED_EDGE('',*,*,#285,.F.);
#578 = CYLINDRICAL_SURFACE('',#579,8.);
#579 = AXIS2_PLACEMENT_3D('',#580,#581,#582);
#580 = CARTESIAN_POINT('',(0.,-20.,10.));
#581 = DIRECTION('',(1.,0.,0.));
#582 = DIRECTION('',(0.,1.,0.));
#583 = ADVANCED_FACE('',(#584,#603,#614,#625),#636,.T.);
#584 = FACE_BOUND('',#585,.T.);
#585 = EDGE_LOOP('',(#586,#587,#593,#594,#601,#602));
#586 = ORIENTED_EDGE('',*,*,#110,.F.);
#587 = ORIENTED_EDGE('',*,*,#588,.T.);
#588 = EDGE_CURVE('',#103,#360,#589,.T.);
#589 = LINE('',#590,#591);
#590 = CARTESIAN_POINT('',(-67.,2.22E-15,10.));
#591 = VECTOR('',#592,1.);
#592 = DIRECTION('',(0.,-1.,2.2E-16));
#593 = ORIENTED_EDGE('',*,*,#368,.F.);
#594 = ORIENTED_EDGE('',*,*,#595,.T.);
#595 = EDGE_CURVE('',#369,#377,#596,.T.);
#596 = CIRCLE('',#597,4.5);
#597 = AXIS2_PLACEMENT_3D('',#598,#599,#600);
#598 = CARTESIAN_POINT('',(-10.,-10.,10.));
#599 = DIRECTION('',(0.,0.,1.));
#600 = DIRECTION('',(1.,0.,0.));
#601 = ORIENTED_EDGE('',*,*,#474,.F.);
#602 = ORIENTED_EDGE('',*,*,#31,.F.);
#603 = FACE_BOUND('',#604,.T.);
#604 = EDGE_LOOP('',(#605));
#605 = ORIENTED_EDGE('',*,*,#606,.F.);
#606 = EDGE_CURVE('',#607,#607,#609,.T.);
#607 = VERTEX_POINT('',#608);
#608 = CARTESIAN_POINT('',(-7.35,-10.,10.));
#609 = CIRCLE('',#610,2.65);
#610 = AXIS2_PLACEMENT_3D('',#611,#612,#613);
#611 = CARTESIAN_POINT('',(-10.,-10.,10.));
#612 = DIRECTION('',(0.,0.,1.));
#613 = DIRECTION('',(1.,0.,0.));
#614 = FACE_BOUND('',#615,.T.);
#615 = EDGE_LOOP('',(#616));
#616 = ORIENTED_EDGE('',*,*,#617,.F.);
#617 = EDGE_CURVE('',#618,#618,#620,.T.);
#618 = VERTEX_POINT('',#619);
#619 = CARTESIAN_POINT('',(-27.,-5.,10.));
#620 = CIRCLE('',#621,3.);
#621 = AXIS2_PLACEMENT_3D('',#622,#623,#624);
#622 = CARTESIAN_POINT('',(-30.,-5.,10.));
#623 = DIRECTION('',(0.,0.,1.));
#624 = DIRECTION('',(1.,0.,0.));
#625 = FACE_BOUND('',#626,.T.);
#626 = EDGE_LOOP('',(#627));
#627 = ORIENTED_EDGE('',*,*,#628,.F.);
#628 = EDGE_CURVE('',#629,#629,#631,.T.);
#629 = VERTEX_POINT('',#630);
#630 = CARTESIAN_POINT('',(-57.,-5.,10.));
#631 = CIRCLE('',#632,3.);
#632 = AXIS2_PLACEMENT_3D('',#633,#634,#635);
#633 = CARTESIAN_POINT('',(-60.,-5.,10.));
#634 = DIRECTION('',(0.,0.,1.));
#635 = DIRECTION('',(1.,0.,0.));
#636 = PLANE('',#637);
#637 = AXIS2_PLACEMENT_3D('',#638,#639,#640);
#638 = CARTESIAN_POINT('',(-33.24934960014,-6.153490659358,10.));
#639 = DIRECTION('',(0.,2.5E-16,1.));
#640 = DIRECTION('',(0.,1.,-2.5E-16));
#641 = ADVANCED_FACE('',(#642,#667,#678),#689,.T.);
#642 = FACE_BOUND('',#643,.T.);
#643 = EDGE_LOOP('',(#644,#645,#651,#652,#658,#659,#660,#666));
#644 = ORIENTED_EDGE('',*,*,#187,.T.);
#645 = ORIENTED_EDGE('',*,*,#646,.T.);
#646 = EDGE_CURVE('',#179,#162,#647,.T.);
#647 = LINE('',#648,#649);
#648 = CARTESIAN_POINT('',(-62.,0.,0.));
#649 = VECTOR('',#650,1.);
#650 = DIRECTION('',(0.,-1.,2.2E-16));
#651 = ORIENTED_EDGE('',*,*,#161,.T.);
#652 = ORIENTED_EDGE('',*,*,#653,.T.);
#653 = EDGE_CURVE('',#153,#136,#654,.T.);
#654 = LINE('',#655,#656);
#655 = CARTESIAN_POINT('',(-62.,0.,0.));
#656 = VECTOR('',#657,1.);
#657 = DIRECTION('',(0.,-1.,2.2E-16));
#658 = ORIENTED_EDGE('',*,*,#135,.T.);
#659 = ORIENTED_EDGE('',*,*,#246,.T.);
#660 = ORIENTED_EDGE('',*,*,#661,.F.);
#661 = EDGE_CURVE('',#87,#247,#662,.T.);
#662 = LINE('',#663,#664);
#663 = CARTESIAN_POINT('',(-62.,-4.44E-15,-20.));
#664 = VECTOR('',#665,1.);
#665 = DIRECTION('',(0.,-1.,2.2E-16));
#666 = ORIENTED_EDGE('',*,*,#86,.F.);
#667 = FACE_BOUND('',#668,.T.);
#668 = EDGE_LOOP('',(#669));
#669 = ORIENTED_EDGE('',*,*,#670,.F.);
#670 = EDGE_CURVE('',#671,#671,#673,.T.);
#671 = VERTEX_POINT('',#672);
#672 = CARTESIAN_POINT('',(-62.,-26.85,-10.));
#673 = CIRCLE('',#674,3.15);
#674 = AXIS2_PLACEMENT_3D('',#675,#676,#677);
#675 = CARTESIAN_POINT('',(-62.,-30.,-10.));
#676 = DIRECTION('',(1.,0.,0.));
#677 = DIRECTION('',(0.,1.,0.));
#678 = FACE_BOUND('',#679,.T.);
#679 = EDGE_LOOP('',(#680));
#680 = ORIENTED_EDGE('',*,*,#681,.F.);
#681 = EDGE_CURVE('',#682,#682,#684,.T.);
#682 = VERTEX_POINT('',#683);
#683 = CARTESIAN_POINT('',(-62.,-6.85,-10.));
#684 = CIRCLE('',#685,3.15);
#685 = AXIS2_PLACEMENT_3D('',#686,#687,#688);
#686 = CARTESIAN_POINT('',(-62.,-10.,-10.));
#687 = DIRECTION('',(1.,0.,0.));
#688 = DIRECTION('',(0.,1.,0.));
#689 = PLANE('',#690);
#690 = AXIS2_PLACEMENT_3D('',#691,#692,#693);
#691 = CARTESIAN_POINT('',(-62.,0.,0.));
#692 = DIRECTION('',(1.,0.,0.));
#693 = DIRECTION('',(0.,-2.2E-16,-1.));
#694 = ADVANCED_FACE('',(#695),#706,.T.);
#695 = FACE_BOUND('',#696,.T.);
#696 = EDGE_LOOP('',(#697,#698,#699,#705));
#697 = ORIENTED_EDGE('',*,*,#661,.T.);
#698 = ORIENTED_EDGE('',*,*,#254,.T.);
#699 = ORIENTED_EDGE('',*,*,#700,.F.);
#700 = EDGE_CURVE('',#95,#255,#701,.T.);
#701 = LINE('',#702,#703);
#702 = CARTESIAN_POINT('',(-67.,-4.44E-15,-20.));
#703 = VECTOR('',#704,1.);
#704 = DIRECTION('',(0.,-1.,2.2E-16));
#705 = ORIENTED_EDGE('',*,*,#94,.F.);
#706 = PLANE('',#707);
#707 = AXIS2_PLACEMENT_3D('',#708,#709,#710);
#708 = CARTESIAN_POINT('',(-62.,-4.44E-15,-20.));
#709 = DIRECTION('',(-0.,-2.2E-16,-1.));
#710 = DIRECTION('',(-1.,0.,0.));
#711 = ADVANCED_FACE('',(#712,#720,#731),#742,.T.);
#712 = FACE_BOUND('',#713,.T.);
#713 = EDGE_LOOP('',(#714,#715,#716,#717,#718,#719));
#714 = ORIENTED_EDGE('',*,*,#102,.F.);
#715 = ORIENTED_EDGE('',*,*,#700,.T.);
#716 = ORIENTED_EDGE('',*,*,#262,.T.);
#717 = ORIENTED_EDGE('',*,*,#295,.F.);
#718 = ORIENTED_EDGE('',*,*,#359,.T.);
#719 = ORIENTED_EDGE('',*,*,#588,.F.);
#720 = FACE_BOUND('',#721,.T.);
#721 = EDGE_LOOP('',(#722));
#722 = ORIENTED_EDGE('',*,*,#723,.T.);
#723 = EDGE_CURVE('',#724,#724,#726,.T.);
#724 = VERTEX_POINT('',#725);
#725 = CARTESIAN_POINT('',(-67.,-26.85,-10.));
#726 = CIRCLE('',#727,3.15);
#727 = AXIS2_PLACEMENT_3D('',#728,#729,#730);
#728 = CARTESIAN_POINT('',(-67.,-30.,-10.));
#729 = DIRECTION('',(1.,0.,0.));
#730 = DIRECTION('',(0.,1.,0.));
#731 = FACE_BOUND('',#732,.T.);
#732 = EDGE_LOOP('',(#733));
#733 = ORIENTED_EDGE('',*,*,#734,.T.);
#734 = EDGE_CURVE('',#735,#735,#737,.T.);
#735 = VERTEX_POINT('',#736);
#736 = CARTESIAN_POINT('',(-67.,-6.85,-10.));
#737 = CIRCLE('',#738,3.15);
#738 = AXIS2_PLACEMENT_3D('',#739,#740,#741);
#739 = CARTESIAN_POINT('',(-67.,-10.,-10.));
#740 = DIRECTION('',(1.,0.,0.));
#741 = DIRECTION('',(0.,1.,0.));
#742 = PLANE('',#743);
#743 = AXIS2_PLACEMENT_3D('',#744,#745,#746);
#744 = CARTESIAN_POINT('',(-67.,-4.44E-15,-20.));
#745 = DIRECTION('',(-1.,0.,0.));
#746 = DIRECTION('',(0.,2.2E-16,1.));
#747 = ADVANCED_FACE('',(#748),#767,.F.);
#748 = FACE_BOUND('',#749,.F.);
#749 = EDGE_LOOP('',(#750,#756,#757,#758,#759,#766));
#750 = ORIENTED_EDGE('',*,*,#751,.F.);
#751 = EDGE_CURVE('',#629,#170,#752,.T.);
#752 = LINE('',#753,#754);
#753 = CARTESIAN_POINT('',(-57.,-5.,10.));
#754 = VECTOR('',#755,1.);
#755 = DIRECTION('',(-0.,-0.,-1.));
#756 = ORIENTED_EDGE('',*,*,#628,.F.);
#757 = ORIENTED_EDGE('',*,*,#751,.T.);
#758 = ORIENTED_EDGE('',*,*,#178,.T.);
#759 = ORIENTED_EDGE('',*,*,#760,.T.);
#760 = EDGE_CURVE('',#179,#162,#761,.T.);
#761 = CIRCLE('',#762,3.);
#762 = AXIS2_PLACEMENT_3D('',#763,#764,#765);
#763 = CARTESIAN_POINT('',(-60.,-5.,5.33E-15));
#764 = DIRECTION('',(0.,0.,1.));
#765 = DIRECTION('',(1.,0.,0.));
#766 = ORIENTED_EDGE('',*,*,#169,.T.);
#767 = CYLINDRICAL_SURFACE('',#768,3.);
#768 = AXIS2_PLACEMENT_3D('',#769,#770,#771);
#769 = CARTESIAN_POINT('',(-60.,-5.,10.));
#770 = DIRECTION('',(0.,0.,1.));
#771 = DIRECTION('',(1.,0.,0.));
#772 = ADVANCED_FACE('',(#773),#792,.F.);
#773 = FACE_BOUND('',#774,.F.);
#774 = EDGE_LOOP('',(#775,#781,#782,#783,#784,#791));
#775 = ORIENTED_EDGE('',*,*,#776,.F.);
#776 = EDGE_CURVE('',#343,#144,#777,.T.);
#777 = LINE('',#778,#779);
#778 = CARTESIAN_POINT('',(-57.,-35.,10.));
#779 = VECTOR('',#780,1.);
#780 = DIRECTION('',(-0.,-0.,-1.));
#781 = ORIENTED_EDGE('',*,*,#342,.F.);
#782 = ORIENTED_EDGE('',*,*,#776,.T.);
#783 = ORIENTED_EDGE('',*,*,#152,.T.);
#784 = ORIENTED_EDGE('',*,*,#785,.T.);
#785 = EDGE_CURVE('',#153,#136,#786,.T.);
#786 = CIRCLE('',#787,3.);
#787 = AXIS2_PLACEMENT_3D('',#788,#789,#790);
#788 = CARTESIAN_POINT('',(-60.,-35.,5.33E-15));
#789 = DIRECTION('',(0.,0.,1.));
#790 = DIRECTION('',(1.,0.,0.));
#791 = ORIENTED_EDGE('',*,*,#143,.T.);
#792 = CYLINDRICAL_SURFACE('',#793,3.);
#793 = AXIS2_PLACEMENT_3D('',#794,#795,#796);
#794 = CARTESIAN_POINT('',(-60.,-35.,10.));
#795 = DIRECTION('',(0.,0.,1.));
#796 = DIRECTION('',(1.,0.,0.));
#797 = ADVANCED_FACE('',(#798),#809,.F.);
#798 = FACE_BOUND('',#799,.F.);
#799 = EDGE_LOOP('',(#800,#806,#807,#808));
#800 = ORIENTED_EDGE('',*,*,#801,.F.);
#801 = EDGE_CURVE('',#332,#196,#802,.T.);
#802 = LINE('',#803,#804);
#803 = CARTESIAN_POINT('',(-7.35,-30.,10.));
#804 = VECTOR('',#805,1.);
#805 = DIRECTION('',(-0.,-0.,-1.));
#806 = ORIENTED_EDGE('',*,*,#331,.F.);
#807 = ORIENTED_EDGE('',*,*,#801,.T.);
#808 = ORIENTED_EDGE('',*,*,#195,.T.);
#809 = CYLINDRICAL_SURFACE('',#810,2.65);
#810 = AXIS2_PLACEMENT_3D('',#811,#812,#813);
#811 = CARTESIAN_POINT('',(-10.,-30.,10.));
#812 = DIRECTION('',(0.,0.,1.));
#813 = DIRECTION('',(1.,0.,0.));
#814 = ADVANCED_FACE('',(#815),#826,.F.);
#815 = FACE_BOUND('',#816,.T.);
#816 = EDGE_LOOP('',(#817,#823,#824,#825));
#817 = ORIENTED_EDGE('',*,*,#818,.F.);
#818 = EDGE_CURVE('',#321,#207,#819,.T.);
#819 = LINE('',#820,#821);
#820 = CARTESIAN_POINT('',(-26.7,-35.,10.));
#821 = VECTOR('',#822,1.);
#822 = DIRECTION('',(-5.E-17,0.,-1.));
#823 = ORIENTED_EDGE('',*,*,#320,.T.);
#824 = ORIENTED_EDGE('',*,*,#818,.T.);
#825 = ORIENTED_EDGE('',*,*,#206,.F.);
#826 = CYLINDRICAL_SURFACE('',#827,3.3);
#827 = AXIS2_PLACEMENT_3D('',#828,#829,#830);
#828 = CARTESIAN_POINT('',(-30.,-35.,10.));
#829 = DIRECTION('',(-0.,-0.,-1.));
#830 = DIRECTION('',(1.,0.,0.));
#831 = ADVANCED_FACE('',(#832),#843,.F.);
#832 = FACE_BOUND('',#833,.F.);
#833 = EDGE_LOOP('',(#834,#840,#841,#842));
#834 = ORIENTED_EDGE('',*,*,#835,.F.);
#835 = EDGE_CURVE('',#607,#218,#836,.T.);
#836 = LINE('',#837,#838);
#837 = CARTESIAN_POINT('',(-7.35,-10.,10.));
#838 = VECTOR('',#839,1.);
#839 = DIRECTION('',(-0.,-0.,-1.));
#840 = ORIENTED_EDGE('',*,*,#606,.F.);
#841 = ORIENTED_EDGE('',*,*,#835,.T.);
#842 = ORIENTED_EDGE('',*,*,#217,.T.);
#843 = CYLINDRICAL_SURFACE('',#844,2.65);
#844 = AXIS2_PLACEMENT_3D('',#845,#846,#847);
#845 = CARTESIAN_POINT('',(-10.,-10.,10.));
#846 = DIRECTION('',(0.,0.,1.));
#847 = DIRECTION('',(1.,0.,0.));
#848 = ADVANCED_FACE('',(#849),#860,.F.);
#849 = FACE_BOUND('',#850,.F.);
#850 = EDGE_LOOP('',(#851,#857,#858,#859));
#851 = ORIENTED_EDGE('',*,*,#852,.F.);
#852 = EDGE_CURVE('',#618,#229,#853,.T.);
#853 = LINE('',#854,#855);
#854 = CARTESIAN_POINT('',(-27.,-5.,10.));
#855 = VECTOR('',#856,1.);
#856 = DIRECTION('',(-0.,-0.,-1.));
#857 = ORIENTED_EDGE('',*,*,#617,.F.);
#858 = ORIENTED_EDGE('',*,*,#852,.T.);
#859 = ORIENTED_EDGE('',*,*,#228,.T.);
#860 = CYLINDRICAL_SURFACE('',#861,3.);
#861 = AXIS2_PLACEMENT_3D('',#862,#863,#864);
#862 = CARTESIAN_POINT('',(-30.,-5.,10.));
#863 = DIRECTION('',(0.,0.,1.));
#864 = DIRECTION('',(1.,0.,0.));
#865 = ADVANCED_FACE('',(#866),#870,.T.);
#866 = FACE_BOUND('',#867,.T.);
#867 = EDGE_LOOP('',(#868,#869));
#868 = ORIENTED_EDGE('',*,*,#311,.F.);
#869 = ORIENTED_EDGE('',*,*,#482,.T.);
#870 = CYLINDRICAL_SURFACE('',#871,4.5);
#871 = AXIS2_PLACEMENT_3D('',#872,#873,#874);
#872 = CARTESIAN_POINT('',(-10.,-30.,10.));
#873 = DIRECTION('',(0.,0.,1.));
#874 = DIRECTION('',(1.,0.,0.));
#875 = ADVANCED_FACE('',(#876),#880,.T.);
#876 = FACE_BOUND('',#877,.T.);
#877 = EDGE_LOOP('',(#878,#879));
#878 = ORIENTED_EDGE('',*,*,#595,.F.);
#879 = ORIENTED_EDGE('',*,*,#376,.T.);
#880 = CYLINDRICAL_SURFACE('',#881,4.5);
#881 = AXIS2_PLACEMENT_3D('',#882,#883,#884);
#882 = CARTESIAN_POINT('',(-10.,-10.,10.));
#883 = DIRECTION('',(0.,0.,1.));
#884 = DIRECTION('',(1.,0.,0.));
#885 = ADVANCED_FACE('',(#886),#890,.F.);
#886 = FACE_BOUND('',#887,.F.);
#887 = EDGE_LOOP('',(#888,#889));
#888 = ORIENTED_EDGE('',*,*,#760,.F.);
#889 = ORIENTED_EDGE('',*,*,#646,.T.);
#890 = PLANE('',#891);
#891 = AXIS2_PLACEMENT_3D('',#892,#893,#894);
#892 = CARTESIAN_POINT('',(-31.,-20.,4.44E-15));
#893 = DIRECTION('',(-0.,-0.,-1.));
#894 = DIRECTION('',(-1.,0.,0.));
#895 = ADVANCED_FACE('',(#896),#900,.F.);
#896 = FACE_BOUND('',#897,.F.);
#897 = EDGE_LOOP('',(#898,#899));
#898 = ORIENTED_EDGE('',*,*,#785,.F.);
#899 = ORIENTED_EDGE('',*,*,#653,.T.);
#900 = PLANE('',#901);
#901 = AXIS2_PLACEMENT_3D('',#902,#903,#904);
#902 = CARTESIAN_POINT('',(-31.,-20.,4.44E-15));
#903 = DIRECTION('',(-0.,-0.,-1.));
#904 = DIRECTION('',(-1.,0.,0.));
#905 = ADVANCED_FACE('',(#906),#917,.F.);
#906 = FACE_BOUND('',#907,.F.);
#907 = EDGE_LOOP('',(#908,#909,#915,#916));
#908 = ORIENTED_EDGE('',*,*,#670,.F.);
#909 = ORIENTED_EDGE('',*,*,#910,.T.);
#910 = EDGE_CURVE('',#671,#724,#911,.T.);
#911 = LINE('',#912,#913);
#912 = CARTESIAN_POINT('',(-62.,-26.85,-10.));
#913 = VECTOR('',#914,1.);
#914 = DIRECTION('',(-1.,-0.,-0.));
#915 = ORIENTED_EDGE('',*,*,#723,.T.);
#916 = ORIENTED_EDGE('',*,*,#910,.F.);
#917 = CYLINDRICAL_SURFACE('',#918,3.15);
#918 = AXIS2_PLACEMENT_3D('',#919,#920,#921);
#919 = CARTESIAN_POINT('',(-62.,-30.,-10.));
#920 = DIRECTION('',(1.,0.,0.));
#921 = DIRECTION('',(0.,1.,0.));
#922 = ADVANCED_FACE('',(#923),#934,.F.);
#923 = FACE_BOUND('',#924,.F.);
#924 = EDGE_LOOP('',(#925,#926,#932,#933));
#925 = ORIENTED_EDGE('',*,*,#681,.F.);
#926 = ORIENTED_EDGE('',*,*,#927,.T.);
#927 = EDGE_CURVE('',#682,#735,#928,.T.);
#928 = LINE('',#929,#930);
#929 = CARTESIAN_POINT('',(-62.,-6.85,-10.));
#930 = VECTOR('',#931,1.);
#931 = DIRECTION('',(-1.,-0.,-0.));
#932 = ORIENTED_EDGE('',*,*,#734,.T.);
#933 = ORIENTED_EDGE('',*,*,#927,.F.);
#934 = CYLINDRICAL_SURFACE('',#935,3.15);
#935 = AXIS2_PLACEMENT_3D('',#936,#937,#938);
#936 = CARTESIAN_POINT('',(-62.,-10.,-10.));
#937 = DIRECTION('',(1.,0.,0.));
#938 = DIRECTION('',(0.,1.,0.));
#939 = ( GEOMETRIC_REPRESENTATION_CONTEXT(3) 
GLOBAL_UNCERTAINTY_ASSIGNED_CONTEXT((#943)) GLOBAL_UNIT_ASSIGNED_CONTEXT
((#940,#941,#942)) REPRESENTATION_CONTEXT('Context #1',
  '3D Context with UNIT and UNCERTAINTY') );
#940 = ( LENGTH_UNIT() NAMED_UNIT(*) SI_UNIT(.MILLI.,.METRE.) );
#941 = ( NAMED_UNIT(*) PLANE_ANGLE_UNIT() SI_UNIT($,.RADIAN.) );
#942 = ( NAMED_UNIT(*) SI_UNIT($,.STERADIAN.) SOLID_ANGLE_UNIT() );
#943 = UNCERTAINTY_MEASURE_WITH_UNIT(LENGTH_MEASURE(1.E-07),#940,
  'distance_accuracy_value','confusion accuracy');
#944 = PRODUCT_RELATED_PRODUCT_CATEGORY('part',$,(#7));
#945 = MECHANICAL_DESIGN_GEOMETRIC_PRESENTATION_REPRESENTATION('',(#946)
  ,#939);
#946 = STYLED_ITEM('color',(#947),#15);
#947 = PRESENTATION_STYLE_ASSIGNMENT((#948,#954));
#948 = SURFACE_STYLE_USAGE(.BOTH.,#949);
#949 = SURFACE_SIDE_STYLE('',(#950));
#950 = SURFACE_STYLE_FILL_AREA(#951);
#951 = FILL_AREA_STYLE('',(#952));
#952 = FILL_AREA_STYLE_COLOUR('',#953);
#953 = COLOUR_RGB('',0.,0.666666687201,1.);
#954 = CURVE_STYLE('',#955,POSITIVE_LENGTH_MEASURE(0.1),#956);
#955 = DRAUGHTING_PRE_DEFINED_CURVE_FONT('continuous');
#956 = COLOUR_RGB('',9.803921802644E-02,9.803921802644E-02,
  9.803921802644E-02);
ENDSEC;
END-ISO-10303-21;
