ISO-10303-21;
HEADER;
FILE_DESCRIPTION(('FreeCAD Model'),'2;1');
FILE_NAME('Open CASCADE Shape Model','2026-08-30T13:47:14',('Author'),(
    ''),'Open CASCADE STEP processor 7.8','FreeCAD','Unknown');
FILE_SCHEMA(('AUTOMOTIVE_DESIGN { 1 0 10303 214 1 1 1 1 }'));
ENDSEC;
DATA;
#1 = APPLICATION_PROTOCOL_DEFINITION('international standard',
  'automotive_design',2000,#2);
#2 = APPLICATION_CONTEXT(
  'core data for automotive mechanical design processes');
#3 = SHAPE_DEFINITION_REPRESENTATION(#4,#10);
#4 = PRODUCT_DEFINITION_SHAPE('','',#5);
#5 = PRODUCT_DEFINITION('design','',#6,#9);
#6 = PRODUCT_DEFINITION_FORMATION('','',#7);
#7 = PRODUCT('Spring retention 1','Spring retention 1','',(#8));
#8 = PRODUCT_CONTEXT('',#2,'mechanical');
#9 = PRODUCT_DEFINITION_CONTEXT('part definition',#2,'design');
#10 = ADVANCED_BREP_SHAPE_REPRESENTATION('',(#11,#15),#505);
#11 = AXIS2_PLACEMENT_3D('',#12,#13,#14);
#12 = CARTESIAN_POINT('',(0.,0.,0.));
#13 = DIRECTION('',(0.,0.,1.));
#14 = DIRECTION('',(1.,0.,-0.));
#15 = MANIFOLD_SOLID_BREP('',#16);
#16 = CLOSED_SHELL('',(#17,#57,#90,#123,#218,#324,#341,#358,#375,#392,
    #404,#421,#438,#455,#472,#496));
#17 = ADVANCED_FACE('',(#18),#52,.F.);
#18 = FACE_BOUND('',#19,.F.);
#19 = EDGE_LOOP('',(#20,#30,#38,#46));
#20 = ORIENTED_EDGE('',*,*,#21,.T.);
#21 = EDGE_CURVE('',#22,#24,#26,.T.);
#22 = VERTEX_POINT('',#23);
#23 = CARTESIAN_POINT('',(-20.,-4.E-15,-19.5));
#24 = VERTEX_POINT('',#25);
#25 = CARTESIAN_POINT('',(-20.,-3.,-19.5));
#26 = LINE('',#27,#28);
#27 = CARTESIAN_POINT('',(-20.,-4.33E-15,-19.5));
#28 = VECTOR('',#29,1.);
#29 = DIRECTION('',(0.,-1.,2.2E-16));
#30 = ORIENTED_EDGE('',*,*,#31,.T.);
#31 = EDGE_CURVE('',#24,#32,#34,.T.);
#32 = VERTEX_POINT('',#33);
#33 = CARTESIAN_POINT('',(20.,-3.,-19.5));
#34 = LINE('',#35,#36);
#35 = CARTESIAN_POINT('',(-20.,-3.,-19.5));
#36 = VECTOR('',#37,1.);
#37 = DIRECTION('',(1.,0.,0.));
#38 = ORIENTED_EDGE('',*,*,#39,.F.);
#39 = EDGE_CURVE('',#40,#32,#42,.T.);
#40 = VERTEX_POINT('',#41);
#41 = CARTESIAN_POINT('',(20.,-4.E-15,-19.5));
#42 = LINE('',#43,#44);
#43 = CARTESIAN_POINT('',(20.,-4.33E-15,-19.5));
#44 = VECTOR('',#45,1.);
#45 = DIRECTION('',(0.,-1.,2.2E-16));
#46 = ORIENTED_EDGE('',*,*,#47,.F.);
#47 = EDGE_CURVE('',#22,#40,#48,.T.);
#48 = LINE('',#49,#50);
#49 = CARTESIAN_POINT('',(-20.,0.,-19.5));
#50 = VECTOR('',#51,1.);
#51 = DIRECTION('',(1.,0.,0.));
#52 = PLANE('',#53);
#53 = AXIS2_PLACEMENT_3D('',#54,#55,#56);
#54 = CARTESIAN_POINT('',(-20.,-4.33E-15,-19.5));
#55 = DIRECTION('',(0.,2.2E-16,1.));
#56 = DIRECTION('',(1.,0.,0.));
#57 = ADVANCED_FACE('',(#58),#85,.T.);
#58 = FACE_BOUND('',#59,.F.);
#59 = EDGE_LOOP('',(#60,#70,#77,#78));
#60 = ORIENTED_EDGE('',*,*,#61,.T.);
#61 = EDGE_CURVE('',#62,#64,#66,.T.);
#62 = VERTEX_POINT('',#63);
#63 = CARTESIAN_POINT('',(-25.,-3.E-15,-14.5));
#64 = VERTEX_POINT('',#65);
#65 = CARTESIAN_POINT('',(-25.,-3.,-14.5));
#66 = LINE('',#67,#68);
#67 = CARTESIAN_POINT('',(-25.,-3.22E-15,-14.5));
#68 = VECTOR('',#69,1.);
#69 = DIRECTION('',(0.,-1.,2.2E-16));
#70 = ORIENTED_EDGE('',*,*,#71,.T.);
#71 = EDGE_CURVE('',#64,#24,#72,.T.);
#72 = CIRCLE('',#73,5.);
#73 = AXIS2_PLACEMENT_3D('',#74,#75,#76);
#74 = CARTESIAN_POINT('',(-20.,-3.,-14.5));
#75 = DIRECTION('',(0.,-1.,0.));
#76 = DIRECTION('',(1.,0.,0.));
#77 = ORIENTED_EDGE('',*,*,#21,.F.);
#78 = ORIENTED_EDGE('',*,*,#79,.F.);
#79 = EDGE_CURVE('',#62,#22,#80,.T.);
#80 = CIRCLE('',#81,5.);
#81 = AXIS2_PLACEMENT_3D('',#82,#83,#84);
#82 = CARTESIAN_POINT('',(-20.,0.,-14.5));
#83 = DIRECTION('',(0.,-1.,0.));
#84 = DIRECTION('',(1.,0.,0.));
#85 = CYLINDRICAL_SURFACE('',#86,5.);
#86 = AXIS2_PLACEMENT_3D('',#87,#88,#89);
#87 = CARTESIAN_POINT('',(-20.,-3.22E-15,-14.5));
#88 = DIRECTION('',(0.,1.,-2.2E-16));
#89 = DIRECTION('',(1.,0.,0.));
#90 = ADVANCED_FACE('',(#91),#118,.T.);
#91 = FACE_BOUND('',#92,.F.);
#92 = EDGE_LOOP('',(#93,#94,#103,#111));
#93 = ORIENTED_EDGE('',*,*,#39,.T.);
#94 = ORIENTED_EDGE('',*,*,#95,.T.);
#95 = EDGE_CURVE('',#32,#96,#98,.T.);
#96 = VERTEX_POINT('',#97);
#97 = CARTESIAN_POINT('',(25.,-3.,-14.5));
#98 = CIRCLE('',#99,5.);
#99 = AXIS2_PLACEMENT_3D('',#100,#101,#102);
#100 = CARTESIAN_POINT('',(20.,-3.,-14.5));
#101 = DIRECTION('',(0.,-1.,0.));
#102 = DIRECTION('',(1.,0.,0.));
#103 = ORIENTED_EDGE('',*,*,#104,.F.);
#104 = EDGE_CURVE('',#105,#96,#107,.T.);
#105 = VERTEX_POINT('',#106);
#106 = CARTESIAN_POINT('',(25.,-3.E-15,-14.5));
#107 = LINE('',#108,#109);
#108 = CARTESIAN_POINT('',(25.,-3.22E-15,-14.5));
#109 = VECTOR('',#110,1.);
#110 = DIRECTION('',(0.,-1.,2.2E-16));
#111 = ORIENTED_EDGE('',*,*,#112,.F.);
#112 = EDGE_CURVE('',#40,#105,#113,.T.);
#113 = CIRCLE('',#114,5.);
#114 = AXIS2_PLACEMENT_3D('',#115,#116,#117);
#115 = CARTESIAN_POINT('',(20.,0.,-14.5));
#116 = DIRECTION('',(0.,-1.,0.));
#117 = DIRECTION('',(1.,0.,0.));
#118 = CYLINDRICAL_SURFACE('',#119,5.);
#119 = AXIS2_PLACEMENT_3D('',#120,#121,#122);
#120 = CARTESIAN_POINT('',(20.,-3.22E-15,-14.5));
#121 = DIRECTION('',(0.,1.,-2.2E-16));
#122 = DIRECTION('',(1.,0.,0.));
#123 = ADVANCED_FACE('',(#124,#169,#180,#191,#202),#213,.T.);
#124 = FACE_BOUND('',#125,.T.);
#125 = EDGE_LOOP('',(#126,#127,#128,#136,#145,#153,#162,#168));
#126 = ORIENTED_EDGE('',*,*,#47,.F.);
#127 = ORIENTED_EDGE('',*,*,#79,.F.);
#128 = ORIENTED_EDGE('',*,*,#129,.F.);
#129 = EDGE_CURVE('',#130,#62,#132,.T.);
#130 = VERTEX_POINT('',#131);
#131 = CARTESIAN_POINT('',(-25.,3.E-15,14.5));
#132 = LINE('',#133,#134);
#133 = CARTESIAN_POINT('',(-25.,0.,14.5));
#134 = VECTOR('',#135,1.);
#135 = DIRECTION('',(0.,0.,-1.));
#136 = ORIENTED_EDGE('',*,*,#137,.F.);
#137 = EDGE_CURVE('',#138,#130,#140,.T.);
#138 = VERTEX_POINT('',#139);
#139 = CARTESIAN_POINT('',(-20.,4.E-15,19.5));
#140 = CIRCLE('',#141,5.);
#141 = AXIS2_PLACEMENT_3D('',#142,#143,#144);
#142 = CARTESIAN_POINT('',(-20.,0.,14.5));
#143 = DIRECTION('',(0.,-1.,0.));
#144 = DIRECTION('',(1.,0.,0.));
#145 = ORIENTED_EDGE('',*,*,#146,.F.);
#146 = EDGE_CURVE('',#147,#138,#149,.T.);
#147 = VERTEX_POINT('',#148);
#148 = CARTESIAN_POINT('',(20.,4.E-15,19.5));
#149 = LINE('',#150,#151);
#150 = CARTESIAN_POINT('',(20.,0.,19.5));
#151 = VECTOR('',#152,1.);
#152 = DIRECTION('',(-1.,0.,0.));
#153 = ORIENTED_EDGE('',*,*,#154,.F.);
#154 = EDGE_CURVE('',#155,#147,#157,.T.);
#155 = VERTEX_POINT('',#156);
#156 = CARTESIAN_POINT('',(25.,3.E-15,14.5));
#157 = CIRCLE('',#158,5.);
#158 = AXIS2_PLACEMENT_3D('',#159,#160,#161);
#159 = CARTESIAN_POINT('',(20.,0.,14.5));
#160 = DIRECTION('',(0.,-1.,0.));
#161 = DIRECTION('',(1.,0.,0.));
#162 = ORIENTED_EDGE('',*,*,#163,.F.);
#163 = EDGE_CURVE('',#105,#155,#164,.T.);
#164 = LINE('',#165,#166);
#165 = CARTESIAN_POINT('',(25.,0.,-14.5));
#166 = VECTOR('',#167,1.);
#167 = DIRECTION('',(0.,0.,1.));
#168 = ORIENTED_EDGE('',*,*,#112,.F.);
#169 = FACE_BOUND('',#170,.T.);
#170 = EDGE_LOOP('',(#171));
#171 = ORIENTED_EDGE('',*,*,#172,.T.);
#172 = EDGE_CURVE('',#173,#173,#175,.T.);
#173 = VERTEX_POINT('',#174);
#174 = CARTESIAN_POINT('',(-14.85,0.,-10.));
#175 = CIRCLE('',#176,2.65);
#176 = AXIS2_PLACEMENT_3D('',#177,#178,#179);
#177 = CARTESIAN_POINT('',(-17.5,0.,-10.));
#178 = DIRECTION('',(0.,-1.,2.2E-16));
#179 = DIRECTION('',(1.,0.,0.));
#180 = FACE_BOUND('',#181,.T.);
#181 = EDGE_LOOP('',(#182));
#182 = ORIENTED_EDGE('',*,*,#183,.T.);
#183 = EDGE_CURVE('',#184,#184,#186,.T.);
#184 = VERTEX_POINT('',#185);
#185 = CARTESIAN_POINT('',(-14.85,0.,10.));
#186 = CIRCLE('',#187,2.65);
#187 = AXIS2_PLACEMENT_3D('',#188,#189,#190);
#188 = CARTESIAN_POINT('',(-17.5,0.,10.));
#189 = DIRECTION('',(0.,-1.,2.2E-16));
#190 = DIRECTION('',(1.,0.,0.));
#191 = FACE_BOUND('',#192,.T.);
#192 = EDGE_LOOP('',(#193));
#193 = ORIENTED_EDGE('',*,*,#194,.T.);
#194 = EDGE_CURVE('',#195,#195,#197,.T.);
#195 = VERTEX_POINT('',#196);
#196 = CARTESIAN_POINT('',(20.15,0.,-10.));
#197 = CIRCLE('',#198,2.65);
#198 = AXIS2_PLACEMENT_3D('',#199,#200,#201);
#199 = CARTESIAN_POINT('',(17.5,0.,-10.));
#200 = DIRECTION('',(0.,-1.,2.2E-16));
#201 = DIRECTION('',(1.,0.,0.));
#202 = FACE_BOUND('',#203,.T.);
#203 = EDGE_LOOP('',(#204));
#204 = ORIENTED_EDGE('',*,*,#205,.T.);
#205 = EDGE_CURVE('',#206,#206,#208,.T.);
#206 = VERTEX_POINT('',#207);
#207 = CARTESIAN_POINT('',(20.15,0.,10.));
#208 = CIRCLE('',#209,2.65);
#209 = AXIS2_PLACEMENT_3D('',#210,#211,#212);
#210 = CARTESIAN_POINT('',(17.5,0.,10.));
#211 = DIRECTION('',(0.,-1.,2.2E-16));
#212 = DIRECTION('',(1.,0.,0.));
#213 = PLANE('',#214);
#214 = AXIS2_PLACEMENT_3D('',#215,#216,#217);
#215 = CARTESIAN_POINT('',(-9.7E-16,0.,2.19E-15));
#216 = DIRECTION('',(0.,1.,0.));
#217 = DIRECTION('',(0.,0.,1.));
#218 = ADVANCED_FACE('',(#219,#264,#275,#286,#297,#308),#319,.F.);
#219 = FACE_BOUND('',#220,.F.);
#220 = EDGE_LOOP('',(#221,#222,#223,#231,#240,#248,#257,#263));
#221 = ORIENTED_EDGE('',*,*,#31,.F.);
#222 = ORIENTED_EDGE('',*,*,#71,.F.);
#223 = ORIENTED_EDGE('',*,*,#224,.F.);
#224 = EDGE_CURVE('',#225,#64,#227,.T.);
#225 = VERTEX_POINT('',#226);
#226 = CARTESIAN_POINT('',(-25.,-3.,14.5));
#227 = LINE('',#228,#229);
#228 = CARTESIAN_POINT('',(-25.,-3.,14.5));
#229 = VECTOR('',#230,1.);
#230 = DIRECTION('',(0.,0.,-1.));
#231 = ORIENTED_EDGE('',*,*,#232,.F.);
#232 = EDGE_CURVE('',#233,#225,#235,.T.);
#233 = VERTEX_POINT('',#234);
#234 = CARTESIAN_POINT('',(-20.,-3.,19.5));
#235 = CIRCLE('',#236,5.);
#236 = AXIS2_PLACEMENT_3D('',#237,#238,#239);
#237 = CARTESIAN_POINT('',(-20.,-3.,14.5));
#238 = DIRECTION('',(0.,-1.,0.));
#239 = DIRECTION('',(1.,0.,0.));
#240 = ORIENTED_EDGE('',*,*,#241,.F.);
#241 = EDGE_CURVE('',#242,#233,#244,.T.);
#242 = VERTEX_POINT('',#243);
#243 = CARTESIAN_POINT('',(20.,-3.,19.5));
#244 = LINE('',#245,#246);
#245 = CARTESIAN_POINT('',(20.,-3.,19.5));
#246 = VECTOR('',#247,1.);
#247 = DIRECTION('',(-1.,0.,0.));
#248 = ORIENTED_EDGE('',*,*,#249,.F.);
#249 = EDGE_CURVE('',#250,#242,#252,.T.);
#250 = VERTEX_POINT('',#251);
#251 = CARTESIAN_POINT('',(25.,-3.,14.5));
#252 = CIRCLE('',#253,5.);
#253 = AXIS2_PLACEMENT_3D('',#254,#255,#256);
#254 = CARTESIAN_POINT('',(20.,-3.,14.5));
#255 = DIRECTION('',(0.,-1.,0.));
#256 = DIRECTION('',(1.,0.,0.));
#257 = ORIENTED_EDGE('',*,*,#258,.F.);
#258 = EDGE_CURVE('',#96,#250,#259,.T.);
#259 = LINE('',#260,#261);
#260 = CARTESIAN_POINT('',(25.,-3.,-14.5));
#261 = VECTOR('',#262,1.);
#262 = DIRECTION('',(0.,0.,1.));
#263 = ORIENTED_EDGE('',*,*,#95,.F.);
#264 = FACE_BOUND('',#265,.F.);
#265 = EDGE_LOOP('',(#266));
#266 = ORIENTED_EDGE('',*,*,#267,.T.);
#267 = EDGE_CURVE('',#268,#268,#270,.T.);
#268 = VERTEX_POINT('',#269);
#269 = CARTESIAN_POINT('',(-14.85,-3.,-10.));
#270 = CIRCLE('',#271,2.65);
#271 = AXIS2_PLACEMENT_3D('',#272,#273,#274);
#272 = CARTESIAN_POINT('',(-17.5,-3.,-10.));
#273 = DIRECTION('',(0.,-1.,0.));
#274 = DIRECTION('',(1.,0.,0.));
#275 = FACE_BOUND('',#276,.F.);
#276 = EDGE_LOOP('',(#277));
#277 = ORIENTED_EDGE('',*,*,#278,.T.);
#278 = EDGE_CURVE('',#279,#279,#281,.T.);
#279 = VERTEX_POINT('',#280);
#280 = CARTESIAN_POINT('',(-14.85,-3.,10.));
#281 = CIRCLE('',#282,2.65);
#282 = AXIS2_PLACEMENT_3D('',#283,#284,#285);
#283 = CARTESIAN_POINT('',(-17.5,-3.,10.));
#284 = DIRECTION('',(0.,-1.,0.));
#285 = DIRECTION('',(1.,0.,0.));
#286 = FACE_BOUND('',#287,.F.);
#287 = EDGE_LOOP('',(#288));
#288 = ORIENTED_EDGE('',*,*,#289,.T.);
#289 = EDGE_CURVE('',#290,#290,#292,.T.);
#290 = VERTEX_POINT('',#291);
#291 = CARTESIAN_POINT('',(10.,-3.,0.));
#292 = CIRCLE('',#293,10.);
#293 = AXIS2_PLACEMENT_3D('',#294,#295,#296);
#294 = CARTESIAN_POINT('',(0.,-3.,0.));
#295 = DIRECTION('',(0.,-1.,0.));
#296 = DIRECTION('',(1.,0.,0.));
#297 = FACE_BOUND('',#298,.F.);
#298 = EDGE_LOOP('',(#299));
#299 = ORIENTED_EDGE('',*,*,#300,.T.);
#300 = EDGE_CURVE('',#301,#301,#303,.T.);
#301 = VERTEX_POINT('',#302);
#302 = CARTESIAN_POINT('',(20.15,-3.,-10.));
#303 = CIRCLE('',#304,2.65);
#304 = AXIS2_PLACEMENT_3D('',#305,#306,#307);
#305 = CARTESIAN_POINT('',(17.5,-3.,-10.));
#306 = DIRECTION('',(0.,-1.,0.));
#307 = DIRECTION('',(1.,0.,0.));
#308 = FACE_BOUND('',#309,.F.);
#309 = EDGE_LOOP('',(#310));
#310 = ORIENTED_EDGE('',*,*,#311,.T.);
#311 = EDGE_CURVE('',#312,#312,#314,.T.);
#312 = VERTEX_POINT('',#313);
#313 = CARTESIAN_POINT('',(20.15,-3.,10.));
#314 = CIRCLE('',#315,2.65);
#315 = AXIS2_PLACEMENT_3D('',#316,#317,#318);
#316 = CARTESIAN_POINT('',(17.5,-3.,10.));
#317 = DIRECTION('',(0.,-1.,0.));
#318 = DIRECTION('',(1.,0.,0.));
#319 = PLANE('',#320);
#320 = AXIS2_PLACEMENT_3D('',#321,#322,#323);
#321 = CARTESIAN_POINT('',(-9.7E-16,-3.,3.19E-15));
#322 = DIRECTION('',(0.,1.,0.));
#323 = DIRECTION('',(0.,0.,1.));
#324 = ADVANCED_FACE('',(#325),#336,.F.);
#325 = FACE_BOUND('',#326,.F.);
#326 = EDGE_LOOP('',(#327,#333,#334,#335));
#327 = ORIENTED_EDGE('',*,*,#328,.T.);
#328 = EDGE_CURVE('',#130,#225,#329,.T.);
#329 = LINE('',#330,#331);
#330 = CARTESIAN_POINT('',(-25.,3.22E-15,14.5));
#331 = VECTOR('',#332,1.);
#332 = DIRECTION('',(0.,-1.,2.2E-16));
#333 = ORIENTED_EDGE('',*,*,#224,.T.);
#334 = ORIENTED_EDGE('',*,*,#61,.F.);
#335 = ORIENTED_EDGE('',*,*,#129,.F.);
#336 = PLANE('',#337);
#337 = AXIS2_PLACEMENT_3D('',#338,#339,#340);
#338 = CARTESIAN_POINT('',(-25.,3.22E-15,14.5));
#339 = DIRECTION('',(1.,0.,0.));
#340 = DIRECTION('',(0.,-2.2E-16,-1.));
#341 = ADVANCED_FACE('',(#342),#353,.F.);
#342 = FACE_BOUND('',#343,.F.);
#343 = EDGE_LOOP('',(#344,#345,#346,#352));
#344 = ORIENTED_EDGE('',*,*,#104,.T.);
#345 = ORIENTED_EDGE('',*,*,#258,.T.);
#346 = ORIENTED_EDGE('',*,*,#347,.F.);
#347 = EDGE_CURVE('',#155,#250,#348,.T.);
#348 = LINE('',#349,#350);
#349 = CARTESIAN_POINT('',(25.,3.22E-15,14.5));
#350 = VECTOR('',#351,1.);
#351 = DIRECTION('',(0.,-1.,2.2E-16));
#352 = ORIENTED_EDGE('',*,*,#163,.F.);
#353 = PLANE('',#354);
#354 = AXIS2_PLACEMENT_3D('',#355,#356,#357);
#355 = CARTESIAN_POINT('',(25.,-3.22E-15,-14.5));
#356 = DIRECTION('',(-1.,0.,0.));
#357 = DIRECTION('',(0.,2.2E-16,1.));
#358 = ADVANCED_FACE('',(#359),#370,.T.);
#359 = FACE_BOUND('',#360,.F.);
#360 = EDGE_LOOP('',(#361,#367,#368,#369));
#361 = ORIENTED_EDGE('',*,*,#362,.T.);
#362 = EDGE_CURVE('',#138,#233,#363,.T.);
#363 = LINE('',#364,#365);
#364 = CARTESIAN_POINT('',(-20.,4.33E-15,19.5));
#365 = VECTOR('',#366,1.);
#366 = DIRECTION('',(0.,-1.,2.2E-16));
#367 = ORIENTED_EDGE('',*,*,#232,.T.);
#368 = ORIENTED_EDGE('',*,*,#328,.F.);
#369 = ORIENTED_EDGE('',*,*,#137,.F.);
#370 = CYLINDRICAL_SURFACE('',#371,5.);
#371 = AXIS2_PLACEMENT_3D('',#372,#373,#374);
#372 = CARTESIAN_POINT('',(-20.,3.22E-15,14.5));
#373 = DIRECTION('',(0.,1.,-2.2E-16));
#374 = DIRECTION('',(1.,0.,0.));
#375 = ADVANCED_FACE('',(#376),#387,.T.);
#376 = FACE_BOUND('',#377,.F.);
#377 = EDGE_LOOP('',(#378,#379,#380,#386));
#378 = ORIENTED_EDGE('',*,*,#347,.T.);
#379 = ORIENTED_EDGE('',*,*,#249,.T.);
#380 = ORIENTED_EDGE('',*,*,#381,.F.);
#381 = EDGE_CURVE('',#147,#242,#382,.T.);
#382 = LINE('',#383,#384);
#383 = CARTESIAN_POINT('',(20.,4.33E-15,19.5));
#384 = VECTOR('',#385,1.);
#385 = DIRECTION('',(0.,-1.,2.2E-16));
#386 = ORIENTED_EDGE('',*,*,#154,.F.);
#387 = CYLINDRICAL_SURFACE('',#388,5.);
#388 = AXIS2_PLACEMENT_3D('',#389,#390,#391);
#389 = CARTESIAN_POINT('',(20.,3.22E-15,14.5));
#390 = DIRECTION('',(0.,1.,-2.2E-16));
#391 = DIRECTION('',(1.,0.,0.));
#392 = ADVANCED_FACE('',(#393),#399,.F.);
#393 = FACE_BOUND('',#394,.F.);
#394 = EDGE_LOOP('',(#395,#396,#397,#398));
#395 = ORIENTED_EDGE('',*,*,#381,.T.);
#396 = ORIENTED_EDGE('',*,*,#241,.T.);
#397 = ORIENTED_EDGE('',*,*,#362,.F.);
#398 = ORIENTED_EDGE('',*,*,#146,.F.);
#399 = PLANE('',#400);
#400 = AXIS2_PLACEMENT_3D('',#401,#402,#403);
#401 = CARTESIAN_POINT('',(20.,4.33E-15,19.5));
#402 = DIRECTION('',(-0.,-2.2E-16,-1.));
#403 = DIRECTION('',(-1.,0.,0.));
#404 = ADVANCED_FACE('',(#405),#416,.F.);
#405 = FACE_BOUND('',#406,.F.);
#406 = EDGE_LOOP('',(#407,#408,#414,#415));
#407 = ORIENTED_EDGE('',*,*,#267,.F.);
#408 = ORIENTED_EDGE('',*,*,#409,.T.);
#409 = EDGE_CURVE('',#268,#173,#410,.T.);
#410 = LINE('',#411,#412);
#411 = CARTESIAN_POINT('',(-14.85,-3.,-10.));
#412 = VECTOR('',#413,1.);
#413 = DIRECTION('',(0.,1.,-2.2E-16));
#414 = ORIENTED_EDGE('',*,*,#172,.T.);
#415 = ORIENTED_EDGE('',*,*,#409,.F.);
#416 = CYLINDRICAL_SURFACE('',#417,2.65);
#417 = AXIS2_PLACEMENT_3D('',#418,#419,#420);
#418 = CARTESIAN_POINT('',(-17.5,-3.,-10.));
#419 = DIRECTION('',(0.,-1.,2.2E-16));
#420 = DIRECTION('',(1.,0.,0.));
#421 = ADVANCED_FACE('',(#422),#433,.F.);
#422 = FACE_BOUND('',#423,.F.);
#423 = EDGE_LOOP('',(#424,#425,#431,#432));
#424 = ORIENTED_EDGE('',*,*,#278,.F.);
#425 = ORIENTED_EDGE('',*,*,#426,.T.);
#426 = EDGE_CURVE('',#279,#184,#427,.T.);
#427 = LINE('',#428,#429);
#428 = CARTESIAN_POINT('',(-14.85,-3.,10.));
#429 = VECTOR('',#430,1.);
#430 = DIRECTION('',(0.,1.,-2.2E-16));
#431 = ORIENTED_EDGE('',*,*,#183,.T.);
#432 = ORIENTED_EDGE('',*,*,#426,.F.);
#433 = CYLINDRICAL_SURFACE('',#434,2.65);
#434 = AXIS2_PLACEMENT_3D('',#435,#436,#437);
#435 = CARTESIAN_POINT('',(-17.5,-3.,10.));
#436 = DIRECTION('',(0.,-1.,2.2E-16));
#437 = DIRECTION('',(1.,0.,0.));
#438 = ADVANCED_FACE('',(#439),#450,.F.);
#439 = FACE_BOUND('',#440,.F.);
#440 = EDGE_LOOP('',(#441,#442,#448,#449));
#441 = ORIENTED_EDGE('',*,*,#300,.F.);
#442 = ORIENTED_EDGE('',*,*,#443,.T.);
#443 = EDGE_CURVE('',#301,#195,#444,.T.);
#444 = LINE('',#445,#446);
#445 = CARTESIAN_POINT('',(20.15,-3.,-10.));
#446 = VECTOR('',#447,1.);
#447 = DIRECTION('',(0.,1.,-2.2E-16));
#448 = ORIENTED_EDGE('',*,*,#194,.T.);
#449 = ORIENTED_EDGE('',*,*,#443,.F.);
#450 = CYLINDRICAL_SURFACE('',#451,2.65);
#451 = AXIS2_PLACEMENT_3D('',#452,#453,#454);
#452 = CARTESIAN_POINT('',(17.5,-3.,-10.));
#453 = DIRECTION('',(0.,-1.,2.2E-16));
#454 = DIRECTION('',(1.,0.,0.));
#455 = ADVANCED_FACE('',(#456),#467,.F.);
#456 = FACE_BOUND('',#457,.F.);
#457 = EDGE_LOOP('',(#458,#459,#465,#466));
#458 = ORIENTED_EDGE('',*,*,#311,.F.);
#459 = ORIENTED_EDGE('',*,*,#460,.T.);
#460 = EDGE_CURVE('',#312,#206,#461,.T.);
#461 = LINE('',#462,#463);
#462 = CARTESIAN_POINT('',(20.15,-3.,10.));
#463 = VECTOR('',#464,1.);
#464 = DIRECTION('',(0.,1.,-2.2E-16));
#465 = ORIENTED_EDGE('',*,*,#205,.T.);
#466 = ORIENTED_EDGE('',*,*,#460,.F.);
#467 = CYLINDRICAL_SURFACE('',#468,2.65);
#468 = AXIS2_PLACEMENT_3D('',#469,#470,#471);
#469 = CARTESIAN_POINT('',(17.5,-3.,10.));
#470 = DIRECTION('',(0.,-1.,2.2E-16));
#471 = DIRECTION('',(1.,0.,0.));
#472 = ADVANCED_FACE('',(#473),#491,.T.);
#473 = FACE_BOUND('',#474,.T.);
#474 = EDGE_LOOP('',(#475,#476,#483,#490));
#475 = ORIENTED_EDGE('',*,*,#289,.T.);
#476 = ORIENTED_EDGE('',*,*,#477,.T.);
#477 = EDGE_CURVE('',#290,#478,#480,.T.);
#478 = VERTEX_POINT('',#479);
#479 = CARTESIAN_POINT('',(8.236730192915,-13.,2.E-15));
#480 = B_SPLINE_CURVE_WITH_KNOTS('',1,(#481,#482),.UNSPECIFIED.,.F.,.F.,
  (2,2),(0.,1.),.PIECEWISE_BEZIER_KNOTS.);
#481 = CARTESIAN_POINT('',(10.,-3.,0.));
#482 = CARTESIAN_POINT('',(8.236730192915,-13.,2.22E-15));
#483 = ORIENTED_EDGE('',*,*,#484,.F.);
#484 = EDGE_CURVE('',#478,#478,#485,.T.);
#485 = CIRCLE('',#486,8.236730192915);
#486 = AXIS2_PLACEMENT_3D('',#487,#488,#489);
#487 = CARTESIAN_POINT('',(0.,-13.,2.E-15));
#488 = DIRECTION('',(0.,-1.,0.));
#489 = DIRECTION('',(1.,0.,0.));
#490 = ORIENTED_EDGE('',*,*,#477,.F.);
#491 = CONICAL_SURFACE('',#492,10.,0.174532925199);
#492 = AXIS2_PLACEMENT_3D('',#493,#494,#495);
#493 = CARTESIAN_POINT('',(0.,-3.,0.));
#494 = DIRECTION('',(0.,1.,-2.2E-16));
#495 = DIRECTION('',(1.,0.,0.));
#496 = ADVANCED_FACE('',(#497),#500,.T.);
#497 = FACE_BOUND('',#498,.T.);
#498 = EDGE_LOOP('',(#499));
#499 = ORIENTED_EDGE('',*,*,#484,.T.);
#500 = PLANE('',#501);
#501 = AXIS2_PLACEMENT_3D('',#502,#503,#504);
#502 = CARTESIAN_POINT('',(0.,-13.,2.22E-15));
#503 = DIRECTION('',(0.,-1.,2.2E-16));
#504 = DIRECTION('',(1.,0.,0.));
#505 = ( GEOMETRIC_REPRESENTATION_CONTEXT(3) 
GLOBAL_UNCERTAINTY_ASSIGNED_CONTEXT((#509)) GLOBAL_UNIT_ASSIGNED_CONTEXT
((#506,#507,#508)) REPRESENTATION_CONTEXT('Context #1',
  '3D Context with UNIT and UNCERTAINTY') );
#506 = ( LENGTH_UNIT() NAMED_UNIT(*) SI_UNIT(.MILLI.,.METRE.) );
#507 = ( NAMED_UNIT(*) PLANE_ANGLE_UNIT() SI_UNIT($,.RADIAN.) );
#508 = ( NAMED_UNIT(*) SI_UNIT($,.STERADIAN.) SOLID_ANGLE_UNIT() );
#509 = UNCERTAINTY_MEASURE_WITH_UNIT(LENGTH_MEASURE(1.E-07),#506,
  'distance_accuracy_value','confusion accuracy');
#510 = PRODUCT_RELATED_PRODUCT_CATEGORY('part',$,(#7));
#511 = MECHANICAL_DESIGN_GEOMETRIC_PRESENTATION_REPRESENTATION('',(#512)
  ,#505);
#512 = STYLED_ITEM('color',(#513),#15);
#513 = PRESENTATION_STYLE_ASSIGNMENT((#514,#520));
#514 = SURFACE_STYLE_USAGE(.BOTH.,#515);
#515 = SURFACE_SIDE_STYLE('',(#516));
#516 = SURFACE_STYLE_FILL_AREA(#517);
#517 = FILL_AREA_STYLE('',(#518));
#518 = FILL_AREA_STYLE_COLOUR('',#519);
#519 = COLOUR_RGB('',0.,0.666666687201,1.);
#520 = CURVE_STYLE('',#521,POSITIVE_LENGTH_MEASURE(0.1),#522);
#521 = DRAUGHTING_PRE_DEFINED_CURVE_FONT('continuous');
#522 = COLOUR_RGB('',9.803921802644E-02,9.803921802644E-02,
  9.803921802644E-02);
ENDSEC;
END-ISO-10303-21;
